<?xml version="1.0" encoding="UTF-8"?>
<svg id="a" xmlns="http://www.w3.org/2000/svg" viewBox="0 0 100.0342 195.6784">
  <defs>
    <style>
      .b {
        fill: #ff00b3;
      }
    </style>
  </defs>
  <path class="b" d="M39.7638,40.5505c.2617.3586.5234.7172.9137,1.2522.2338-1.0029.3678-1.8545.6397-2.6593.2313-.6846.7588-1.2848.9125-1.9764.3079-1.3848.4274-2.8105.6676-4.2119.1716-1.0009.6565-1.5677,1.8219-1.3137,1.9048.4152,3.8481.6627,5.7408,1.1226,4.2455,1.0316,8.5172.7729,12.3785-.9653,5.0897-2.2913,9.8801-5.2475,14.8054-7.9062,1.8135-.979,3.6126-1.9038,5.6916-2.355,2.3177-.503,4.629-1.2632,6.775-2.2702,2.3917-1.1223,4.8505-1.7135,7.4311-1.9996.8301-.0921,1.6536-.2448,2.4926-.3716-.1762-.7719-.31-1.2637-.399-1.7635-.5049-2.836-4.0563-5.376-6.0219-5.4748-2.1397-.1076-4.2778-.2627-6.4188-.3277-2.0674-.0627-4.1772-.2949-6.1958.0176-2.3162.3586-4.5835.888-6.9407.5349-1.9856-.2974-3.9624.1-5.9971-.172-3.437-.4594-6.9676-.4696-10.4426-.311-2.6108.1191-5.1984.5396-7.8354.2954-1.3422-.1243-2.735-.1212-4.0561.1074-.7808.1351-1.4579.5548-2.1744-.1435.2052-1.9293,1.1097-3.9111-.2155-5.8039.9281-.6961.7236-1.7635.5023-2.5891-.0993-.3703-1.1779-.6532-1.8216-.6733-4.4235-.138-8.8496-.1857-13.2743-.2886-.8333-.0194-1.6642-.1499-2.4951-.2398-1.3393-.1449-2.5843-.1288-3.644.975-.5257.5474-1.3158.8578-2.0167,1.2156-1.1642.5944-2.396,1.0679-3.5163,1.7326-.7433.441-1.108,1.076-.6234,2.1057.4202.8928.4413,1.9738.6534,3.0459,2.9366.7179,6.0107.2572,9.1101-.1319-.319.1943-.6379.3886-.7117.4336.9768.6389,1.9873,1.2999,3.0519,1.9963-.4028.528-.6257.8201-.8688,1.1389.7131.4903,1.3471.9261,1.9981,1.3736.4542-1.0968.9528-1.657,1.4958-1.6807-.5659,1.1501-.3852,1.571.9116,2.2729.3829.2072.7209.4976,1.0794.7498l-.1692.3021c-.5012.1125-1.0024.2252-1.8355.4124,1.3175.6162,2.3047,1.0779,3.0334,1.4187-.0851.534-.4133,1.2081-.2071,1.602.3727.7122,1.2577.9424,1.6843,1.8641.3665.7918,1.7153,1.1281,2.6557,1.6811.0341,1.4933-1.424.9639-2.166,1.3455.4286.2616.8071.4926,1.1856.7235-.2769.2866-.6386.5312-.8068.8716-.1684.3409-.1453.7773-.2029,1.1723-.0342.2344-.0404.6692-.0962.6753-1.0596.1159-2.0377.4602-3.0504.7782-1.0175.3196-2.5082.4448-3.2856-.0865-1.2263-.8381-1.4476-.1534-2.2811.4352-.8794.621-2.2332.5967-3.3907.7886-1.5823.2623-3.171.5051-4.7664.6537-.3232.0302-.6888-.3957-1.2302-.733-.5362.3442-1.5341.0208-2.4774.5287-.8272.4454-2.0882.3868-2.8804-.7294,2.05-.1439,3.1789-.3978,3.3866-.7615-3.0548-.5435-6.1421-1.0928-9.2441-1.6447.1021-.3651.1689-.6037.2376-.8491-1.0043-.284-1.9233-.5438-2.9801-.8426.2475.397.4168.6685.6822,1.0942-1.198.0877-2.2498.5284-3.419-.5473.8598-.185,1.4395-.3098,2.0514-.4414-.3921-1.4109-2.1228.6608-2.3488-1.1464.4265.0397.7796.0726.943.0878.0663-.782.1106-1.4851.1909-2.184.0488-.425.1531-.8435.2325-1.265l-.4227-.1207c-.5309.634-1.0779,1.2553-1.5895,1.9046-1.0086,1.2801-.7314,3.5141.7145,4.2188,1.7379.8471,3.5809,1.5237,5.4385,2.0691,3.4185,1.0037,6.8839,1.8466,10.3238,2.7786,1.6401.4444,2.126,1.1336,2.1358,2.8238.0085,1.4702.0448,2.9403.0652,4.4105.0609,4.3619.1636,8.7238.1678,13.0858.0044,4.5779-.2191,9.1596-.0905,13.7326.0926,3.2945.677,6.5721.897,9.8669.1876,2.8094.695,5.5835.265,8.4613-.356,2.3815-.0914,4.8556-.1069,7.2887-.0151,2.3699.2925,4.8029-.1464,7.092-.452,2.3572-.9694,4.6023.1873,6.8098.35.668,1.0926,1.331,1.7963,1.5573.7475.2404.7605.5012.5999,1.0768-.2603.9328-.502,1.8709-.7515,2.8068.1418-.0341.2835-.0682.4253-.1022.2054.1334.5813.2579.5888.4017.052.997.0274,1.9981.0274,3.2307-.6079-.429-.9045-.6383-1.3797-.9737-.1728,1.2311-.3987,2.2754-.4507,3.3283-.1103,2.2318-.1235,4.4683-.1883,6.7025-.0948,3.2689-.2841,6.5378-.2755,9.8063.0078,2.9459.2806,5.8902.3407,8.8371.0773,3.7917.066,7.5854.0803,11.3782.0225,5.942.0462,11.8841.0447,17.826-.0005,2.199-.4257,2.9276-2.5325,3.1159-2.4005.2146-4.168,1.3842-5.8557,2.887-1.6503,1.4695-2.4269,3.3044-2.3741,5.5049.0182.7574.0681,1.517.0331,2.2723-.0757,1.6315-.2518,3.2601-.2721,4.8914-.0079.6357.2931,1.2753.4534,1.9131.3573-.8922.3263-1.7302.5157-2.5148.6136-2.5422.7742-5.1161.4532-7.6887-.1789-1.4332.1267-2.4913,1.3483-3.2696.3117,1.07,1.6697,2.2696,2.2285,1.8389,1.4203-1.0947,2.6842-2.3932,4.0006-3.6209.0683-.0637.0369-.229.0628-.3446.3529-1.5733,1.178-2.3706,2.7901-2.5615.3603-.0427.7549.2051,1.1337.3192-2.2276.2642-2.6836.6813-3.3879,3.3144,1.5001.1907,2.9884.4717,4.4876.5547,6.8519.3794,13.6637,1.0717,20.3968,2.4323.8259.1669,1.4823.0337,1.9762-.7192.1456-.222.4657-.3293.7058-.4892.0686.4186-.0104.6428-.146.8248-.4956.6651-.2093,1.186.4659,1.1806,1.4842-.012,2.2902,1.144,3.3943,1.7637.987.5539,1.1452,2.1866.5107,3.1659-.1687.2603-.2379.8403-.0753,1.0155.6252.6736,1.2006,1.5698,2.3964,1.1331.1931-.0705.6504.0578.6948.1912.2714.8152.4588,1.6584.6774,2.5045-.925.3784-1.7192.165-2.215-.6305-.6018-.9656-1.3606-.8303-2.1738-.4819-.5009.2146-.9523.5431-1.4312.8111-.7869.4404-.9574-.0219-.9684-.8676-.8536.4257-1.6195.8075-2.4443,1.2188-.2003-.2958-.3865-.5709-.5727-.8459.0029-.0002.0059-.0001.0088-.0004-.0049-.0023-.0097-.0057-.0145-.0081-.0051-.0075-.0106-.0156-.0157-.0231-.0016.0039-.003.008-.0046.0119-.3535-.1787-.7043-.472-1.063-.4818-.8312-.0226-1.6858.0154-2.4969.188-5.0567,1.0769-10.107,2.1849-15.1535,3.3092-2.6239.5845-2.6185.6091-2.9655-2.0096-.3542,2.2345-1.1153,3.3845-2.6551,3.4175-2.6502.0568-5.3049-.105-7.9579-.1652-.2297-.0052-.4611.0627-.6917.0966-.0211.1228-.0422.2456-.0633.3684.7261.2442,1.4451.6745,2.1793.7022,4.6504.1754,9.3065.4101,13.956.3353,4.577-.0737,9.1476-.5081,13.7227-.7523,3.965-.2116,7.9516-.2004,11.8921-.6266,2.7152-.2937,5.3995-1.0731,7.3366-3.336.2305-.2693.8081-.267,1.2336-.3376,1.1339-.1881,2.2902-.2773,3.3991-.5582.3599-.0912.6006-.6539,1.0681-1.2036-.8664-.1658-1.4323-.274-2.118-.4054.4646-.2002.7802-.3361,1.1115-.4789-1.5658-2.1524-2.668-2.4902-4.8462-1.3394,2.1111.4967,2.2533,1.8052,1.5693,3.5902-.4133-.1701-.8376-.3087-1.2286-.5116-1.9177-.9949-2.8808-2.7728-3.6409-4.6584-.2544-.6311-.1846-1.3931-.263-2.0952.6358.2207,1.3446.3309,1.8884.6908.6444.4265,1.1465.7905,1.918.2537.2202-.1532.6826.0276,1.0307.0777.3958.0569.856.3088,1.1706.1825,1.9184-.7705,3.7979-1.6372,5.7026-2.4429.5734-.2426,1.2916-.6294,1.4333.4623.2151,1.6574.3705,3.3224.5747,4.9813.1375,1.1169.3156,2.2288.5127,3.6023.5814-.4388.9108-.6422,1.1862-.9028,1.5292-1.4474,3.0817-2.8733,4.5506-4.3805.7297-.7487,1.3057-.6993,2.0362-.0677,1.7318,1.4972,3.5155,2.9354,5.2151,4.4677.2573.232.1758.8403.251,1.2745-.3514-.0714-.7228-.0949-1.0473-.2306-.2294-.096-.3954-.344-.5897-.5242-.0054.1128-.0108.2256-.0162.3384-.541.1057-1.0802.223-1.624.3122-.269.0441-.5467.0337-.8201.0523-2.3745.1618-4.7474.4152-7.1237.4517-1.3313.0204-2.2165.2748-2.4887,1.7334-.073.3909-.5994,1.0467-.8073,1.0067-1.5014-.2891-2.997-.6779-4.2183-1.8429.5499-.2335.9832-.4175,1.4166-.6015-.0229-.0669-.0457-.1338-.0685-.2007-1.2313-.1145-2.4626-.229-4.0041-.3724.4975.4434.7429.7566,1.0636.9317,1.4644.7998,2.8726,1.8537,4.4453,2.2704,2.6852.7114,5.4707,1.0683,8.2302,1.4611,1.0401.1481,2.1257-.0576,3.1891-.034,4.5771.1017,8.9255-.4113,12.0809-4.3028.3939-.4858.812-.9519,1.2189-1.4272l-.3535-.3627-2.5161,2.0378c.3604-.9491,1.0684-1.658,1.26-2.4866.3144-1.3597,1.2165-2.2145,2.1401-3.027.8458-.7441.936-.9382-.0217-1.6841.6271-.8812,1.2142-1.7943,1.8906-2.6354.7216-.8973.7113-1.2435-.2284-1.8503-.1995-.1288-.3598-.3253-.568-.4327-1.2344-.6368-2.2501-1.7702-3.9135-1.7716.1649.5219.2971.9403.5215,1.6506-1.0453-.3326-1.8541-.6075-2.6732-.8467-1.4032-.4096-2.7903-.979-4.2243-1.1569-3.4214-.4246-6.6388-1.2468-9.2774-3.6255-.6012-.542-1.2147-1.0702-2.0661-1.8189,1.1336-.1073,1.9293-.1826,2.8092-.2659-.6274-.7128-1.1635-1.322-1.6996-1.9311l.123-.3593c-1.7426.233-3.4852.4659-5.2278.6989-.0151-.0806-.0303-.1611-.0455-.2417l.9086-.6465c-.466-.1438-.8862-.1348-1.2908-.0506-2.4457.5088-4.3382,2.0791-6.331,3.4189-1.1751.79-2.1064,1.9486-3.2944,2.7123-1.0019.6441-2.0947.9728-3.4364.3176-2.6189-1.2789-5.4184-2.0608-8.3745-2.2054-2.1793-.1065-4.3644-.2518-6.5238-.5488-1.2027-.1655-2.481-.5514-2.1906-2.4318-.4783.3927-.7879.6469-1.2625,1.0365v-1.324c.4375.0372.7724.0657,1.2552.1068.0868-2.9779.145-5.8687.262-8.7571.1475-3.6408.327-7.2805.5281-10.9188.0567-1.0254.3498-2.0453.3372-3.0653-.0232-1.8867-.1851-3.7721-.3055-5.657-.0272-.4254-.2012-.8522-.1712-1.2685.1919-2.6625.4816-5.3191.6201-7.9838.1077-2.0721.0188-4.1536.0589-6.2302.113-5.8568.2273-11.7138.3967-17.5691.0234-.811.2708-1.6523.597-2.3997.1319-.3021.755-.5499,1.1531-.5478,1.8979.0101,3.7958.1687,5.6928.1537.5963-.0047,1.1898-.3848,1.7842-.594.5435-.1912,1.0827-.5387,1.6302-.5519,5.5783-.1345,11.158-.2058,16.7367-.3262.4689-.0101.9329-.2476,1.3991-.3795-.0305-.1822-.0611-.3643-.0917-.5464-1.2711.7635-2.506.207-3.7552.1783-1.2718-.0293-2.5448-.0065-3.8172-.0065.0077-.1443.0154-.2888.0231-.4332.5112,0,1.0225-.0077,1.5335.0015,1.379.0248,1.4688-.0994,1.3325-1.4931-.0563-.576.0192-1.1648.0348-1.7478.1757-.0036.3513-.0072.527-.0109.1006.5962.1768,1.1979.3093,1.7869.1068.4746.2816.9339.4262,1.4.4257-.2445.8495-.4925,1.2793-.7296.0613-.0338.1516-.015.1253-.0131.4607.3109.8528.5755,1.4657.989v-3.8954c.3957.3745.723.5372.7823.7687.1562.6099.3042,1.258.2565,1.8755-.0712.9216.26,1.2324,1.1476,1.1613.6889-.0551,1.3857-.011,2.079-.011-.0077.1044-.0154.2087-.0231.3131h-2.5763c-.0227.1406-.0455.2813-.0682.422.3379.0728.6751.2049,1.0138.2087,1.9463.0219,3.8946.06,5.8384-.0115.6274-.0231,1.7379.2992,1.4198-1.1501.2827.0326.6892.0201.7039.0901.2184,1.0391,1.0921.9759,1.7814.9677,1.7053-.0201,3.4173-.315,5.1107-.2188,1.2409.0705,1.3965-.437,1.4288-1.425.0391-1.1945.2326-2.3832.2974-3.5778.0331-.6103-.0689-1.228-.1115-1.8684-1.656.8493-3.245.9843-4.8891.8184-.381-.0385-.7809-.056-1.1531.0157-.9167.1765-1.814.4624-2.7342.6106-1.9333.3114-3.7319-1.1868-5.7644-.3758-.7591.3029-1.7274.0696-2.5996.1023-.8735.0327-1.7462.0888-2.6189.1411-.9128.0547-2.3277-.2266-2.6457.2392-1.035,1.516-1.293-.4968-1.9404-.2473-.036.0139-.079.0149-.1185.014-2.6139-.0578-5.2278-.1201-7.8418-.1714-.4366-.0086-.8741.0338-1.3113.0464-1.6845.0486-3.3689.1202-5.0537.1328-1.1137.0083-2.2279-.0955-3.3421-.1012-1.0079-.0052-1.8089-1.0351-3.1016-.0437-.9948.763-4.6312-1.854-4.7716-3.2515-.1538-1.5317-.1348-3.0827-.1513-4.6257-.0097-.9127.0793-1.8262.0864-2.7396.0251-3.2484-.1727-6.5164.1307-9.7376.1676-1.7801.2007-3.488.0543-5.2552-.1125-1.3575.2846-2.6815,1.244-3.7594.7001-.7866,1.3922-1.5819,2.0524-2.4019.4394-.5457.4186-.9714-.3564-1.2645-.5072-.1919-.939-.5836-1.3595-.8565.0124.6167-.1104,1.3673-1.1733,1.0026-.3406-.1168-.7687-.5273-.8046-.8435-.0433-.381.1736-.9634.4771-1.1836,1.6655-1.2084,1.7638-1.7328.4625-3.2109-.1743-.1981-.3523-.4791-.3579-.7256-.0334-1.4622-.0165-2.9255-.0165-4.5148.4618.1164.6987.1762,1.2294.31-.4331-.8005-.7518-1.3895-1.1937-2.2062.6939.2,1.0174.2932,1.3409.3865-1.2301-.9699-1.3188-1.0521-1.3352-2.0557-.0238-1.451-.0061-2.9028-.0061-4.4076h1.4209c.048-.7729.0927-1.4924.1449-2.3339-1.1215.4068.2543,2.0764-1.2886,2.0712v-6.0209l.2763-.0714ZM19.9001,3.7923c1.0617-.466,2.1764-.8525,3.3088-1.0952.4656-.0998,1.0244.2361,1.4628.353.8058-.1613,1.6288-.3259,2.4518-.4906.1115.163.2227.3259.3341.4889-.6496.3773-1.2992.7545-1.9488,1.1318.1144.1602.2287.3204.3431.4806h1.4514c.0029.1044.0059.2088.0089.3132h-7.775c.1163-.4149.1186-1.0745.3629-1.1817ZM17.9178,6.1782c.4988-.2579,1.1067-.3044,1.6744-.4287.0048.1033.0097.2066.0145.3099h0c-.4412.4208-.8825.8415-1.4935,1.4241-.0799-.4852-.3168-1.2425-.1953-1.3053ZM21.7388,7.5402c-.4618.2434-.9415.4773-1.4413.6145-.3108.0853-.6724-.0146-1.0112-.0314-.0002-.1227-.0004-.2455-.0006-.3682h.0001c.3574-.1329.7147-.2658,1.0663-.3965-.1431-1.2089.5765-1.9909,1.4416-1.5227.3355.1816.5402.7157.6533,1.1305.0331.1214-.4316.428-.7082.5738ZM27.9587,7.5131c-.6913-.4546-1.3827-.9091-2.0854-1.3712.8639-.6125,1.4413-.3537,2.2715,1.0132-.062.1193-.1241.2387-.1861.358ZM23.2181,39.5048c.2657.0622.6461.332.6803.552.0941.6054.0325,1.235-.2208,1.9105-.1227-.5195-.2454-1.0389-.3681-1.5584-.1331.0068-.2662.0136-.3993.0204-.07.8625-.1401,1.7251-.2189,2.6955v.0002h1.2127v1.5684c-.6701-.2731-1.583-.36-1.82-.8064-.3893-.7334-.3572-1.6979-.4605-2.57-.0188-.1584.2848-.3921.2369-.5042-.7085-1.6583.2894-1.558,1.3577-1.308ZM23.4626,93.7267c-.0021,1.315-.5846,2.0259-1.8156,2.287-.1906.0405-.4155-.0809-.6245-.1275.0711-.2081.0882-.4678.2259-.6122.2152-.2256.5656-.3294.7589-.5664.1821-.2233.3812-.7634.3237-.8032-1.3624-.9421-.3579-2.2833-.5679-3.4058-.1018-.5445.1991-1.1645.3439-1.8797-.1688-1.1807-.5615-2.5615-.509-3.925.0589-1.5296.5188-3.044.8099-4.5639.022-.1151.1585-.2859.1247-.3225-.7972-.8631.0344-1.9052-.315-2.8205-.0885-.2321-.1122-.5891.0068-.7823.4576-.7432.3429-1.3208-.2858-1.9053-.1708-.1587-.2479-.5892-.1653-.8233.7207-2.0419.6032-2.4243-1.3063-3.5914h-.0002c.4727-.5826.7029-.6821,1.3082-.0652,2.3787,2.4242,1.9979,5.3596,1.7683,8.2933-.0244.31-.2271.6447-.1555.9176.7101,2.7087.2226,5.4047.0481,8.1188-.1403,2.1828.0303,4.3843.0267,6.5775ZM23.9867,53.6451l-.3706.0874c-.2195-.445-.439-.8901-.6874-1.3936-.8749.6973-.4802,1.5101-.2919,2.2197.5058,1.9065.2141,3.6999-.6966,5.3881-.6425,1.1913-.6238,1.837.3154,2.6733.446.3972.9814.7418,1.291,1.2283.2273.3571.2723.9369.1649,1.3577-.0573.2248-.5977.4088-.9413.4558-.3821.0522-.7883-.0723-1.2387-.1265v2.8388c-.1172.047-.2343.094-.3515.141-.1857-.3512-.5379-.707-.5284-1.0529.0417-1.5196.2262-3.0352.2699-4.5548.0112-.3914-.3017-.7922-.3273-1.1875-.0525-.466-.1057-.9319-.1573-1.3982-.0557-.5022-.1317-1.0033-.1601-1.5071-.0523-.9232-.1686-1.8571-.0793-2.769.0587-.5994.5-1.1517.6422-1.7553.1261-.5351.3071-1.4394.0626-1.6123-.9591-.6782-.6134-1.0155.136-1.4378.1587-.0895.2606-.28.3886-.424-.0999.0055-.1998.0109-.2997.0164-.2483-1.2491-.4966-2.4983-.774-3.894.5875.0482.8817.0723,1.6008.1313-.4947-.5626-.7657-.8709-.9889-1.1247.2031-.3095.4277-.6865.6897-1.0354.1262-.1681.3305-.3996.4855-.3894.155.0102.4039.2755.42.4471.1189,1.2626.2107,2.5287.2683,3.7957.0386.851.0073,1.7051.2327,2.5947.0362-.4063.0415-.8189.1219-1.2162.0393-.1942.2185-.3601.3344-.5388.1564.141.4442.2781.4486.4238.0366,1.2053.0207,2.4121.0207,3.6184ZM25.1227,165.9102c-.2384-.2235-.4768-.4471-.8078-.7575h.0001c.3141-.3926.5071-.6339.7001-.8752.2032.3262.4879.6325.574.9872.0406.1674-.2991.4274-.4664.6454ZM25.4753,150.8125h0c-.2099.1542-.4197.3083-.6296.4625-.1779-.2455-.471-.4801-.4958-.7402-.0186-.1948.2948-.5838.4846-.5998.322-.0272.663.1715.996.2752-.1184.2007-.2369.4015-.3553.6023ZM33.4258,131.5145h0c-.3904-.3503-1.0733-.6733-1.109-1.0568-.0692-.743.5567-.9359,1.3185-.7219.0649.4642.1331.9514.2012,1.4387-.1368.1133-.2737.2267-.4106.34ZM44.5894,190.9525c-.0754.0391-.5349-.38-.5016-.4652.1135-.2906.3208-.609.5826-.7586.2378-.136.5781-.0925.881-.1152-.1002.2419-.1734.5027-.3193.7129-.1707.2458-.3871.4933-.6427.6261ZM81.1326,194.8952c-.0983-.1406-.1965-.2813-.2947-.4219h0c.6015-.4555,1.203-.9109,1.8045-1.3664.1093.1563.2185.3127.3278.469-.6126.4398-1.2251.8795-1.8377,1.3193ZM94.6418,184.3453c-.6159,1.0576-1.7226,1.1768-2.8028,1.582.2896-1.1269,1.1499-1.5696,2.8028-1.582ZM58.0091,180.3067c.4254-.9786.4706-2.2979,2.0939-2.3186.3527-.0046.8813-.7567,1.005-1.2465.281-1.112.6154-1.9786,1.9332-2.2256.5193-.0974.9114-.7512,1.4229-1.044.8481-.4854,1.7377-.9023,2.6314-1.2993.1374-.061.3903.1386.853.322-1.5559,1.0793-2.888,2.0963-4.3181,2.9485-.5515.3286-.69.5841-.6502,1.1835.0584.8782.2504,1.7587-1.2354,1.9182-.694.0745-1.2822,1.1807-1.9073,1.83-.1924.1998-.3052.5161-.5304.6357-.3558.189-.7757.2571-1.1685.3763-.0522-.364-.2542-.7933-.1295-1.0802ZM48.2886,176.182c1.52.1832,3.1038-.1635,4.6484-.2774-1.8463,1.5997-7.4406,1.0968-9.0028-1.1042,1.4488.4826,2.8691,1.2025,4.3544,1.3817ZM55.5707,103.3264c.8393,0,1.6804-.0345,2.5174.0093.9185.0481,1.1684-.4055,1.145-1.237-.0192-.6803.0774-1.364.1227-2.0462.1868.0181.3737.0363.5606.0544h0v3.975c-1.1066-.5823-2.1441-.9824-3.0204.137-.4775-.2323-.9138-.4447-1.3502-.657.0083-.0785.0165-.157.0248-.2355ZM49.6332,100.1103c.1083,1.157.2165,2.3139.3275,3.4997-.9168-.1691-1.2665-1.772-.3275-3.4997ZM36.3227,16.7488c-.7267-.1701-1.139-.2666-1.5624-.3657.2181-.754.459-1.2566,1.3623-.9478.207.0708.6011-.4072,1.0081-.705.122.169.3768.5221.6612.9161-.4979.489-1.9092-.6775-1.4692,1.1024ZM38.5389,168.2673c-.0881-.6251-.1715-.9634-.1778-1.3032-.0398-2.1323.1342-4.2928-.1636-6.3869-.1813-1.2748.129-2.3154.4333-3.6061h.0001c1.0064,1.1463.9739,9.3322-.092,11.2962ZM38.8415,133.3324c.1141.0009.2282.0018.3423.0026v3.5293c-.2572-1.19-.8992-2.3683-.3423-3.5319ZM38.9018,153.7165v1.816c-.1132-.0015-.2264-.0029-.3397-.0044v-1.8141c.1132.0008.2264.0017.3397.0025ZM39.1388,129.5835c-.1117-.9316-1.1001-1.8122-.3736-2.797.1245.0125.2491.0251.3736.0376v2.7594ZM39.1578,124.8008c-.1997-.0137-.3995-.0275-.5992-.0412.0574-.9809.1147-1.9618.1721-2.9427.2108.0153.4216.0305.6324.0457-.0684.9794-.1368,1.9588-.2053,2.9382ZM38.7947,114.8361c.1436-.0032.2871-.0065.4307-.0097v6.1516c-.4447-.3955-.7343-.5367-.7289-.6657.076-1.8264.1919-3.6511.2982-5.4762ZM38.2286,9.1586c-.7982.1218-.8798-.6264-.8686-1.2326.0119-.6473-.1009-1.5456.893-1.4312.3813.0439.6857.7566,1.2034,1.3788-.5306.5832-.8349,1.225-1.2278,1.285Z"/>
  <path class="b" d="M8.4302,18.7445c-.7168-.1116-1.6644.2448-1.9024,1.3062.9751.1846,1.938.3668,3.2181.6089-.5322-.824-.8504-1.8426-1.3157-1.9151Z"/>
  <path class="b" d="M11.8008,9.9401c1.0354.343,2.4352-.773,3.1743.7853.0367.0773.3908.0963.5119.015.1209-.0811.2366-.4071.1775-.4783-.2288-.2754-.5011-.6469-.8066-.7006-.8563-.1506-1.7366-.1973-2.6087-.2132-.5467-.01-1.0958.1094-1.6439.1708.0138.1509.0276.3019.0414.4528.387-.0175.8105-.1456,1.1541-.0318Z"/>
  <path class="b" d="M15.6194,25.1897c.1322-.2972.4397-.7991.3693-.8595-.6453-.5534-1.3563-1.0303-2.0481-1.5294h0c-.094.1257-.1879.2513-.2819.3769.6943.2852,1.4795.4839,1.2106,1.5067-.0252.0959.4873.3335.7501.5053Z"/>
</svg>