<?xml version="1.0" encoding="UTF-8"?>
<svg id="a" xmlns="http://www.w3.org/2000/svg" viewBox="0 0 84.2619 188.9407">
  <defs>
    <style>
      .b {
        fill: #ff00b3;
      }
    </style>
  </defs>
  <path class="b" d="M50.3132,153.3797l.001.0002c-.0101-.0043-.0207-.0099-.0309-.0144.0005.0139.0015.0277.0021.0416l.0278-.0273Z"/>
  <path class="b" d="M69.2307,172.265c-.5872.3192-1.0212.7087-1.509.7953-2.9657.5263-5.939,1.019-8.9237,1.4179-.3608.0482-.8058-.5351-1.2914-.8827-1.6531.3785-3.6162.828-5.645,1.2926.1724-.3758.2992-.6524.4261-.929-.0673-.0544-.1345-.1088-.2018-.1632-.5185.3087-1.037.6175-1.3274.7904-.4552-.4331-.8351-.6768-1.0494-1.0232-.439-.7095-2.1832-.2641-1.4469-1.9598-.2771.1658-.3691.2513-.4761.2796-.4718.1246-.9479.2327-1.4225.3467-.069-.4808-.1877-.9614-.189-1.4423-.0008-.2991.105-.6522.284-.8896,1.6344-2.1674.7151-4.621.353-6.7816-.2432-1.4512-.024-2.7409-.1531-3.8251,1.7589-.4256,3.3342-.8068,4.9095-1.188-.0256-.1688-.0513-.3377-.0769-.5065-.6836.0462-1.3668.1017-2.051.1345-.299.0143-.7765.0991-.8728-.0468-.835-1.2643-2.1057-1.4291-3.4444-1.539-.7236-.0594-1.4363-.2525-2.25-.403.6837-.9033,1.9602-1.2975,3.2007-1.2614.5234.0153,1.1599-.0599,1.5526-.3527.448-.334.601-1.257,1.03-1.3721.4553-.1221,1.0748.369,1.6271.6094-.0668-1.7306-.253-3.468-.1565-5.1893.0851-1.5176.5268-2.9402,2.0853-3.7864,1.5304-.8309,2.5778-2.1666,2.7166-3.9574.2001-2.5837.2773-5.1775.381-7.768.0761-1.9001-.8735-3.3837-2.6655-3.9697-1.987-.6498-4.0044-1.2148-6.0289-1.7382-1.2447-.3218-1.9293-1.2343-1.3502-2.3637.6505-1.2685.4213-2.3978-.1142-3.5364-.1838-.3909-.6345-.656-.9633-.9786-.1217.0752-.2434.1503-.3651.2255v-.9823c.3969.0735.7938.1471,1.1469.2125.7176-.2286.3151-.9885.8109-1.4257,1.644-1.4498,3.5147-2.7651,3.425-5.4036-.065-1.9096.2876-3.8381.1675-5.74-.1244-1.9694.6696-3.0983,2.4348-3.7093.2631-.091.5263-.1871.778-.3052.7871-.3694,1.2088-.9306,1.1889-1.8679-.0193-.91.1721-1.8228.1863-2.7357.0221-1.4139.0275-2.8327-.0692-4.2419-.053-.7723-.3458-1.526-.5023-2.2939-.3164-1.5527-.4325-3.1738-.9567-4.651-1.0749-3.0291-2.3416-5.9915-3.5794-8.9604-.3781-.9069-.2377-1.3122.785-1.4537.5644-.0781,1.1584-.3289,1.623-.6633,1.0213-.7352,1.9602-1.584,2.95-2.3644.4984-.393,1.0159-.7689,1.5581-1.0975.8207-.4975.9814-1.1133.6667-2.0266-.34-.9864-.9963-1.1133-1.8685-1.0175-.6317.0694-1.4284.3276-1.8651.0501-.5397-.343-.792-1.1484-1.149-1.7652-.1183-.2045-.1432-.465-.2683-.6635-.4616-.7325-.4307-1.3529-.076-2.2124.5172-1.2532,1.1562-2.808.8334-3.9839-.6862-2.4997-1.8192-4.912-3.037-7.2183-.916-1.7347-1.105-1.6837.7222-2.6819,1.017-.5557,1.5251-1.3947,1.7358-2.5342-2.6345.3909-2.5423-.2133-3.5693-1.8848-.9247-1.505-1.7526-3.0695-2.7658-4.8596-.0448,1.7769-2.6829.5287-2.447,2.4984-.4743-.0574-.9248-.112-1.3754-.1666-.0199.0806-.0399.1613-.0598.242.2366.219.4732.438.7357.6809-.8365.6708-1.5133.8828-1.8938-.2909-1.3464.3441-2.6405.5647-3.85,1.0138-1.3016.4833-2.5154,1.1991-3.7831,1.7793-1.1466.5248-1.7663,1.4489-1.74,2.7039.0067.3188.0019.6388.0295.9559.2177,2.5039,1.1282,4.6723,3.0354,6.4028.2393-.3443.3724-.7065.6316-.881,1.5806-1.0639,3.2059-2.0615,4.7859-3.1262,2.5263-1.7024,5.0246-3.4466,7.5504-5.1499.1945-.1312.5125-.0787.7731-.1116-.6501.7803-1.2785,1.3809-1.9816,1.875-3.2869,2.3099-6.6023,4.5791-9.8819,6.8992-.3253.2302-.4764.7072-.7083,1.0696.5097.2182,1.0238.6181,1.528.6059.5533-.0134,1.0861-.4436,1.6507-.6174.2539-.0782.6484-.0835.8351.0626,2.2617,1.7693,3.3689,4.3125,4.6061,6.7848-1.8109.8751-2.2188,1.1167-1.8912,3.7058.2095,1.657.1909,3.5013-.3329,5.0566-.8302,2.4651-2.1525,4.7664-3.2961,7.1227-2.0757,4.2767-3.4283,8.7169-3.4113,13.5351.006,1.6882-.2453,3.3852-.4797,5.0641-.2342,1.677.4397,2.9767,1.9797,3.6164.6973.2896,1.3557.6713,2.0412.991.7956.3711,1.0651.9843,1.0005,1.8428-.1134,1.509-.1988,3.0215-.2437,4.5341-.0759,2.56.1013,5.0172,2.3172,6.8427,1.1938.9834,1.7692,2.3274,1.5591,3.9297-.1886,1.4381-.268,2.9-.5878,4.3076-.1893.8331-.7083,1.5543-1.7951,1.6489-1.8495.1611-3.6868.4588-5.533.6648-2.198.2454-3.5328,1.5241-3.516,3.7123.0201,2.6187.1923,5.2383.3653,7.8531.1294,1.9551.5805,3.7884,2.4743,4.6478-.1565.4084-.4324.7658-.3456.9649.3662.8404.7549,1.6973,1.2973,2.4276.6402.862.4208,2.287,1.7558,2.6927.0413.0125.0454.312-.0083.448-.5365,1.3578-.2888,2.6283.4112,3.8471.2876.5007.2887.8581-.3085,1.1513-.4544.223-.9428.5005-1.244.888-.7448.9579-1.3901,1.0135-2.2444.1688-.3006-.2973-.7651-.4691-1.1855-.5962-.8379-.2534-1.8889-.0943-2.206-1.2602-.0151-.0555-.1137-.0882-.232-.174-.2121.268-.4237.5353-.8088,1.0217.7546.5323,1.381,1.1974,2.145,1.4584,1.0297.3518,2.1605.4411,3.257.5553,1.6766.1746,2.0591.5893,1.9692,2.212-.0468.8447-.0082,1.6942-.0082,2.5415l.2263.0122c.2287-.5293.4573-1.0585.686-1.5878.0979.025.1958.0499.2937.0749v3.323c-.9686-.1516-1.2165.1877-1.2312.9747-.0191,1.0236-.1934,2.051-.3875,3.0601-.049.2544-.4132.6188-.6567.6388-2.6848.221-5.3596.8708-8.076.1246-.5145-.1413-1.1515.1644-1.7319.2639-.3257.0531-.6182-.4023-.9844-.4725-1.4314-.2743-2.8843-.4417-4.3331-.616-.4682-.0563-.952.0247-1.4229-.0198-2.6089-.2467-5.2125-.588-7.8267-.7171-.6218-.0306-1.3304.5565-1.9001.9898-.4281.3257-.7322.838-1.0316,1.3057-.8183,1.2786-1.6049,2.5775-2.404,3.8684.0884.0732.1769.1463.2654.2195.4118-.3912.7817-.844,1.2447-1.1599.776-.5295.8821-1.915,2.2158-1.7404.0714.0094.1881-.2345.2639-.3715.3244-.5863.6674-1.1643.9539-1.769.2872-.6061.7905-.7868,1.2382-.4042.2937.2511.5462.9584.3978,1.24-.38.7214-.9726,1.3382-1.5198,1.962-.838.9553-1.7094,1.8813-2.6739,2.9373.7896.0981,1.2831.1594,1.4868.1847,1.2787-1.5357,2.4512-2.9457,3.6257-4.354.7794-.9346,2.4306-.9225,3.3114-.0475.5271.5236,1.0944,1.1306,1.7614,1.3664,2.1852.7726,4.4244,1.3924,6.5107,2.0306-.7723.8654-1.7152,1.9218-2.6288,2.9454.4705,1.1613.425,1.1115-.493,1.9526-.4915.4504-.801,1.1025-1.1819,1.6708-.7658,1.1427-1.5011,2.307-2.307,3.4204-.1444.1995-.567.2738-.8619.2754-2.183.0122-3.2357.9738-3.3557,3.3679.8236-.1087,1.5984-.215,2.3745-.3103.1893-.0232.4848-.093.5593-.0013,1.1767,1.449,2.8004,1.0695,4.3232,1.0874.4173.005,1.0424.1258,1.2195-.0928,1.1705-1.4447,2.2448-2.9676,3.5419-4.7243h-1.5229c.571-1.2226,1.2247-2.3536,1.6299-3.5678.3795-1.1374,1.3497-2.1239.9092-3.6313-.5576.3266-.8381.8677-1.2454,1.285-.4206.431-.8413.6445-.8294,1.4748.0233,1.6205-.6931,2.981-2.3971,3.5697-.1602.0553-.2492.2951-.3914.4276-1.3217,1.2305-2.6168,2.4986-4.2704,3.2935-.1261.0606-.332-.0451-.8104-.1255.6481-.4365,1.1513-.6328,1.4431-.9983.9293-1.164,1.7707-2.3979,2.6651-3.5905.3968-.529,1.007-.9595,1.2309-1.5456.8128-2.1277,2.1337-3.8758,3.6609-5.5221.6239-.6725,1.2282-.2044,1.3667.1403.3435.8549.5224,1.811.5719,2.7369.0318.5933-.284,1.2053-.444,1.8089.1153.0483.2307.0966.346.1449.2805-.7506.6205-1.4852.8281-2.2555.3544-1.3151.9677-1.8769,1.9754-1.8117.7715.0499,1.6127.1476,2.3167-.0906,2.3145-.7832,4.5156-.3257,6.4262.2542.2944.6566.5052,1.1062.6974,1.5635.1019.2426.287.5253.2365.7441-.243,1.052-.5428,2.0915-.8425,3.1296-.4219,1.4617-1.1088,2.903-1.2006,4.383-.0548.8835-.1604,1.2875-.7561,1.399-.1303.8284-.2349,1.4941-.3682,2.3416h3.2728c.2911-2.4545.5938-5.0062.9072-7.6481.3277.1923.6139.3603.9246.5427.2148-.9071-.0253-1.3876-1.0311-1.1709v-6.1315c1.5145.4725,3.0249.8837,4.478,1.4437.3198.1233.4992.7553.6337,1.1872.2877.9236.5045,1.8694.7489,2.8065.184.7055.3657,1.4115.6062,2.3401-.7481-.5596-1.297-.9702-1.8641-1.3943-.1665.2697-.2561.3495-.2422.4017.4371,1.6428.9147,3.2758,1.3013,4.9302.0677.2895-.1597.8724-.3908.9633-.5643.222-.7949.4559-.503,1.0164.5134.0962,1.0353.2991,1.5372.2574,1.2177-.1012,2.4213-.4243,3.6381-.4741,5.2002-.2126,10.3934.3194,15.6159-.1528,4.274-.3864,8.3306-1.4842,12.3871-2.6686,1.7523-.5116,3.3875-1.4256,5.0606-2.1503-.2512-1.8751-10.7129-9.287-15.0312-10.7742ZM47.3016,131.1322l.3027.0504h0v8.3378c-.1009-.0043-.2018-.0086-.3027-.0129v-8.3753ZM44.6042,97.4199c.1181-.0009.2361-.0016.3542-.0025v2.0081c-.1181-.009-.2361-.0181-.3542-.0271v-1.9785ZM42.1408,113.2278c-.1524.025-.3049.05-.4573.075h-.0001c-.1367-.909-.3493-1.8144-.3936-2.728-.0788-1.6255-.0812-3.2566-.0541-4.8844.0054-.3259.2853-.6473.4386-.9708.1555.0484.311.0969.4665.1454v8.3628ZM42.4606,78.7481c-1.7495,4.6617-2.8284,9.4617-3.2695,14.3963-.0086.0964-.3079.1668-.6022.3152-.4082-5.4049,1.2122-10.1835,3.2899-14.856.1938.0481.3879.0963.5818.1444h0ZM34.0774,140.4664c-.1332-.0005-.2664-.0011-.3996-.0016v-9.9738c.194-.0004.388-.0009.582-.0013.1943,3.3276-.2321,6.6503-.1824,9.9767ZM23.4715,184.4639c-.0814-.2444-.1856-.5569-.2897-.8695.1125-.0729.225-.1458.3375-.2187.2188.3259.692.7597.6082.9573-.2478.5853-.3778,1.5604-1.7163,1.0171.4232-.3537.7318-.6117,1.0603-.8862ZM40.0659,165.6144c-.1509.8126-.2931,1.6268-.4393,2.4402-.1113.0184-.2225.0367-.3338.0551-.1321-.5876-.3641-1.1727-.3789-1.7632-.0616-2.4616-.0836-4.9252-.0454-7.3869.0047-.3045.4072-.7794.7123-.8649.5787-.1624.6733.282.8276.8237.6525,2.2903.0688,4.4813-.3425,6.696Z"/>
  <path class="b" d="M58.0031,4.265c-.0475-.0058-.0952-.0114-.1427-.0171.0385.0146.0765.0307.1153.0441,0,0,.0013-.0013.0016-.0015.0563.008.1113.0203.1675.0286-.0472-.0178-.0941-.0372-.1414-.0543l-.0003.0003Z"/>
  <path class="b" d="M17.6618,12.6381c2.9666,2.0878,6.461,2.9389,9.8689,3.7454,5.0286,1.1899,10.1712,1.8981,15.2666,2.8035.851.1512,1.7446.3155,1.8956,1.3325.1635,1.1015-.8283,1.3765-1.5248,1.8874-.5972.4381-1.2145.981-1.5383,1.6216-.3012.5959-.2653,1.3796-.3112,2.0849-.266,4.0879-.5812,8.1746-.7294,12.2672-.0551,1.5196.2972,3.0539.4713,4.6514.3154-.0829.7787-.1048,1.1287-.3156.9952-.5997,1.9066-1.3437,2.9193-1.9081,1.8652-1.0397,2.5816-.8028,3.679,1.0284-.1859.297-.3657.5842-.5454.8713.0429.0919.0859.1839.1288.2758.7643-.1807,1.5287-.3613,2.2931-.542-.0182.1018-.0365.2036-.0547.3054.3752.0613.7947.2582,1.1155.1531.5164-.1691.9487-.5778,1.4503-.8135,1.1307-.5314,1.2305-.4741,1.7568.7514-2.9809.1535-3.4046.4821-3.439,2.6668,1.7878-.5677,3.1028-.7062,3.9451-.4154.3002.1036.572.3426.8734.3778.6083.0709,1.3701.2826,1.8169.015,1.4663-.8782,1.8359-3.586.8322-5.0067-.6884-.9744-1.338-1.9763-2.0359-2.9434-.2222-.308-.5443-.5438-.9862-.9737-.0562.6896-.0873,1.0717-.128,1.5705-.7372-.6071-1.3301-1.0954-2.0745-1.7084.0857,1.337-.5925.8984-1.285.618-.2388,1.1743-.4555,2.2401-.6722,3.3058-.0944-.0001-.1887-.0003-.2831-.0004-.2126-1.0793-.4251-2.1585-.6377-3.2378-.1265.0079-.2531.0158-.3795.0237-.0511.4031-.233.8441-.1292,1.2022.3402,1.1741-.5404,1.5413-1.2665,1.6792-.3734.0709-1.0692-.5485-1.3003-1.0145-.2409-.4858-.1231-1.1625-.1185-1.7554.0158-2.0659.0776-4.1318.07-6.1975-.0066-1.8034-.114-3.6068-.0956-5.4094.0028-.269.4516-.5334.6941-.7999.2458.2951.6888.5794.7056.8869.1163,2.1372.4054,4.2245.9625,6.3063.3602,1.3461.2885,2.808.4103,4.2181.1339-.0048.2677-.0096.4016-.0144,0-.5737-.0328-1.1496.0065-1.7206.099-1.4376.1346-2.8895.3793-4.3039.1969-1.1383.6353-2.2141-.0588-3.3394-.1353-.2194.0077-.6176.0384-.9317.1584-1.621-.7969-3.2165-2.2595-3.6186-.6093-.1675-1.2702-.1464-1.9077-.211.0076-.1332.0153-.2664.0229-.3996h1.3169c-.45-1.5616-.0625-2.1223,1.5575-2.1601,3.4645-.0807,6.9311-.0729,10.3958-.1485,5.3077-.1158,10.5829-.4411,15.4102-3.0168.4232-.2258.7858-.5656,1.1765-.8525-1.5391.3677-2.9091.9929-4.3271,1.4768-.9676.3302-2.024.7134-3.0024.6289-1.7265-.149-3.3941-.3746-5.0022.5028-.2641.1442-.6142.1645-.9275.1789-1.7114.0788-3.4373.304-5.1328.1667-2.9254-.2369-5.8837.4411-8.7855-.4087-1.3377-.3917-1.4768-.5398-1.3927-2.2105.0594-1.1801.9179-.9934,1.6354-1.0209,2.546-.0977,5.0925-.1886,7.6396-.2474,1.8683-.0431,3.759-.1882,5.4079,1.0329.1875.1389.894-.0245.9042-.1054.1517-1.2009,1.0705-1.2763,1.96-1.5177.4355-.1182.7884-.5419,1.1786-.8273-.0381-.1118-.0762-.2237-.1143-.3355-5.6444,1.6139-11.3735,1.8229-17.2148,1.3999.7763-1.8322,3.6734-3.0184,9.6166-4.0444-.096-.2792-.1875-.545-.2364-.6871,1.2612-1.0922,2.4664-1.7963,4.0912-.8291,1.6516.9831,3.3052.1423,4.6886-.1707-.1143-.5913-.2087-1.0802-.3028-1.5668l.0455.0204c-.0164-.0247-.0383-.0402-.0543-.0658-.0002-.001-.0004-.0021-.0006-.0032v-.0003l-.0287.0314c-3.0026-1.3337-6.1516-2.1349-9.3912-2.6078.6452.2427,1.2792.5402,1.9461.6768,1.0705.2194,1.8902.6026,1.9312,1.8559-.8408.6061-1.4377.4706-1.6378-.6035-1.4454.1805-.2716,1.5867-1.0532,2.0261-.7646-.5866-1.4445-1.3763-2.3011-1.7068-1.551-.5984-3.194-.9828-4.8227-1.3495-3.3758-.76-6.8109-.8893-10.2357-.5349-1.7581.1819-3.496.6611-5.2068,1.1367-.5087.1414-.8942.7266-1.2602,1.0428.7364.459,1.5551.6756,1.7405,1.1436.4436,1.1195,1.3744,1.4279,2.2743,1.895.8112.421,1.6412.8488,2.3453,1.4189.4758.3853.7476,1.0229,1.1106,1.5476-.6076-.0381-1.2574.0508-1.8158-.1353-3.1854-1.0616-6.3474-2.1934-9.5209-3.291-1.1215-.3879-2.2782-.6854-3.3736-1.1347-1.282-.5258-2.5145-1.1725-3.9592-1.8571.4814-.7129.9762-1.4455,1.5434-2.2855-.9556.0336-1.9613.1173-2.5573.9412-.6699.9261-1.2199,1.9774-.5557,3.2184.7135,1.3332,2.3122,1.253,3.2969,2.1592.4968.4572,1.0903.8935,1.7188,1.1049,1.2499.4204,2.5536.6812,3.8362,1.0033,2.0066.504,3.9932,1.1305,6.0276,1.4685,1.8383.3054,3.7296.2885,5.5967.4243.7582.0551,1.4579.1507,1.2892,1.2371-.2047,1.319-.9045,2.1776-1.7256,1.723-1.179-.6527-2.2052-1.301-3.5509-.5724-.0744.0403-.2453-.0304-.3355-.0976-.8028-.5985-1.5879-1.1463-2.6153-.3822-.1479.11-.5247-.1168-.7998-.1422-.3-.0276-.7014-.1268-.8915.0208-.9971.7745-2.0664-.177-3.0604.1919-.0261-.0712-.0522-.1424-.1179-.3213.3339-.2155.6836-.4414,1.0297-.6649-1.1625-.2719-2.27-.5266-3.3737-.7964-.1024-.025-.1702-.1691-.2729-.2191-.3977-.1937-.7871-.4322-1.2087-.5439-1.1483-.3042-2.3115-.5524-3.4688-.8227-.0112-.1223-.0225-.2444-.0338-.3666-.3844.4389-.7688.8778-1.1827,1.3504-.0906-.1428-.1879-.2625-.2492-.3986-.2504-.5558-.3884-1.2004-.7613-1.6521-.3813-.4619-.9649-.9927-1.5024-1.0435-1.4466-.1367-2.5805-.7146-3.5072-1.786-.4274-.4941-.7098-.2971-1.0198.155-.5204.7592-.3637,1.4389.2309,2.0212.4793.4694,1.0266.8768,1.5771,1.2642ZM53.4023,40.0943c.201,1.8274-1.009,1.6498-1.8253,1.9484-.0754-.0917-.1509-.1833-.2264-.2751h-.0001c.6351-.518,1.2702-1.0359,2.0518-1.6733ZM41.6339,5.9112c-.1047-.1595-.0306-.5772.1136-.7344.5034-.5489,2.3856-.2308,2.5727.4966.3869,1.5045.6098,3.0512.9002,4.5806-.1624.07-.3248.1401-.4872.2101-1.0395-1.5134-2.092-3.0183-3.0993-4.5529Z"/>
  <path class="b" d="M44.7499,1.3844c1.9498.0996,3.893.3423,5.8365.5464.9052.0951,1.8792.0719,2.6915.4133,2.3416.9843,4.8141,1.013,7.2625,1.3286,1.5793.2036,3.1233.7341,4.6598,1.1957.7417.2228,1.4157.6617,2.1447.9386,2.5497.9686,5.2523,1.6046,7.2996,3.615.3772.3704.9655.5256,1.4563.7801.0775-.115.155-.2299.2325-.3449-.3421-.3473-.6226-.8244-1.0362-1.021-2.7964-1.3296-5.6189-2.6049-8.438-3.8865-.9762-.4438-1.979-.8298-2.9488-1.2866-3.5852-1.6889-7.2453-3.3771-11.2205-3.5533-5.4015-.2394-10.8244-.0242-16.2373.0535-.9344.0135-1.8649.3122-2.7972.4792h0c-.0045.1134-.0089.2269-.0133.3405.585.0292,1.1698.0669,1.7551.0861,3.1178.1024,6.238.1563,9.3529.3154Z"/>
  <path class="b" d="M11.7287,177.9496c-1.078.895-2.4274,1.4607-3.6509,2.1837-.1949.1152-.3598.2975-.5064.4753-.6468.7848-1.2817,1.5793-1.921,2.3703-.1151-.0693-.2301-.1387-.3452-.208,1.1359-2.0301,2.2718-4.0602,3.5212-6.2932-1.1183,1.025-2.2543,1.7095-2.855,2.7147-.6326,1.0586-1.8994,1.7557-1.9287,3.2277-.0051.2558-.8045.5014-1.2427.7414-.4197.2299-.8469.4464-1.2708.6686.0323.1672.0648.3344.0972.5016,1.3812.2656,2.9225,1.0414,4.1041.6702,1.5433-.4848,2.8302-1.8417,4.1698-2.8966.5673-.4467.9648-1.103,1.481-1.6228.7865-.7921,1.6091-1.5482,2.4398-2.3417-.8087-.69-1.276-.869-2.0923-.1913Z"/>
  <polygon class="b" points="1.5291 183.8302 1.5292 183.8302 1.5292 183.8301 1.5291 183.8302"/>
  <path class="b" d="M45.1589,187.1589c.4542-.3413.9669-.6344.935-.7171-.28-.7263-.657-1.4151-1.0053-2.1151-.1529.017-.3057.034-.4585.051-.568.8167-1.1359,1.6335-1.7819,2.5624.7611,1.73,1.5843,2.1103,3.1564,1.2832h.0002s.0004.0004.0004.0004l-.0007-.0002.0273.0285c-.0051-.0094-.004-.0151-.0089-.0244-.0043-.0008-.0086-.0021-.0129-.0029-.3062-.3829-.6099-.7635-.8511-1.0659Z"/>
  <path class="b" d="M15.3633,181.9493c.0933.0554.1866.1107.28.1661,1.9869-2.507,3.9739-5.014,6.1173-7.7185-1.5084-.0105-3.9197,2.3514-4.2361,3.7288-.1112.4845-.4587.9252-.742,1.3573-.5245.7999-1.268,1.4875-1.4192,2.4663Z"/>
  <path class="b" d="M8.8737,185.7257c.0115.1719.023.3439.0345.5159.6768.1322,1.4389.5245,2.0109.3367.9021-.2961,1.5295-2.2721,1.1732-3.5042-1.1312.9319-2.1749,1.7918-3.2186,2.6516Z"/>
  <path class="b" d="M50.8618,169.5358c1.5149-.4979,2.9992-1.0891,4.3404-1.5842h0c-2.5031-.9558-4.4561,1.2328-6.7991,1.8816.8488.0471,1.6811-.0418,2.4587-.2974Z"/>
  <polygon class="b" points="0 180.772 0 180.7719 0 180.7719 0 180.772"/>
  <path class="b" d="M3.4885,176.7907c-1.1628,1.3271-2.3256,2.6541-3.4885,3.9812.1733.1445.3464.289.5198.4335,1.1006-1.3807,2.2013-2.7614,3.3019-4.1421-.1111-.0908-.2221-.1817-.3332-.2726Z"/>
  <path class="b" d="M53.1167,155.653c-1.0812-.8579-1.9416-1.5406-2.7996-2.2216.0369,1.7444.7961,2.4725,2.7996,2.2216Z"/>
  <path class="b" d="M50.2864,153.4071c.0102.0081.0205.0163.0307.0244-.0004-.0181-.0034-.0325-.0036-.0508.0007-.0009-.0271.0264-.0271.0264Z"/>
  <path class="b" d="M35.1151,180.4731h0c.1421.0306.2841.0613.4262.092.3299-1.4633.6597-2.9266.9895-4.3899-.1015-.0231-.203-.0462-.3045-.0693-.6361,1.3914-1.2584,2.7861-1.1112,4.3672Z"/>
  <path class="b" d="M28.9937,180.7815c-.7236,1.5388-1.382,2.9388-2.177,4.6294,1.0831-.5627,2.3108-3.3784,2.177-4.6294Z"/>
  <path class="b" d="M34.4918,149.7106c-.1342,1.1024-.2684,2.2045-.417,3.4246,1.0913-.5569,1.2604-1.5246.7607-3.3925h0c-.1146-.0108-.2291-.0214-.3437-.0321Z"/>
  <path class="b" d="M14.4516,177.0705c.0561.0821.1122.1641.1683.2462,1.1687-.5504,2.4074-1.0132,3.034-2.2429-.1096-.1384-.2192-.2769-.3288-.4153-.9578.804-1.9157,1.608-2.8735,2.412Z"/>
  <path class="b" d="M38.0938,175.9504h-.0001c-.1519-.0124-.3039-.025-.4557-.0375-.1032,1.1867-.2064,2.3735-.3096,3.5603.15.0122.2999.0244.4498.0366-.1223-1.2047.8708-2.32.3157-3.5594Z"/>
  <path class="b" d="M52.6385,3.2126c.1934.162.3727.4242.5849.4545,1.5421.2198,3.0905.3941,4.637.5809-.2108-.0803-.4191-.1722-.6367-.2126-1.5267-.2838-3.0563-.5503-4.5852-.8228Z"/>
  <path class="b" d="M52.6227,3.2044c.0011-.0006.0044-.0026.0044-.0026h-.153c.045.0035.0898.0071.1348.0106.0024-.0015.0038-.0023.0068-.004.0076.0013.0151.0027.0227.0041-.0038-.0032-.0075-.0075-.0114-.0106l-.0044.0024Z"/>
  <path class="b" d="M43.5908,2.485c-1.0765-.0552-2.7761-.1425-4.4756-.2297-.0218.0766-.0435.1531-.0652.2297h4.5408Z"/>
  <path class="b" d="M46.7478,3.2018h5.7264c-1.9092-.1476-3.8125-.2988-5.7156-.4502-.0036.1501-.0072.3001-.0108.4502Z"/>
  <path class="b" d="M70.0298,8.5391c.0697-.1327.1393-.2653.209-.3979l-2.6192-1.1763c.591.8882,1.4958,1.2394,2.4102,1.5743Z"/>
  <path class="b" d="M53.4748,34.7035c-.634-.2209-1.065-.3711-1.715-.5976.0923.5668.1573.9661.2552,1.5673.5751-.382.9491-.6304,1.4598-.9697Z"/>
</svg>