<?xml version="1.0" encoding="UTF-8"?>
<svg id="a" data-name="Calque_1" xmlns="http://www.w3.org/2000/svg" viewBox="0 0 73.7903 105.1442">
  <defs>
    <style>
      .b {
        fill: #fff;
      }
    </style>
  </defs>
  <path d="M47.5832,90.7273c-.7122.0173-1.3098.1912-1.3504,1.0553-.0069.1466.0366.3706.1335.4269.1071.0622.3028-.0485.459-.0449.1628.0037.3246.0539.3145.0521.3874-.3633.7279-.6826,1.2349-1.158.0637.6155.1244.9692.1233,1.3227-.0004.1154-.1374.2788-.2536.3371-.5241.263-1.0631.4962-1.5967.7402.0361.092.0721.184.1082.2761.4737-.1655.9474-.3309,1.421-.4964.0286.097.0571.194.0857.291-.4927.2462-.9854.4924-1.4781.7385.0261.0626.0522.1251.0784.1877.4847-.1819.9693-.3638,1.454-.5458.0304.0752.0608.1504.0911.2256-.5088.2837-1.0175.5673-1.5297.8529.2568,1.3559,2.3215,2.1391,3.5819,1.8549.4483-.1011.8338-.5565,1.208-.8943.72-.65.928-.674,1.5158-.0874.104-.4627.1843-.9441.3227-1.4082.2239-.7505.8612-.369,1.3272-.4956.3007-.0817.5465-.483.7465-.7874.2426-.3692.4111-.7872.6459-1.2521-.0543-.0222-.2255-.0923-.4322-.1769.0804-.1847.1604-.3684.2421-.5557.8745.5305,1.3527.442,1.8667-.3372-.1471-.059-.2944-.1173-.4238-.1685.2724-.3309.5221-.634.7717-.9372-.0609-.0573-.1219-.1147-.1828-.172-.2208.1629-.4417.3259-.8817.6505,1.1136-1.8187,1.8155-3.6049,3.7434-4.4624-.0817-.0753-.1634-.1506-.2451-.2259-.3192.1797-.6384.3594-1.0569.595.3476-1.3079.6756-2.5422.9862-3.7105.053.1008.175.3329.3044.5792.2671-.4051.5291-.8025.7951-1.2059.7809.3263.6799.8879.2483,1.5399.0814.0327.1629.0655.2443.0982,1.2421-.7508,2.4842-1.5016,3.7263-2.2524l-.1604-.2968c-.5243.2459-1.0485.4917-1.5727.7376-.0299-.0448-.0598-.0897-.0897-.1345.9177-.7055,1.8354-1.4111,2.7531-2.1167-.0515-.0622-.103-.1245-.1545-.1867-.5303.3506-1.0606.7012-1.8014,1.1909.4452-.9695,1.8487-1.8364,2.3302-1.6328.0802-.2146.16-.4283.3162-.8464-.7091.2594-1.2537.4587-1.7982.658-.0347-.0824-.0694-.1648-.1041-.2472.4946-.2806,1.0253-.5139,1.4735-.8555.4219-.3216.7567-.7574,1.1298-1.143-.0588-.0706-.1177-.1413-.1765-.2119-.6318.4102-1.2635.8204-1.8953,1.2306-.0507-.0733-.1013-.1466-.152-.2199l3.5403-2.5301c-.0518-.086-.1036-.172-.1554-.2579-.3322.0806-.6644.1612-1.1233.2725.4845-.4808.8601-.8536,1.2357-1.2264-.0475-.0638-.095-.1277-.1425-.1915-.1769.0443-.3537.0886-.6285.1575.3543-.4501.6555-.8325.9566-1.215-.0388-.0409-.0776-.0819-.1165-.1228-.2003.0823-.4007.1645-.601.2468-.0357-.0456-.0714-.0912-.107-.1369.3444-.3817.6888-.7634,1.0332-1.145-.0271-.0356-.0542-.0713-.0813-.1069l-.8348.3228c-.0377-.0431-.0755-.0862-.1132-.1294.316-.3853.632-.7706.948-1.1559-.027-.0399-.0541-.0799-.0811-.1198-.2891.1177-.5782.2353-1.0408.4236.1994-.3322.3069-.5114.4519-.753-.2933-.0471-.5346-.0858-.9029-.1449.5569-.5104,1.025-.9393,1.493-1.3682-1.142.6663-2.373,1.246-2.5832,2.8467-.1372-.0557-.2744-.1114-.4116-.1671.0225-.2593.014-.5262.0753-.776.0805-.3282.2161-.6429.2378-.9964-.3169.5039-.6338,1.0079-.9507,1.5118-.1145-.0599-.229-.1198-.3435-.1796,1.0354-2.3971,2.0709-4.7941,3.1063-7.1912-.0472-.0302-.0944-.0603-.1415-.0905-.2143.2344-.4286.4687-.6776.7409-.0858-.8406.3763-1.2669,1.1118-1.1015.1638-.4241.3276-.8483.4914-1.2725-.0417-.0295-.0834-.0591-.1251-.0886-.3691.3334-.7383.6668-1.1074,1.0002-.0693-.0609-.1386-.1219-.2079-.1828.3975-.4912.795-.9823,1.1926-1.4735-.0254-.0316-.0508-.0631-.0762-.0947-.213.1259-.426.2519-.6391.3778-.0771-.0649-.1541-.1299-.2312-.1948.6857-.8584,1.3714-1.7169,2.0571-2.5753-.0426-.0346-.0852-.0692-.1278-.1038-.483.4356-.966.8712-1.4489,1.3068-.0452-.0309-.0904-.0618-.1355-.0927.5043-.6885,1.0087-1.377,1.5234-2.0797-.2024-.0625-.3617-.1116-.6196-.1912.473-.6652.9068-1.2751,1.4679-2.0641-.356.2022-.5325.3024-.7089.4025-.0623-.0469-.1247-.0939-.187-.1408.5292-.7833,1.0584-1.5666,1.5875-2.3499-.0526-.033-.1053-.066-.1579-.099-.3491.3812-.6982.7623-1.0473,1.1435-.0526-.0388-.1052-.0776-.1578-.1164l1.8308-3.1716c-.0417-.0261-.0834-.0522-.1251-.0782-.2463.2855-.4925.571-.7388.8565-.0898-.0524-.1797-.1048-.2695-.1572.4812-.8932.9625-1.7864,1.4437-2.6797-.0585-.0285-.1169-.057-.1754-.0854-.3152.2993-.6304.5985-.9456.8978-.0607-.0436-.1214-.0872-.1821-.1308.3434-.6074.6867-1.2149,1.1569-2.0468-.4303.2282-.6138.3255-.7972.4229-.0599-.0381-.1198-.0763-.1797-.1144.2705-.5778.5409-1.1555.8114-1.7333-.0511-.0384-.1021-.0769-.1532-.1153-.2559.3091-.5118.6182-.7677.9273-.0685-.0472-.137-.0943-.2055-.1415.5824-1.1041,1.1647-2.2081,1.8612-3.5285-.9073.3168-.641,1.4875-1.6339,1.4169.4048-.8056.7716-1.5357,1.1385-2.2657-.102-.0776-.204-.1552-.3061-.2328-.139.2359-.2781.4718-.4237.7189-.0987-.1137-.2196-.2057-.2046-.2426.3775-.9329.0843-1.8121-.1473-2.7146-.0595-.232.2072-.5328.2687-.8141.1012-.4631.4562-.8934.0534-1.4298-.1295-.1725.0188-.6468.1648-.9151.3903-.7172-.0222-1.2504-.3521-1.7932-.0689-.1134-.3504-.0976-.3551-.0987-.1173-.5295-.2264-1.0219-.3355-1.5143-.0779.0036-.1558.0073-.2337.0109l-.5056.7699c-.0582-.0284-.1163-.0568-.1745-.0852.0929-.3699.3254-.777.2396-1.0993-.0869-.3267-.4885-.5696-.9885-.8212v2.0964c-.3536-.3263-.6438-.5942-1.015-.9368-.1608-.4919-.3677-1.1252-.588-1.7995-1.0747.6886-.5184-.6713-1.0817-.6533.0391.2065.0831.4393.1271.6722-.0708.0269-.1415.0537-.2123.0806-.2055-.5342-.411-1.0685-.6164-1.6027-.0572.0129-.1144.0258-.1716.0387-.0288.2215-.0576.443-.1064.8184-.2771-.6585-.5026-1.1941-.728-1.7297-.0664.0201-.1328.0401-.1993.0602v.7349c-.0491.0148-.0983.0295-.1474.0443-.237-.5652-.4741-1.1304-.8032-1.9151-.0372.5412-.0572.8328-.0772,1.1244-.0597.0165-.1193.033-.179.0495-.2104-.6279-.4209-1.2558-.6313-1.8837-.0593.007-.1187.014-.178.021-.0351.2885-.0703.577-.1312,1.0777-.3766-.9242-.6788-1.6659-.9811-2.4076-.058.0193-.1159.0387-.1739.058.0996.3675.1993.7349.2989,1.1024-.0766.041-.1532.0819-.2298.1229-.2421-.4565-.4842-.913-.7264-1.3694-.1097.1304-.2192.2606-.3899.4635-.2394-.5041-.4455-.9381-.6962-1.4659-.0662.2914-.1088.4788-.1804.7939-.3225-.5885-.5875-1.0724-.8556-1.5616q-.3056.4512-1.2643-1.1597c.0239.4017.0387.6516.0518.8712-1.3307-.6881-2.6512-1.3709-3.9717-2.0537-.0314.0534-.0628.1068-.0942.1602.1587.1337.3174.2673.6143.5174h-1.2019c.2771.4811.4907.8519.7042,1.2227.0309-.0256.0617-.0511.0926-.0767.1469.7419.2938,1.4837.4407,2.2256.0471-.0039.0942-.0078.1413-.0116.0276-.2522.0553-.5043.0829-.7565.0595-.0148.1191-.0296.1786-.0445.1087.5007.1909,1.0092.3374,1.4985.0702.2343.2622.432.399.6463.0728-.1167.1456-.2334.2706-.4339.2603.8314.5016,1.602.7429,2.3727.0529-.0149.1058-.0298.1587-.0447-.0366-.296-.0732-.5921-.1097-.8881.0613-.009.1227-.018.184-.027.3587,1.1907.7173,2.3814,1.076,3.572.1066-.0311.2132-.0621.3198-.0932-.1718-.6671-.3436-1.3341-.5153-2.0012.0674-.0222.1349-.0443.2023-.0665.2955.797.5909,1.594.8864,2.3909.0402-.0128.0805-.0255.1207-.0383-.0423-.2873-.0846-.5745-.1269-.8618.0514-.0161.1027-.0321.1541-.0481.3637.768.7274,1.536,1.0911,2.304.0453-.0203.0905-.0406.1358-.0609-.1146-.405-.2293-.8099-.3439-1.2149.0503-.0235.1007-.0471.151-.0706.4611.8239.9222,1.6477,1.3833,2.4716.0647-.0307.1295-.0615.1942-.0922l-.6483-1.2405c.0653-.0467.1306-.0935.1959-.1402l1.1183,1.5983c.0505-.0263.101-.0526.1515-.0789-.1847-.343-.3694-.686-.554-1.029.0505-.0605.101-.121.1514-.1815.5513.979,1.378,1.5145,2.2846,1.9212.067-.0766.134-.1531.2009-.2297.1549.431.3097.8619.4646,1.2929.052.0008.1041.0016.1561.0023-.0375-.6718-.075-1.3436-.1125-2.0153l-.2636-.0174c.1161-.0438.2322-.0876.39-.1471-.2848-.222-.508-.396-.7312-.57.0365-.0582.0729-.1165.1094-.1747.4047.2546.9478.4194,1.184.7834.4289.6611.8397,1.4137.9653,2.1763.3132,1.9019.0395,3.6779-1.4415,5.1481-.3551.3525-.3326,1.078-.5043,1.6254-.1101.3508-.2579.6898-.423,1.124-.5159.0013-.5288-.0999.028-1.5849-1.1583,1.044-1.3519,2.538-1.6963,3.9025-.737,2.9204-1.191,5.8872-1.1512,8.9296.0235,1.798-.4001,3.5482-1.6071,5.1067-.0605-.1368-.1187-.2183-.1279-.3049-.0074-.07.0441-.1463.1131-.3459-.2672.1485-.4317.2399-.6786.3771.2983-.8926.5753-1.7216.873-2.6124-.9329-.1794-1.849-.5999-2.5791.1906-.4323.4681-.8142,1.0919-.9493,1.7052-.4417,2.0047-.8499,4.0255-1.1001,6.0612-.2519,2.0497.5349,3.8138,1.7938,5.4401.5217.6739.7426,1.5881,1.0636,2.4074.2069.5282.3472,1.0825.5298,1.6649-.1821-.0174-.3287-.0314-.4676-.0447.036.4278.0685.8128.1131,1.3427-.2094-.1657-.3326-.2236-.3272-.2646.1696-1.2932-.8262-1.8904-1.5208-2.6689-.6407,1.6183-1.4346,3.0599-2.6418,4.3117-.3997.4145-.7892,1.0118-1.0286,1.6861-.3938,1.1091-1.4853,1.6962-2.5248,2.2194-.0737.0371-.1415.086-.4186.2564.463.3306.834.5955,1.451,1.0361-.6915.0562-1.1697.1478-1.6399.1171-.3908-.0256-1.1157.3333-.9781-.6213.0059-.0408-.4552-.149-.6987-.2258-.067.215-.1341.4299-.2288.7335-.2413-.1507-.4799-.2997-.5237-.3271-.7877.1908-1.4854.325-2.1542.5464-.1656.0548-.1945.44-.3608.5914-.4993.4546-1.0355.8686-1.5852,1.3215.1753.3069.3603.6309.5906,1.034-.3344.2588-.6998.5417-1.0129.7841.2577.9054-.8042.7366-.951,1.1436.0235.2675.1284.5628.0435.6353-.7484.6378-.6328,1.6528-1.0948,2.4121-.2398.3941-.4973.8304-.555,1.2726-.1672,1.2811-1.5303,1.1343-2.329,2.0446.6568-.2557,1.0828-.4215,1.5088-.5873-.7664,1.0562-.9169,2.5422-2.3278,2.9979.4078,2.063-.4124,2.627-2.6471,1.9881-.2613.2504-.4753.5836-.6033.5532-.337-.0798-.6366-.3177-.951-.4926.0351-.0818.0701-.1635.1051-.2453-.3591.0796-.7183.1593-1.1374.2522-.1631-.44-.1894-1.1102-1.0093-.7446-.14.0624-.4444-.372-.7046-.4272-.818-.1733-1.6492-.2916-2.4807-.3824-.096-.0105-.2254.286-.3518.4569-.8935-1.392-.8989.6287-1.5835.3171.0674-.1677.1433-.3568.2488-.6197-1.9507.3294-3.8722.6538-5.7359.9685-.0498.2047-.1006.4137-.1515.6227-.1152-.1542-.2305-.3084-.4207-.5629-.4375.2541-.9472.5502-1.4569.8463-.0344-.0313-.0688-.0625-.1033-.0938.2027-.2155.4055-.431.6082-.6464-.0126-.0313-.0252-.0625-.0378-.0938-.2668.1526-.5335.3051-.8076.4618-.4653-.5783-.8609-.0133-1.3006.1192-.4035.1216-.9985.4053-1.2074.2388-.9983-.7955-2.1116-.2821-3.1548-.4251-.105-.0144-.2563.0931-.3417.1853-.7488.808-1.7354.8425-2.7373.9103-1.2931.0876-2.5813.2487-3.8715.3781.0736.3286-1.111.2105-.2859.8059l-.023-.02c-.1384.2328-.2769.4656-.4312.7251.1505.0537.3895.139.7491.2674-.6528.3192-1.1822.5781-1.7728.8668v-.4691c-.6422.2418-1.2831.483-1.924.7243-.0917-.0888-.1833-.1776-.275-.2663.2004-.3101.336-.7067.613-.9147.9844-.7392,2.0168-1.4143,3.0317-2.1129.0736-.0507.1578-.1432.2271-.1347,1.2679.1554,1.0618-.8194,1.2777-1.5594.422-1.4465-.2916-2.734-.4666-4.09-.177-1.3724-.5274-2.7263-.8662-4.072-.1424-.5657-.4963-1.0752-.6721-1.636-.298-.9506-.531-1.9215-.7913-2.8839.0999-.0289.1998-.0579.2997-.0868.2988.8398.5937,1.6811.8976,2.5191.3542.9768.7738,1.9345,1.0555,2.9314.1969.6965.2099,1.445.3051,2.1703.0099.0755-.008.1826.0352.2215.8242.7419.2998,1.8426.7251,2.7085.2315.4713.2836,1.0567.3057,1.5952.0127.3098-.2192.6231-.2969.9455-.055.2283-.036.4743-.0504.7196,1.2891.1955,1.7816.2847,2.4196-1.1079.3164-.6907.7892-1.3098,1.0202-2.0646-.511.6889-1.0221,1.3777-1.5331,2.0666-.088-.0582-.176-.1164-.264-.1746.3191-.5095.6306-1.0239.9594-1.5271.3344-.5119.6858-1.0128,1.0297-1.5184-.0673-.0446-.1345-.0893-.2018-.1339-.4616.567-.9232,1.1341-1.3848,1.7011-.0491-.0343-.0982-.0687-.1472-.103.5886-1.0205,1.1772-2.0411,1.7657-3.0616l-.2511-.1466c-.3385.4367-.6771.8734-1.0156,1.3101-.0727-.0463-.1453-.0926-.218-.1389.5201-.9774,1.0403-1.9547,1.5604-2.9321-.0571-.0348-.1141-.0697-.1712-.1045-.5074.6792-1.0147,1.3584-1.5221,2.0375-.0658-.0421-.1315-.0841-.1973-.1262.5769-1.0009,1.1537-2.0018,1.7306-3.0027-.0538-.0322-.1075-.0644-.1613-.0966-.4459.5184-.8917,1.0368-1.3376,1.5552-.0657-.0524-.1315-.1048-.1972-.1572.5765-.9228,1.1529-1.8457,1.7294-2.7685-.0802-.0494-.1605-.0988-.2407-.1482-.4891.6919-.9781,1.3839-1.4672,2.0759-.0582-.0275-.1164-.0549-.1747-.0824.7563-1.4385,1.5125-2.8769,2.2688-4.3153-.0754-.0389-.1507-.0778-.2261-.1168-.542.8846-1.0841,1.7693-1.6261,2.6539-.0904-.0536-.1807-.1073-.2711-.1609.7043-1.353,1.4086-2.706,2.1128-4.059-.0819-.0425-.1639-.0851-.2458-.1276-.5504.8968-1.1008,1.7936-1.6511,2.6905-.0751-.0438-.1503-.0875-.2254-.1313.6161-1.1814,1.2321-2.3627,1.8482-3.5441-.0566-.0354-.1132-.0708-.1699-.1062-.449.5859-.8981,1.1718-1.3471,1.7577-.0727-.0451-.1453-.0902-.218-.1353.3322-.5719.6645-1.1438.9967-1.7156-.0363-.0214-.0725-.0429-.1088-.0643-.3176.3567-.6353.7133-.9529,1.07-.0372-.0287-.0744-.0573-.1117-.086.4949-.8731.9897-1.7461,1.4846-2.6192-.0853-.0477-.1707-.0954-.256-.1431-.4952.758-.9904,1.516-1.4856,2.274-.0743-.0476-.1487-.0952-.223-.1429.552-.9472,1.104-1.8944,1.6727-2.8704-.0988-1.0397-.6187-1.9263-1.3959-2.7017.1836.1457.3672.2914.6137.487v-2.2336c.048.0012.096.0024.144.0036.2539,1.2668.5077,2.5336.7585,3.7852.4795-.3685.79-.6071,1.1005-.8457-.02-.0461-.0399-.0923-.0599-.1384-.2504.0789-.5008.1578-.7512.2367-.0651-.0499-.1303-.0998-.1954-.1498.4841-.4995.9681-.999,1.5971-1.648-.456.1899-.7432.3095-1.0303.429-.0434-.0379-.0867-.0758-.1301-.1137.421-.4837.842-.9673,1.2629-1.451-.0185-.0357-.037-.0714-.0554-.107-.1666.0878-.3333.1756-.5113.2694-.0135-.0868-.0436-.165-.0252-.1789.564-.4259.6161-1.0057.6306-1.6673.0171-.7797-.6232-1.4559-.1154-2.3647.2656-.4754-.1346-1.3215-.2284-2.001-.0158-.1145-.0279-.2402.0019-.3487.2313-.8438.542-1.6722.697-2.5291.2827-1.5626.4474-3.1462.7155-4.7118.16-.9348.423-1.852.636-2.7617-.1079.0581-.2389.1286-.563.3029.3281-.8748.5876-1.5663.888-2.3673-.3011.2148-.4865.347-.8854.6315.3128-.886.5408-1.5318.6803-1.9268-.1343-.3916-.2846-.6069-.2596-.7996.0697-.5388.6506-.993.087-1.6483-.1568-.1823.2254-.8023.3125-1.2311.0448-.2206-.0155-.4625-.0336-.7904.0815-.0423.3029-.1572.53-.275-.1461-.4307-.281-.8282-.4236-1.2488-.1029.0219-.2534.0539-.4212.0895.0627-.4015.1598-.7506.1537-1.0979-.0031-.1756-.1927-.3479-.298-.5216.3433.1024.6809.2393,1.0315.2968.305.05.6246.0104,1.0184.0104-.1473.1261-.2434.1845-.3074.2677-.1754.2279-.3373.4662-.5046.7003.1658.0632.4261.2257.4814.1729.2784-.2652.539-.5653.7349-.8953.1427-.2405.205-.5418.2494-.8245.0659-.419.1542-.8532.1087-1.2673-.1071-.9754.5055-1.6835.8277-2.4997.0294-.0744.0345-.1583-.0444-.2949-.206.3154-.412.6307-.618.9461-.0712-.0181-.1425-.0362-.2137-.0542.0539-.3242.1078-.6484.1629-.9803-1.0494-.2975-1.4719-1.1951-.9348-2.1964-.1444-.078-.2905-.157-.5088-.2751.2505-.2225.4332-.3848.7737-.6873-.4511.0638-.7068.1-.9691.1371-.0162-.2273-.0302-.4222-.0582-.8149.048-.0527.2594-.2846.4708-.5165-.0412-.0523-.0825-.1046-.1237-.1569-.27.191-.54.382-.8071.571.3256-1.0796.8321-2.1377.9217-3.2299.0913-1.1136-.2274-2.2608-.3666-3.3933-.1256-.0073-.2513-.0146-.3769-.0219-.1833.55-.421,1.0887-.5389,1.6524-.2632,1.2579-.8693,1.8412-2.3159,2.1119-.0825-.2983-.1657-.5993-.2662-.9628.183-.0435.3946-.0938.6479-.154-.0922-.1479-.177-.2838-.2582-.414.4554-.3224.9012-.638,1.3471-.9536-.0235-.0504-.0469-.1009-.0704-.1513-.1272.0307-.2545.0614-.3818.0921.3467-1.2705,1.0651-1.9159,2.0778-1.7544.0573-1.2354.1141-2.4589.1755-3.7806-.2406.204-.4076.3456-.6615.5609-.0273-.4801-.0485-.8535-.0697-1.227l-.0261.0289c.3815-.3169.7631-.6337,1.2459-1.0347-.3216-.031-.533-.0514-.8798-.0849.4515-.4015.8052-.7161,1.3434-1.1947-.4332.0292-.6311.0425-.885.0597-.0282-.3424-.0566-.6863-.085-1.0302-.0268-.0033-.0537-.0065-.0805-.0097-.0371.2645-.0743.529-.1114.7935-.0478.0184-.0955.0368-.1433.0552-.4206-1.202-.8412-2.4041-1.2618-3.6061-.0502.013-.1004.0261-.1505.0391.283,1.0988.566,2.1976.849,3.2963-.1013.0312-.2025.0625-.3038.0937-.1353-.4265-.2706-.8529-.4786-1.5084-.0647.4738-.0975.7146-.1597,1.1705-.3946-.9899-.7134-1.7896-1.0322-2.5893-.0534.0176-.1068.0353-.1602.0529.1295.5933.259,1.1866.3884,1.7799-.0858.031-.1717.0619-.2575.0929-.135-.2578-.2701-.5156-.4006-.7647-.0494.1013-.1105.2266-.2134.4376-.1881-.2509-.3437-.4584-.5071-.6763-.0569.1345-.1099.26-.1793.4242-.1926-.2172-.3648-.4113-.4263-.4806-.2558.0603-.4394.1036-.7706.1816.1019.5529.2251,1.2208.3626,1.9668-.2876.2139-.7496.4767-.464,1.1873.1146.2852-.023.688-.0949,1.0268-.0531.2504-.1857.4839-.3693.9391-.2333-.5643-.5334-1.0191-.5872-1.5015-.0474-.4252.2473-.8783.2655-1.3243.0146-.3586-.1583-.7248-.2677-1.1676.1162-.0554.2979-.1421.4795-.2288-.0097-.0375-.0195-.0751-.0292-.1126-.1467.0073-.2934.0146-.3667.0182-.1412-.2614-.2646-.4897-.388-.7181-.1637.1174-.3273.2349-.5493.3942-.1691-.3621-.3476-.7442-.6273-1.343-.0242.897.6219,1.6662-.2341,2.2423-.2023-.4267-.4274-.831-.5892-1.2591-.2534-.6704-.2389-1.2857.3717-1.8165.6687-.5814,1.2854-1.2228,1.9585-1.8705.0574.1185.1417.2929.2826.5839.1814-.4434.3083-.7535.4586-1.121.0587.3096.1051.5545.1828.9646.2868-.6378.5071-1.1276.7273-1.6173.0619.0223.1238.0445.1857.0668-.0426.3184-.0852.6368-.1278.9552l.1725.0636c.1697-.3488.3393-.6975.6289-1.2927v.7592c.7921-.1446,1.5638-.2856,2.3355-.4265.02.071.0399.142.0599.213-.2242.1311-.4484.2622-.6726.3933.0127.0331.0254.0663.0381.0994.6808-.1632,1.3616-.3265,1.81-.434.1382-.4282.1508-.8597.3461-.9712.2329-.133.6223.0082,1.1928.0479-.4064.5652-.7904,1.0994-1.1421,1.5885.0227-.0069.2072-.0617.3907-.1195.2153-.0678.4298-.1381.7473-.2404-.0242.2415-.039.3887-.064.6384.4987-.1735.9578-.3332,1.4931-.5194-.0366.1883-.0694.3574-.1268.6527.8299-.4713,1.5788-.8967,2.3277-1.3221.0513.0665.1027.133.154.1995l-.7882.5277c.0619.0895.1237.179.1856.2685.5851-.3229,1.1702-.6458,1.7553-.9687.0475.0728.0951.1457.1426.2185-.6996.506-1.3993,1.0121-2.2104,1.5988,1.5227-.3392,3.0941.0035,4.2098-1.3602.0519.0964.1038.1928.1557.2892-.245.1814-.4846.3708-.7365.542-.2834.1926-.578.3687-.8012.7237.3125-.0437.6251-.0874.9376-.1311.0298.071.0597.142.0895.213-.5025.253-1.005.506-1.5075.759.0136.0455.0273.0909.0409.1364.491-.1506.9992-.2609,1.4688-.4617.6178-.2641.6138-.348.1166-.9529.6286-.3453,1.2465-.6848,1.8645-1.0243.0417.0494.0835.0989.1252.1483-.2493.2631-.4985.5263-.7478.7894.044.0601.0881.1201.1321.1802.5756-.3776,1.1512-.7552,1.7267-1.1329.0617.0859.1234.1718.1851.2576-.3843.275-.7635.5577-1.1546.8227-.3357.2275-.685.4348-1.0283.651.0518.1064.1035.2128.1553.3192.5114-.1989,1.0228-.3978,1.5342-.5967.0444.071.0888.142.1332.213l-.8058.6212c.0182.0466.0364.0932.0547.1398.8502-.3715,1.7005-.743,2.5874-1.1304.0624.1642.1222.3214.1986.5223.6569-.3572,1.3059-.71,1.9549-1.0629.0367.0445.0734.0891.11.1336-.315.2548-.6301.5096-.9451.7643.0341.0345.0681.0691.1022.1036.5367-.1657,1.0858-.4911,1.6066-.4508.4888.0378.9476.4622,1.4552.7357-.0544-.3415-.0592-.6406-.1563-.9059-.0978-.2671-.2873-.5005-.4349-.7459.2494-.2381.4883-.4662.7789-.7436-.0372.3897-.0692.7256-.1013,1.0616.0723.0003.1446.0005.2169.0008.3411-.4795.6822-.959,1.0233-1.4385.0584.0288.1169.0577.1753.0865-.032.2005-.0641.401-.0961.6015.0474.0461.0948.0922.1423.1383.2675-.2406.535-.4811.8879-.7985-.0672.3112-.1165.5397-.2077.9621.4129-.5329.7027-.907.9925-1.2811.0703.045.1406.0899.2109.1349-.5358.8839-1.0716,1.7679-1.7024,2.8085,1.3937-.7383,1.6918-2.2943,2.9476-2.9818-.5734.9588-1.1468,1.9177-1.818,3.0402,1.3451-.8506,1.8167-2.3049,3.0315-3.1002-.4333.7071-.8666,1.4143-1.2999,2.1214.0807.057.1614.1141.2421.1711.5216-.746,1.0433-1.492,1.5649-2.238.0677.037.1355.0739.2032.1109-.3107.6211-.6214,1.2423-.932,1.8634.0321.025.0642.05.0963.075.3907-.3344.7815-.6687,1.1722-1.0031.0373.0399.0747.0797.112.1196-.2526.423-.5053.8461-.7579,1.2691.0486.0387.0972.0775.1459.1162.5212-.559,1.0424-1.118,1.5637-1.677.0725.0499.1451.0998.2176.1496l-.6621,1.0881c.0539.0572.1079.1145.1618.1717.4113-.532.8226-1.064,1.2339-1.596l.2709.2419-.49.7575c.0346.0298.0693.0595.1039.0893.4743-.4521.9485-.9042,1.4437-1.3762.0584.1895.1012.3283.1474.4782.2921-.2416.5742-.4749.8563-.7082.0447.0348.0893.0697.134.1045-.0859.2027-.1719.4055-.3476.8202.5412-.4677.9069-.7838,1.2726-1.0998.0484.0303.0969.0606.1453.0909-.0813.1985-.1626.397-.2569.6274.0966-.0176.196-.0059.249-.0501.5528-.4603.97-1.2771,1.9067-.6981.0219.0135.1081-.0396.1371-.0807.5944-.8423,1.6247-.1807,2.3182-.6749.5993.7846,1.3299-.1398,1.9968.1612.7277.3285,1.4923.6039,2.2679.7885.6554.156,1.3489.1561,2.0266.213,1.1165.0938,1.6628.716,1.7003,1.8133.0742-.4577.1724-.9135.2082-1.3742.0109-.1404-.1142-.343-.238-.4342-1.2895-.9492-2.5455-1.9572-3.9102-2.785-.6422-.3896-1.496-.4439-2.2643-.598-.1222-.0245-.2997.227-.4864.3793-.1969-.2714-.4259-.5873-.6548-.9028-.1136.151-.2004.3871-.3203.4054-.6019.0918-1.0292-.117-1.0815-.7997-.0562-.2491-.1125-.4983-.1688-.7474-.177-.3611-.4207-.7062-.512-1.0878-.0881-.3683.0328-.7826-.0285-1.1621-.2166-1.3415.516-2.3503,1.1445-3.5034.4725.2809.9628.4864,1.3328.8239.2285.2084.4613.6953.3673.9231-.3314.8037-.803,1.5496-1.1482,2.183.6043.5623,1.0825,1.0073,1.4118,1.3137.2397-.8372.4675-1.7885.8085-2.6973.0715-.1905.5808-.3396.8491-.291.1861.0337.4147.4304.4342.6797.0705.9028-.0162,1.8221.1039,2.7154.108.8039-.0193,1.6657,1.0754,2.1737,1.0374.4814,1.8172,1.4889,2.7938,2.1394.8573.571,1.3232,1.1957,1.3127,2.283-.0039.4009.5212.9139.9296,1.1941,2.2158,1.5203,4.437,3.0084,6.3569,4.9301,1.2304,1.2315,2.6695,2.2588,4.0489,3.3342.4286.3341.9811.5041,1.455.7861,1.8885,1.1233,2.5995,2.9052,2.7943,4.9908.217,2.3241.4495,4.6471.7142,6.9662.4093,3.5853.2111,7.122-.7626,10.6038-.4727,1.6904-1.0217,3.362-1.4199,5.0693-.1525.6539.0351,1.3834.0395,2.0786.0098,1.5341-.0193,3.0687.0079,4.6023.0213,1.1996.0518,2.4034.1718,3.5958.1401,1.3918-.1031,2.7142-.4962,4.0304-.3682,1.2329-.8087,2.3923-1.5799,3.4826-.7096,1.0031-1.1044,2.2575-1.5025,3.4465-.7116,2.1259-2.1887,3.435-4.1545,4.3622-1.2138.5725-1.9595,1.6559-2.5204,2.8472-.596,1.2658-1.0147,2.6462-1.7901,3.7866-.6019.8852-1.6362,1.4749-2.4724,2.2027-.5446.4739-1.2277.8679-1.5905,1.4569-1.2606,2.047-3.1136,2.7469-5.3853,2.6082-.4255-.026-.8621-.1768-1.2563-.3533-1.7356-.7772-2.8544.2731-3.9512,1.3266-.6518.6261-1.2824,1.2873-1.837,1.9993-2.0123,2.5833-4.4906,4.0495-7.8913,3.5225-1.8121-.2808-3.6352-.258-5.4713-.2336-1.8392.0244-3.6884-.2618-5.523-.4928-1.372-.1727-2.7263-.4825-4.092-.7109-.2872-.048-.5892-.007-.9488-.007.3117,1.4-.9462,1.4442-1.5963,1.746-2.0075.9321-4.1572,1.1426-6.3758.7749-1.3521-.2241-2.7362-.3322-4.107-.3429-1.1434-.0089-2.1745.0017-2.3615-1.492-.6175.1605-1.1457.3676-1.6884.4182-.4929.0459-1.0016-.0785-1.5033-.1279-.0273-.1149-.0546-.2297-.0819-.3445.0825-.0265.1908-.1008.2435-.0723.8677.47,1.4768-.16,2.1863-.4573.4463-.187.9738-.1817,1.4655-.2583.9137-.1424,1.8368-.2426,2.7358-.4486.2374-.0544.401-.4312.6649-.7368.019.2702.0291.4133.0457.6489.2838-.3544.5015-.6262.8561-1.069-.0826.459-.1262.7012-.1697.9435.0336.0195.0671.039.1006.0585.1657-.2756.3315-.5512.4851-.8067,1.7344-.1254,3.4664-.2506,5.23-.3781-.0717.1539-.139.2981-.282.6049.5371-.2761.9384-.4825,1.408-.7239.0815.0968.2189.2597.3595.4266.3911-.2005.7814-.4006,1.1718-.6007.0457.0697.0914.1394.1372.2091-.2641.2277-.5282.4554-.7923.6831.0201.0483.0402.0966.0603.1449.4687-.2221.9186-.5236,1.4122-.6404.3736-.0884.8028.0588,1.4525.1268-.4081.3153-.6767.5228-.9453.7303.0096.0348.0192.0696.0289.1045.6228-.203,1.2456-.406,1.8684-.609.024.0543.048.1086.072.1629-.1631.1368-.3262.2737-.5082.4264.4866.2614,1.0428-.8081,1.5363.15.2389-.0916.5806-.2227.9223-.3537.0421.0786.0841.1573.1262.2359-.2662.1924-.5323.3847-.7985.5771.0108.0378.0215.0755.0323.1133l2.036-.7742c.0238.0526.0476.1052.0715.1579-.1967.1631-.3935.3262-.5902.4893.0099.0309.0198.0618.0297.0928.4103-.1639.8206-.3278,1.4007-.5595-.1571.2963-.2225.4198-.336.6337.4077-.1486.743-.2709,1.0784-.3931.037.0615.0741.1229.1111.1844-.2415.1731-.483.3462-.7245.5194.0121.0352.0242.0703.0363.1055.5433-.1881,1.0866-.3762,1.7045-.5901-.0174.1861-.0302.3223-.0496.5299.4332-.1999.8025-.3703,1.1718-.5407l.1145.1821c-.1653.1784-.3307.3568-.496.5352.0262.0494.0524.0989.0786.1483.6211-.2156,1.2422-.4312,1.9336-.6712-.104.2193-.199.4194-.3309.6973.47-.2006.8598-.4053,1.2738-.5276.2094-.0619.4669.0041.6955.0489.6728.1318.9535-.2926,1.2851-.7817-.4187.0597-.7438.1062-1.0689.1525-.0163-.1081-.0327-.2162-.049-.3242.6981-.1139,1.3962-.2279,2.0943-.3418.0144.0732.0289.1464.0433.2196-.1952.046-.3903.092-.4808.1133.0679.1788.142.374.2918.7684.5313-.3495,1.1631-.7651,1.7949-1.1808.0608.0684.1216.1368.1825.2052-.4702.4257-.9405.8514-1.5166,1.373,1.6911-.1823,1.772-1.6187,2.3582-2.6771.1454.1301.2565.2294.2624.2347.4935-.321.9319-.6319,1.3952-.8998.4205-.2433.7307-.4735.1354-.9851.7703-.4558,1.5011-.8881,2.4252-1.4348.1023-.5214,1.0511-1.4981,1.6161-1.4737.1354-.3914.2612-.755.449-1.298-.3584.3808-.5952.6324-.832.884-.0472-.0385-.0945-.0771-.1418-.1156.4137-.5556.8274-1.1112,1.3858-1.861-.0538.4731-.0825.7261-.1114.98.6171-.1193.1644-1.343.9226-1.1499.479-.616.8969-1.1805,1.3438-1.721.5164-.6248.6171-1.5215,1.3693-2.0131.1302-.0851-.0083-.5817.1882-.9099.0375.1849.075.3698.1246.6145.2598-.2017.4993-.3875.7977-.6191-.0383-.1755-.09-.4128-.156-.7155.3141.2404.5649.4324,1.0245.7842-.2474-.5016-.3776-.7657-.5078-1.0298.7236.5488,1.4124.5686,2.2528.3412.4353-.1178.9985.2371,1.5222.5775-.7247.221-1.4562.4225-2.1703.6735-.2516.0884-.4635.2938-.6886.4528-.306.2163-.6137.431-.9085.6619-.2899.227-.5648.4732-.8463.711l.0331-.0317ZM62.509,42.4653c-.0805.0567-.2052.0963-.2347.1726-.3397.8804-.6525,1.7714-1.0034,2.6472-.0833.2079-.4016.3702-.4008.5526.0014.312.1694.6232.2905,1.0083.1101-.3719.2051-.6961.3021-1.0196.3387-1.1296.6781-2.259,1.0141-3.3911.1232-.1661.3638-.3431.3496-.4965-.0652-.7045.0286-1.3119.5525-1.8555.1401-.1454.0212-.5407.0212-1.034-.2455.51-.4246.7529-.4799,1.0213-.1633.7929-.2777,1.5958-.4113,2.3948ZM28.943,89.4083c-1.0007.5925-.9853,1.6443-1.178,2.603-.0493.2455-.0788.5032-.1781.7284-.126.2856-.3141.5439-.4754.814.0721.0355.1441.071.2162.1065.0607-.236.1214-.472.2025-.7872.3764.8896.7041,1.6639,1.0317,2.4382.1278-.0359.2556-.0717.3834-.1076-.0393-.2579-.0618-.5197-.1208-.7729-.2237-.9594-.6252-1.9141-.6356-2.8741-.0078-.7161.484-1.4377.7537-2.1557.0911.221.1822.4419.2733.6629-.9715.9074-.9469,2.8457.05,4.2251.1105-.1009.2218-.2027.3477-.3177.2176.4812.4054.8964.5931,1.3116.0808-.0433.1616-.0865.2424-.1298-.1108-.351-.2216-.702-.3441-1.0902.3136-.0457.5908-.0861.9324-.1359-.1002-.7311-.2702-1.4-.2599-2.0662.0091-.592.2181-1.1808.3389-1.7711.133-.0015.2661-.003.3991-.0045-.7731,2.1918-.2598,3.9562,1.5995,5.2605-.2245-.2543-.4489-.5085-.6895-.781.2741-.2617.5043-.4814.7515-.7174-.1644,0-.3962-.0594-.4439.0092-.4776.6868-.6956.2329-.9065-.1953-.154-.3126-.3497-.6309-.3961-.9649-.0913-.6566-.2885-1.3662.2772-1.9007.0861.8188.1703,1.6203.2546,2.4218.086-.0104.172-.0208.2581-.0312.036-.3221.0719-.6441.1079-.9662.0512.0012.1024.0023.1535.0035.1213.3322.2426.6644.3851,1.0547.2425-.1993.4174-.3431.5974-.4917l1.2775,1.2939c-.0842-1.1189-.3909-1.3626-1.3042-1.2698-.0735-.2743-.1914-.5455-.2105-.8235-.032-.4665-.1555-1.0315.0542-1.3752.1562-.256.6374-.3434.2953-.7493-.1507-.1787-.4731-.2125-.6388-.2801-.091-.3703-.1773-.721-.28-1.139.2946-.3409.6284-.7271,1.1274-1.3045-.8444.204-1.4928.3607-2.3283.5625-.013.0272-.1381.2896-.2632.552-.2486-.0655-.4972-.131-.7458-.1965.0352.0674.0704.1348.1056.2022l-1.6106,1.1491ZM17.4719,55.1852c-.0935.3303-.3227.7196-.2863,1.0821.1753,1.7461.2998,3.488.1622,5.2435-.0832,1.062-.0463,2.139-.2024,3.1885-.2562,1.7219-.3811,3.4719-1.1561,5.0956-.3421.7166-.7184,1.6234-.5626,2.3298.3682,1.6692-.0492,3.1557-.5404,4.6775-.3851,1.1932-.9239,2.3669-1.0972,3.5913-.2667,1.8844-.2651,3.8059-.4042,5.7096-.0818,1.1192-.2233,2.2338-.3246,3.3517-.1945,2.1483-.4048,4.2957-.5524,6.4473-.0418.6095-.009,1.2772.2012,1.8389.3498.9348,1.0976-.0364,1.6271.2126.0246.0116.0593.0037.0891.0021.9564-.0523,1.9195-.0507,2.8678-.1683,2.2028-.2733,4.399-.5999,6.5966-.9136.9614-.1372,1.9198-.2958,2.6408-.4076-.3661-.6928-.6404-1.459-1.1198-2.0623-.7461-.9388-.5195-1.9301-.3353-2.9097.2747-1.4612,1.4086-2.2135,2.5993-2.8882.4557-.2583,1.0571-.4343,1.3195-.8291,1.2113-1.8222,2.9055-1.9574,4.7949-1.542,1.1278.248,1.9147-.4372,1.8011-1.5849-.0145-.1468.011-.3491.1024-.4467.7205-.77,1.4984-1.3868,2.6629-1.3716.6002.0078,1.2014-.2496,1.8066-.3638.4628-.0874,1.0012-.5486,1.3247.2589.0389.097.4505.1377.6376.0672,1.2144-.4578,2.1916-1.3822,3.5937-1.5594.4873-.0616,1.0704-.3894,1.6419-.345,2.1005.1633,3.2886-1.103,4.3673-2.638.4359-.6204,1.0074-1.1545,1.5632-1.679.5421-.5116,1.217-.8999,1.2584-1.771.0108-.2265.1069-.4559.1961-.6706.589-1.4177.5706-2.8778.1402-4.3021-.7643-2.5291-1.8082-4.913-1.3352-7.753.32-1.9212.5307-3.8425,1.434-5.551.6787-1.2836,1.5987-2.485,3.3684-2.4424.9852.0237,1.2075-.2791,1.2207-1.2931.0072-.5505-.0324-1.1078.0387-1.6502.2441-1.8597.6116-3.7078.7524-5.574.0516-.684.1326-.9239.9619-.8075-.919-.14-.7242-.6343-.5804-1.0955.5085-1.6307,1.0422-3.2541,1.5175-4.8943.077-.2657.0155-.7364-.1672-.8859-1.2277-1.0042-2.4436-2.0454-3.7813-2.8872-2.0635-1.2986-3.3272-3.1085-4.177-5.3555-.5162-1.365-1.2249-2.667-2.1279-3.8628-1.1538-1.5279-2.5992-2.5298-4.3907-3.1741-.641-.2306-1.5529-.4083-1.6871-1.3313-.0967-.665-.4136-.6852-.9299-.5108-1.8779.6341-3.8211,1.1167-5.6271,1.9122-2.7766,1.2231-5.6868,1.2732-8.5477.9688-1.9822-.2109-3.8513.1485-5.7514.323-2.1745.1997-4.2769.1223-6.3692-.4689-.9608-.2714-1.9246-.532-3.0385-.8392.279,1.4011.538,2.5135.6998,3.6399.0434.3019-.1257.7239-.3414.9579-.9632,1.0456-.7847,2.3689-.7571,3.5603.027,1.1689.6114,2.3154.7313,3.4942.1481,1.4568.0569,2.937.0951,4.4065.0145.5593.0127,1.1432.1698,1.6707.7562,2.5392,1.3654,5.0709.556,7.7273-.1603.526-.2109,1.1126-.1807,1.664.0727,1.3278.1905,2.6555.3592,3.9744.0643.5029.3172.9816.4715,1.434ZM9.9514,102.816c-1.4672.6241-3.0319.5692-4.559.7438-.0036.082-.0071.1641-.0107.2461,2.7931.1916,5.5863.3832,8.4541.58-.3833-.3511-.7261-.665-1.0688-.979.0653-.0838.1306-.1676.196-.2514.4709.2452.9545.4692,1.4083.7428.3099.1869.5781.4429.865.668.0528-.0739.1056-.1478.1584-.2217-.296-.2297-.5795-.4783-.8915-.6835-.2875-.1891-.5994-.345-.912-.4908-.3127-.1458-.6397-.2611-1.0692-.4333.6837-.0539,1.21-.0954,1.7363-.1368.0048-.0782.0095-.1564.0143-.2346-.6992-.289-1.3227-1.1518-2.2221-.1004-.1579-.182-.3133-.361-.6042-.6962.1193.4196.1799.6326.3013,1.0596-.3764-.3261-.5721-.4957-.631-.5467-.2115.1777-.3713.4064-.5758.4579-.216.0544-.4744-.06-.7156-.1009.0392.117.0916.2735.1263.377ZM27.0259,90.3845c-1.3789.9854-1.8554,2.2461-1.1366,3.9278.056-.7634.6193-1.2501.5019-2.0428-.0903-.6096,1.0624-1.0638.6347-1.885ZM56.2147,32.3438c.0931-.0325.1863-.065.2794-.0975-.4821-1.1767-.138-2.6595-1.5214-3.6738.4468,1.3569.8444,2.5641,1.2419,3.7713ZM34.6869,87.6676c-.0258.0396-.0516.0793-.0774.119.3456.068.8629.0181,1.0051.2256.4563.6656.5836-.1229.8631-.1542.0914-.0102.2609-.4681.1899-.5561-.1684-.2087-.4529-.4288-.7021-.4431-.3946-.0227-.7986.1191-1.1707.1863.3604.1497.7131.2962,1.0658.4427-.0234.0599-.0468.1199-.0703.1798h-1.1035ZM56.3092,55.508c-.1684.7032-.2796,1.1673-.3908,1.6315.0856.0358.1711.0717.2567.1075.549-.824,1.098-1.6479,1.6822-2.5248-1.6663-.3689-.408,1.3171-1.2585,1.4516-.0479-.1102-.112-.2573-.2897-.6659ZM15.7493,65.7689c.0557.0681.1114.1363.167.2044-.817.5704-1.6339,1.1408-2.4509,1.7112.0947.0908.1893.1816.284.2724.9277-.4888,1.4553-1.3462,1.9999-2.188ZM65.2245,82.1917c-.7327.3917-1.4653.7833-2.3547,1.2588,1.4011.4281,1.7166-.6953,2.3547-1.2588ZM38.684,85.0772c-.321-.247-.495-.3809-.669-.5147.1748-.1314.3496-.2628.5307-.399h-1.4093c.0029.0735.0057.147.0086.2204.2271.0678.4541.1357.9111.2722-.4171.1358-.5992.1951-.7814.2544.0058.0556.0115.1112.0173.1668h1.3919ZM36.31,89.5536c-.0732-.0683-.1463-.1366-.2195-.2049-1.0108.1932-1.2152.9819-1.2714,1.9857.2956-.0838.5813-.1648.8671-.2457-.0103-.0597-.0206-.1194-.0308-.1791-.1618-.0245-.3236-.049-.4853-.0736.0574-.1825.0617-.4202.1826-.5366.29-.2789.6347-.5009.9574-.7458ZM69.9094,66.4176c-.6346.5644-1.2691,1.1288-1.9037,1.6931.9143-.2687,1.6809-.6976,1.9037-1.6931ZM14.1685,70.5757c-.318.3521-.5433.6283-.7973.8749-.2298.2232-.4909.4142-.7381.6194q1.6976-1.0065,1.5354-1.4943ZM39.6288,100.3187c.0188.106.0376.212.0564.3181.9074-.2837,1.8149-.5674,2.7223-.8512-.0224-.077-.0448-.1539-.0673-.2309-.9038.2547-1.8076.5093-2.7115.764ZM69.5208,65.9969c-.0546-.056-.1091-.112-.1637-.168-.4836.409-1.2041.6467-1.2532,1.3697.0818.0611.1635.1222.2453.1833.3905-.4617.7811-.9233,1.1716-1.3849ZM57.2078,33.1475c.1066-.0442.2132-.0885.3198-.1327-.2604-.6736-.5208-1.3472-.7813-2.0208-.0884.0343-.1769.0685-.2653.1028.2422.6836.4845,1.3671.7267,2.0507ZM11.681,74.8768c.1494.1564.2988.3127.4482.4691l1.3617-1.4164c-.1145-.1104-.2289-.2207-.3434-.3311-.4888.4261-.9777.8522-1.4665,1.2783Z"/>
  <path d="M8.137,10.0162c.4163.1667.7238.2898,1.0312.4128.0304-.0624.0607-.1249.0911-.1873-.1833-.1594-.3666-.3188-.6349-.5519.2157-.1072.3548-.1763.5081-.2525-.1545-.1147-.3114-.2312-.5476-.4065.5031-.388.9045-.6975,1.3059-1.007.0016.0138.0033.0276.0049.0415.2967-.2926.5699-.8023.8944-.8374,1.0123-.1095,1.3674.6652,1.6316,1.6982.5904-.8771-.4392-1.3506-.1807-2.1352.2213.3608.3893.6347.5822.9492.0409-.1332.1837-.4533.141-.4803-.843-.534-.0769-2.2541-1.6449-2.2338-.5658.0073-1.1318.0012-1.6978.0012-.021-.0755-.0421-.1511-.0631-.2266.9285-.3104,1.8571-.6209,2.958-.989-.4168-.1955-.6365-.2987-1.1462-.5378.3332-.157.5288-.2491.7243-.3412-.0219-.0546-.0438-.1092-.0656-.1638-.3665-.0437-.733-.0874-1.1089-.1323.3077-.5664,1.4532-.6296,2.2215-.2837.5263.237,1.1471.2637,1.7257.3845.0316-.0858.0632-.1716.0948-.2574-.1074-.1771-.2148-.3542-.3223-.5314.034-.054.068-.1081.1021-.1621.4013.2149.8283.6372,1.1971.5914.4454-.0554.8415-.5077,1.1987-.7477.0836-.4136.1616-.7998.2397-1.186.5384,1.0416.3979,2.1658.2205,3.2081-.1029.6049-.7069,1.1903-1.7122.979.3505.7279.7202,1.3174.9218,1.9598.2501.7969.4379,1.6318.4984,2.4616.029.397-.3115.4023-.5026.0151-.0444-.0899-.0859-.1811-.1371-.2895-.9223.8057-.9739,1.0118-1.3993.2432-.1353.1246-.2647.247-.3978.3653-.1283.114-.2603.2237-.3865.3316-.3123-.2792-.5837-.5218-1.0209-.9126-.1054.5406-.2743.9256-.2335,1.287.1311,1.162-.2329,2.0487-1.2873,2.6233.8508.5947,1.6656,1.1643,2.4803,1.7338-.0352.0776-.0705.1553-.1057.2329-.7977-.332-1.5953-.664-2.5236-1.0503-.0098-.0821-.04-.3353-.0775-.65-.9021-.1761-1.8042-.5452-2.6672-.4695-.9773.0858-2.0594.1294-2.8597.9513-.4085.4195-.9331.7257-1.4041,1.0846-.1145.0873-.2324.1723-.3348.2726-.1408.1381-.2683.2898-.4016.4357-.0465-.2449-.0931-.4898-.148-.7789-.1283-.0269-.3684-.0772-.6088-.1267-.0259-.8855-1.2131-1.3024-.8851-2.3809.245-.8058.5691-1.4277,1.5511-1.6358-1.1546-1.5674-.5565-3.2271-.4381-4.8531.0096-.1317.1132-.2616.1886-.3826.5064-.8129.9901-1.642,1.5366-2.4273.3221-.4628.7458-.8548,1.2196-1.206-.715,1.2002-.662,2.6926-1.8371,3.7565-.5965.5401-.5103,1.8347-.7328,2.7882.0981.0191.1961.0382.2942.0573.0233-.3935.0465-.787.0703-1.1898.965.5168,1.9019,1.0968,2.9908.1458v1.9588c-.3237-.0241-.6485-.0483-1.1145-.0829.5094.6192.9687,1.1776,1.376,1.6727.2347-.2082.4922-.4365.6271-.5561ZM13.987,7.9806c.7335.5083.8453-.4656,1.3158-.6043.7244-.2136.9805-.5499.4468-1.2515-.2162-.2842-.1871-.752-.3973-1.0444-.4026-.5601-.8965-1.0545-1.3589-1.5835-.2804.2989-.4451.4745-.6053.6453.9214,1.1899.8055,2.4925.5989,3.8385ZM7.0247,12.3947c.0242-.4192.0641-.8669.0724-1.3152.0112-.6044-.2086-.8897-.6914-.6559.0902.3614.2718.6705.2055.9113-.1311.4764-.438.849-1.0495.6424.2208-.6374.0893-1.0673-.4347-1.1682-.2189.4122-.3851.7252-.599,1.1279-.1797-.3528-.2934-.5759-.5188-1.0183-.1474.4279-.23.6677-.3126.9075.1586.0494.3173.0989.4747.1479-.2179.9538-.082,1.1908.8105,1.1184.4911-.0398.9643-.3062,1.4444-.4736.1899-.0662.3768-.1408.5986-.2243ZM9.7609,10.741c.5984.8387,1.3766,1.1102,1.9083.7012.1667-.1282.1788-.4577.2616-.695-.734.5479-1.0348.5675-2.1699-.0062Z"/>
  <path d="M.8045,52.4763c.7258.5156,1.4516,1.0311,2.1905,1.556-.1988.0464-.4669.109-.735.1716.001.0465.0021.093.0031.1395.4819.1001.9639.2002,1.4458.3003-.0179.0945-.0357.1889-.0536.2834-.2566-.026-.5132-.0519-.7822-.0792.1586.5827.2454,1.1557.4798,1.6602.1244.2679.5189.401.7664.623.4783.4291.3449.7598.0207.9008.1498.9401.2954,1.8096.4247,2.6816.0791.5333.197,1.0735.1706,1.6044-.0127.2564-.3179.4983-.5249.7962.0839.1616.2392.4606.499.9609-.3975-.1842-.5816-.2696-.8912-.413.2937.4796.5293.8644.8021,1.3099h-1.1632c.4731.4509.8727.8317,1.2723,1.2125-.0206.0379-.0412.0757-.0618.1136-.1799-.0842-.3598-.1684-.5954-.2787.0395.1236.0462.2402.1055.3151.5075.6413.5045,1.3618.4666,2.1391-.0185.381.2111.9467.5111,1.1303.4574.28.3748.5587.3979.9656.0417.7341.2626,1.4561.3513,2.19.0747.6179.0898,1.2458.0865,1.869-.0013.2471-.1236.4936-.2302.8847.0478-.0158-.1027.034-.1938.0642.3828.9658.5623,1.8867-.206,2.8831.089.112.2579.3245.4268.537-.0432.0462-.0864.0925-.1297.1387-.2092-.1705-.4185-.3411-.5233-.4265-.1605.2478-.3273.5053-.5866.9058.1459-1.9256.2501-3.6472.4136-5.3632.1649-1.7308-.2533-3.346-.8123-4.9596.1233.219.2466.438.4599.8168-.1404-.6302.2466-1.208-.6598-1.4252-.2867-.0687-.3748-.9672-.5537-1.4859.0924-.0316.1849-.0631.2773-.0947.1302.3235.2605.6469.3907.9704.0925-.0396.1849-.0793.2774-.1189-.2642-.4652-.5399-.9245-.7872-1.3985-.1058-.2026-.2047-.4329-.2182-.656-.1376-2.2794-.2255-4.5622-.3918-6.8393-.1222-1.6744-.1622-3.3606-1.6344-4.6288-.5079-.4375-.6472-1.3031-1.0309-2.1385.3362.127.444.1677.5518.2084l-.0258-.0259Z"/>
  <path d="M26.598,18.1024c.1158-.1423.1708-.21.2781-.3418-.7384.0978-1.3554.1796-1.9724.2614-.0083-.0429-.0166-.0859-.0249-.1288.4191-.1241.8382-.2482,1.2574-.3723-.0122-.051-.0244-.102-.0366-.153-.8011.1367-1.6022.2733-2.4032.41-.0794-.0951-.1588-.1902-.2381-.2853.0946-.1481.1891-.2962.2836-.4443.0869.0828.1739.1657.2608.2485-.072-.0152-.1433-.0365-.216-.0446-1.6222-.1804-3.2638-.2624-4.8587-.5795-.7992-.1589-1.5816-.6601-2.2331-1.1801-.2657-.2121-.3545-.9733-.1888-1.3283.316-.6773.1771-.7721-.4784-.7219-.203.0156-.4207-.1593-.7951-.3149.7183-.441,1.3505-.8292,1.961-1.204-.3252-.3549-.5867-.6403-.8481-.9257.0435-.0828.0869-.1657.1304-.2485h2.3883c-.2769.3218-.5254.6106-.7738.8994-.0866-.0411-.1732-.0823-.2597-.1234-.1121,1.0965-.2247,2.193-.3353,3.2896-.0104.103-.0236.2958-.0102.2982.9553.1631,1.299,1.2058,2.4321,1.3602,2.892.3939,5.8837.0903,8.6945,1.2266.6356.2569,1.538-.1687,2.3211-.2435.3018-.0288.6134.0444.9205.0712-.223.1763-.4205.4403-.6734.5139-1.2035.3504-2.4267.4681-3.6673.1591-.2781-.0693-.5747-.0639-.9143-.098Z"/>
  <path d="M2.7769,43.3255c.1223-.1037.3098-.1844.3555-.3149.201-.5737.4086-1.153.5166-1.748.0564-.3108-.1525-.6622-.1319-.9884.1435-2.2724-.33-4.3875-1.2854-6.4643-.476-1.0347-.5405-2.2587-.7153-3.4316.8567,1.5438.887,3.4954,2.2907,4.7706-.1414-.07-.2828-.1399-.5337-.2641.2971.617.6521,1.1038.7658,1.6417.2463,1.1659.5856,2.3776.4802,3.5336-.1005,1.103-.7042,2.1639-1.1239,3.2286-.0482.1223-.3353.1504-.5117.2221-.0356-.0618-.0713-.1236-.1069-.1853Z"/>
  <path d="M44.279,16.74c-1.9471.2407-3.7867.5098-5.5441-.1575-.327.8211-.6818.1151-.9056.0418-.1769.1272-.3249.3116-.4163.2869-.6394-.1733-1.2402-.2771-1.8733.0972-.1219.0721-.4949-.2808-.752-.4377.2254-.1333.4495-.3798.6764-.3824,2.4536-.028,4.9077-.0174,7.3616-.0179.2392,0,.5065.0651.7125-.0187.7799-.3172.7887.1079.7407.5884Z"/>
  <path d="M66.7636,44.9738c-.3882.4631-.7285.8692-1.0689,1.2753-.0782-.045-.1564-.09-.2346-.1349,1.0809-2.6862,1.003-5.5862,1.4648-8.3866l.4179.0124c.0384.5574.1441,1.1201.1008,1.6711-.0831,1.0578-.4228,2.1236-.3353,3.1589.0897,1.0612-.3982,1.7152-1.048,2.4844.2633-.0302.4664-.0534.7032-.0805Z"/>
  <path d="M11.8196,39.6252c.104.1414.2083.2826.3903.5288-.9521.4128-1.8515.8027-2.7508,1.1926-.0556-.0746-.1113-.1492-.1669-.2237.0531-.1543.1062-.3086.1619-.4705-.1412-.0264-.3308-.062-.5204-.0975-.0074-.0969-.0148-.1939-.0221-.2908.2777-.0078.5557-.0261.833-.0183.1079.003.2141.0646.4755.1498-.1898-.2316-.2943-.3591-.4949-.6037,1.1644-.205,2.1935-.5857,2.7128-1.9354q.2122,1.324-.6184,1.7688Z"/>
  <path d="M8.6707,71.8843c-.1341.4006-.2683.8013-.4288,1.2805-1.0451-1.2943-1.0827-2.7804-.7778-4.0917.3049.3174.7471.702,1.0878,1.1619.1929.2603.2584.6385.3069.9743.0327.2266-.0644.472-.1034.709-.0282-.0113-.0565-.0227-.0847-.034Z"/>
  <path d="M12.3058,41.5935c-.4371.8148-.8743,1.6295-1.3835,2.5786-.2559-.935-.6522-1.4776-1.5844-1.3416l-.0508-.2414c.9426-.4053,1.8852-.8105,2.8278-1.2158.0636.0734.1273.1468.1909.2202Z"/>
  <path d="M12.7943,1.2409c-.6766.2623-1.2261.4753-1.9794.7674.4916-1.0458,1.5923-1.6761,2.5328-1.6014-.091.735.1256,1.267,1.075,1.1154-.5302.6817-.9764.5459-1.6284-.2814Z"/>
  <path d="M4.281,51.9982c1.4626.4013,1.8531,1.0048,1.6603,2.7853-.8291-.8668-1.7696-1.4862-1.6603-2.7853Z"/>
  <path d="M69.8272,51.8008c-.4211,1.2629-.7988,2.396-1.1766,3.5291l-.2566-.0673c.5298-2.0885,1.0596-4.177,1.5894-6.2655.0532.0059.1064.0117.1596.0176-.1086.9584-.2173,1.9169-.3158,2.7861Z"/>
  <path d="M7.2833,79.7923c-.1371.1626-.2742.3252-.4113.4878-.0481-.0179-.0962-.0359-.1443-.0538.157-.4866.314-.9732.4835-1.4986.2068.1034.3919.1959.577.2885.0291-.056.0582-.1121.0872-.1681.2189.3444.4377.6887.7658,1.2049-.2985.4041-.7277.9851-1.1568,1.5661-.0585-.0316-.117-.0631-.1755-.0947.2524-.4573.5049-.9145.7573-1.3718-.0564-.0376-.1128-.0752-.1692-.1129-.2561.354-.5122.708-.7683,1.062-.0751-.0463-.1501-.0927-.2252-.139.1862-.3552.3724-.7104.5586-1.0655l-.1789-.1049Z"/>
  <path d="M63.7551,72.8104c1.6825.2309,2.2877-1.2207,3.4738-1.9283.0186.525.3438,1.063-.5204.9153-.0331-.0056-.1145.3375-.1922.5096-.0883.1956-.1501.4466-.306.5606-.7296.5336-1.4969.7914-2.4553-.0573Z"/>
  <path d="M10.3017,44.9463c1.7323.4788,2.6423,1.6124,2.4586,2.8167-1.4648-.7637-1.7615-1.2055-1.2361-1.899-.2313-.1711-.4635-.3411-.6937-.5136-.1775-.133-.3526-.2692-.5288-.404Z"/>
  <path d="M65.5928,31.6117c.4991.2589,1.0011.4664,1.4435.7629.4919.3298.9293.7407,1.2931,1.2479-.8813-.0256-1.6485-.2075-2.028-1.0902-.4189.1945-.7172-.2087-.7085-.9206Z"/>
  <path d="M.8303,52.5022c-.2767-1.0381-.5534-2.0762-.8303-3.1151.9698-.534.9178.2555,1.2561.7427-.2793-.0354-.4237-.0537-.4805-.0609.0302.4826-.0721,1.0347.1293,1.4334.1919.3799.7005.5998,1.0763.895-.3777.0251-.7775.0517-1.1769.0786.0003.0003.0261.0262.0261.0262Z"/>
  <path d="M63.0025,30.2046c-1.2573-1.0308-2.5146-2.0616-3.7719-3.0924,1.8728.2817,2.6518,1.8947,3.9357,2.8932-.0546.0664-.1092.1328-.1638.1992Z"/>
  <path d="M70.396,42.6588v5.2338c-.0688-.0013-.1375-.0027-.2063-.004v-5.265c.0688.0117.1375.0235.2063.0352Z"/>
  <path d="M14.2644,0c1.012.0738,1.9479.1421,2.9943.2185-.8622.8548-2.4739.6667-2.9943-.2185Z"/>
  <path d="M1.7546,20.1786c-.0755,1.1272-.1306,2.2566-.2492,3.3792-.017.1608-.341.2892-.523.4325-.0403-.0713-.0807-.1426-.121-.2139.2397-1.2085.4794-2.4169.7191-3.6254.0581.0092.1161.0183.1742.0275Z"/>
  <path d="M47.3452,14.5333c.0562.2491.1125.4983.1688.7474-.7552-.1391-.492.439-.5559.807-.3013.0392-.6031.0786-1.1649.1517.7856-.5444.0194-2.0447,1.5521-1.7061Z"/>
  <path d="M1.4262,45.7312c.0332.4197.2549,1.045.0639,1.22-.5513.5054-.0728.8516.0744,1.3958-.2382-.1202-.3751-.1892-.5711-.2881-.0303.2007-.0627.4157-.0951.6307-.054.0064-.1079.0127-.1619.0191-.078-.3324-.297-.7111-.2061-.988.2259-.6881.5931-1.3299.9036-1.9902l-.0079.0007Z"/>
  <path d="M1.434,45.7305c.1444-.4068.2526-.8318.4459-1.2138.1274-.2517.3773-.4414.6159-.7075.1419.4586.278.8986.4141,1.3386-.0686.0336-.1372.0673-.2058.1009-.1283-.1706-.2566-.3413-.4294-.5711-.0246.3937-.0457.7318-.0628,1.0047-.2745.017-.5297.0328-.7854.0487-.0005.0001.0074-.0006.0074-.0006Z"/>
  <path d="M47.5501,90.7589c.6119-.2118,1.2237-.4235,1.8356-.6353.0338.0938.0676.1876.1014.2814-.7884.3869-1.5768.7737-2.3651,1.1606-.0433-.0671-.0866-.1341-.1299-.2012.1965-.212.393-.424.5903-.6365.0008-.0006-.0323.0311-.0323.0311Z"/>
  <path d="M13.5393,28.7838c-.5988-.1333-1.1976-.2667-1.7964-.4.0094-.1288.0187-.2577.0281-.3865.3533-.0181.8061-.1778,1.0339-.0175.2674.1882,1.0302.1083.7095.8315-.0013.0014.0248-.0276.0248-.0276Z"/>
  <path d="M18.019,18.7196c-.2941.3052-.5678.5894-.8846.9183-.1005-.161-.1815-.2907-.2772-.444-.2141.1367-.4231.2701-.6839.4366q.1686-.7212,1.8457-.9109Z"/>
  <path d="M3.0068,17.3731c-.2752.6848-.5504,1.3696-.8256,2.0544-.1187-.0479-.2375-.0959-.3562-.1438.2769-.6933.5537-1.3866.8306-2.0799.1171.0565.2341.1129.3512.1694Z"/>
  <path d="M52.052,81.065c.8473.1744,1.5609.3212,2.2975.4728-.9491.623-1.1869.5754-2.2975-.4728Z"/>
  <path d="M69.5198,35.7986c.1686-.6752-.9045-1.1585.0261-1.7919.2042.4867.4055.9663.6203,1.4783-.1706.0828-.3421.166-.6464.3136Z"/>
  <path d="M28.2812,20.1088c.8162.3078,1.5655.5904,2.3148.873-.0484.112-.0967.2241-.1451.3361l-2.2983-.9872c.0694-.1197.1388-.2395.1286-.2219Z"/>
  <path d="M63.9523,29.3685l1.0608,2.0007c-.3126-.1834-.9592-.7219-1.4522-1.6211.1305-.1265.2609-.2531.3914-.3796Z"/>
  <path d="M56.8242,89.4919c.5723-.8818,1.0765-1.6586,1.5974-2.4613.1321.6214-.5614,1.705-1.5974,2.4613Z"/>
  <path d="M4.5314,100.7865c.6342-.216,1.2684-.432,1.9026-.6481.0351.1333.0701.2666.1052.3999-.576.573-1.3378.2216-2.0289.2299-.0019-.0017.0211.0183.0211.0183Z"/>
  <path d="M6.844,101.274c-.1127.6486-.6065.7261-1.8779.1658.6243-.0551,1.2486-.1103,1.8779-.1658Z"/>
  <path class="b" d="M33.4591,92.7912c-.1749.1437-.3497.2875-.5922.4868-.1425-.3903-.2638-.7225-.3851-1.0547-.0512-.0012-.1024-.0023-.1535-.0035-.036.3221-.0719.6441-.1079.9662-.086.0104-.172.0208-.2581.0312-.0842-.8015-.1685-1.603-.2546-2.4218-.5658.5345-.3685,1.2442-.2772,1.9007.0464.334.2421.6522.3961.9649.211.4282.4289.8822.9065.1953.0477-.0686.2795-.0092.4439-.0092-.2473.236-.4774.4557-.7515.7174.2405.2725.465.5267.6895.781-1.8594-1.3043-2.3726-3.0687-1.5995-5.2605-.133.0015-.2661.003-.3991.0045-.1208.5902-.3297,1.1791-.3389,1.7711-.0103.6661.1596,1.335.2599,2.0662-.3416.0498-.6188.0902-.9324.1359.1226.3882.2333.7392.3441,1.0902-.0808.0433-.1616.0865-.2424.1298-.1877-.4152-.3755-.8304-.5931-1.3116-.1259.115-.2372.2167-.3477.3177-.9969-1.3794-1.0215-3.3177-.05-4.2251,0,0-.0253-.0273-.0253-.0273v1.7739c.2908-.6061.4918-1.025.6928-1.4439-.0916-.0584-.1832-.1168-.2748-.1752.501-.4038.9922-.8205,1.5064-1.2066.3282-.2465.5593-.4586.0586-.7508l.0203.0196c.1251-.2624.2503-.5248.2632-.552.8355-.2019,1.4839-.3585,2.3283-.5625-.499.5775-.8328.9636-1.1274,1.3045.1028.418.189.7686.28,1.139.1657.0675.4881.1014.6388.2801.3422.4058-.139.4932-.2953.7493-.2097.3436-.0863.9087-.0542,1.3752.0191.278.137.5492.2105.8235l.0214-.0192Z"/>
  <path class="b" d="M9.9514,102.816c-.0347-.1035-.0871-.26-.1263-.377.2411.0409.4996.1553.7156.1009.2045-.0516.3643-.2802.5758-.4579.0589.051.2546.2206.631.5467-.1214-.4271-.182-.6401-.3013-1.0596.2908.3351.4463.5142.6042.6962.8994-1.0514,1.5229-.1885,2.2221.1004-.0048.0782-.0095.1564-.0143.2346-.5263.0415-1.0525.083-1.7363.1368.4294.1722.7564.2875,1.0692.4333.3127.1458.6245.3017.912.4908.312.2052.5956.4538.8915.6835-.0528.0739-.1056.1478-.1584.2217-.2869-.2251-.5551-.4811-.865-.668-.4537-.2736-.9374-.4976-1.4083-.7428-.0653.0838-.1306.1676-.196.2514.3428.314.6856.628,1.0688.979-2.8679-.1968-5.661-.3884-8.4541-.58.0036-.082.0071-.1641.0107-.2461,1.5271-.1746,3.0918-.1197,4.559-.7438Z"/>
  <path class="b" d="M28.9421,89.3997c-.2693.7191-.7612,1.4407-.7534,2.1568.0105.96.412,1.9148.6356,2.8741.059.2532.0815.515.1208.7729-.1278.0359-.2556.0717-.3834.1076-.3276-.7743-.6553-1.5486-1.0317-2.4382-.0811.3153-.1418.5512-.2025.7872-.0721-.0355-.1442-.071-.2162-.1065.1613-.2701.3494-.5283.4754-.814.0994-.2252.1288-.4829.1781-.7284.1927-.9587.1773-2.0105,1.178-2.603l-.0009-.0086Z"/>
  <path class="b" d="M27.0259,90.3845c.4276.8212-.7251,1.2754-.6347,1.885.1175.7927-.4459,1.2794-.5019,2.0428-.7188-1.6817-.2423-2.9424,1.1366-3.9278Z"/>
  <path class="b" d="M56.2147,32.3438c-.3975-1.2072-.7951-2.4144-1.2419-3.7713,1.3833,1.0143,1.0393,2.4971,1.5214,3.6738-.0931.0325-.1863.065-.2794.0975Z"/>
  <path class="b" d="M34.6869,87.6676h1.1035c.0234-.0599.0468-.1199.0703-.1798-.3527-.1465-.7054-.293-1.0658-.4427.3721-.0672.7761-.209,1.1707-.1863.2492.0143.5337.2344.7021.4431.0709.0879-.0985.5459-.1899.5561-.2795.0312-.4068.8197-.8631.1542-.1422-.2074-.6595-.1576-1.0051-.2256.0258-.0396.0516-.0793.0774-.119Z"/>
  <path class="b" d="M56.3092,55.508c.1777.4085.2417.5557.2897.6659.8505-.1345-.4078-1.8206,1.2585-1.4516-.5842.8769-1.1332,1.7008-1.6822,2.5248-.0856-.0358-.1711-.0717-.2567-.1075.1112-.4642.2224-.9284.3908-1.6315Z"/>
  <path class="b" d="M62.4801,42.4379c-.3391,1.1295-.6785,2.2589-1.0172,3.3885-.097.3236-.192.6478-.3021,1.0196-.1212-.3851-.2891-.6964-.2905-1.0083-.0008-.1823.3174-.3446.4008-.5526.3509-.8758.6637-1.7668,1.0034-2.6472.0295-.0764.1542-.116.2347-.1726l-.029-.0274Z"/>
  <path class="b" d="M15.7493,65.7689c-.5445.8418-1.0722,1.6992-1.9999,2.188-.0947-.0908-.1893-.1816-.284-.2724.817-.5704,1.6339-1.1408,2.4509-1.7112-.0557-.0681-.1114-.1363-.167-.2044Z"/>
  <path class="b" d="M62.509,42.4653c.1335-.799.2479-1.602.4113-2.3948.0553-.2684.2344-.5113.4799-1.0213,0,.4934.1189.8886-.0212,1.034-.5239.5436-.6176,1.151-.5525,1.8555.0142.1534-.2263.3304-.348.4978.0016.0013.0305.0287.0305.0287Z"/>
  <path class="b" d="M65.2245,82.1917c-.6382.5634-.9537,1.6869-2.3547,1.2588.8894-.4754,1.6221-.8671,2.3547-1.2588Z"/>
  <path class="b" d="M38.684,85.0772h-1.3919c-.0058-.0556-.0116-.1112-.0173-.1668.1822-.0593.3643-.1186.7814-.2544-.457-.1365-.6841-.2044-.9111-.2722-.0029-.0735-.0057-.147-.0086-.2204h1.4093c-.1812.1362-.356.2676-.5307.399.174.1339.348.2677.669.5147Z"/>
  <path class="b" d="M36.31,89.5536c-.3226.2449-.6674.4669-.9574.7458-.121.1164-.1253.354-.1826.5366.1618.0245.3236.049.4853.0736.0103.0597.0206.1194.0308.1791-.2857.081-.5714.162-.8671.2457.0562-1.0038.2606-1.7926,1.2714-1.9857.0732.0683.1463.1366.2195.2049Z"/>
  <path class="b" d="M69.9094,66.4176c-.2228.9955-.9894,1.4244-1.9037,1.6931.6345-.5644,1.2691-1.1288,1.9037-1.6931Z"/>
  <path class="b" d="M14.1685,70.5757q.1622.4877-1.5354,1.4943c.2473-.2052.5083-.3962.7381-.6194.2539-.2466.4792-.5227.7973-.8749Z"/>
  <path class="b" d="M28.943,89.4083l1.6106-1.1491c-.0352-.0674-.0704-.1348-.1056-.2022.2486.0655.4972.131.7458.1965,0,0-.0203-.0196-.0203-.0196-.661.6009-1.322,1.2018-1.983,1.8026,0,0,.0253.0272.0253.0273-.0911-.221-.1822-.4419-.2735-.6635-.0002-.0006.0007.0081.0007.0081Z"/>
  <path class="b" d="M39.6288,100.3187c.9038-.2547,1.8076-.5093,2.7115-.764.0224.077.0448.1539.0673.2309-.9074.2837-1.8149.5674-2.7223.8512-.0188-.106-.0376-.212-.0564-.3181Z"/>
  <path class="b" d="M33.4376,92.8104c.9133-.0928,1.22.1508,1.3042,1.2698-.4258-.4313-.8517-.8626-1.2801-1.2914-.0026.0024-.0241.0217-.0241.0217Z"/>
  <path class="b" d="M69.5208,65.9969c-.3905.4616-.7811.9233-1.1716,1.3849-.0818-.0611-.1635-.1222-.2453-.1833.0491-.7229.7696-.9607,1.2532-1.3697.0546.056.1091.112.1637.168Z"/>
  <path class="b" d="M57.2078,33.1475c-.2422-.6836-.4845-1.3671-.7267-2.0507.0884-.0343.1769-.0685.2653-.1028.2604.6736.5208,1.3472.7813,2.0208-.1066.0442-.2132.0885-.3198.1327Z"/>
  <path class="b" d="M11.681,74.8768c.4888-.4261.9777-.8522,1.4665-1.2783.1145.1104.2289.2207.3434.3311l-1.3617,1.4164c-.1494-.1564-.2988-.3127-.4482-.4691Z"/>
  <path class="b" d="M13.987,7.9806c.2066-1.346.3224-2.6486-.5989-3.8385.1602-.1708.3249-.3464.6053-.6453.4624.529.9563,1.0234,1.3589,1.5835.2102.2924.1812.7602.3973,1.0444.5336.7016.2776,1.0379-.4468,1.2515-.4704.1387-.5823,1.1127-1.3158.6043Z"/>
  <path class="b" d="M7.0247,12.3947c-.2218.0834-.4087.1581-.5986.2243-.4802.1674-.9533.4338-1.4444.4736-.8925.0724-1.0284-.1646-.8105-1.1184-.1574-.049-.316-.0985-.4747-.1479.0826-.2398.1652-.4795.3126-.9075.2254.4423.3391.6655.5188,1.0183.2139-.4027.38-.7156.599-1.1279.524.1009.6554.5308.4347,1.1682.6115.2067.9184-.1659,1.0495-.6424.0663-.2408-.1152-.5499-.2055-.9113.4829-.2338.7026.0515.6914.6559-.0083.4483-.0482.896-.0724,1.3152Z"/>
  <path class="b" d="M9.7609,10.741c1.1352.5737,1.4359.5541,2.1699.0062-.0828.2373-.0949.5668-.2616.695-.5317.409-1.31.1375-1.9083-.7012Z"/>
  <path d="M29.1904,90.0364c.661-.6009,1.322-1.2018,1.983-1.8026.5007.2922.2696.5043-.0586.7508-.5142.3861-1.0055.8028-1.5064,1.2066.0916.0584.1832.1168.2748.1752-.201.4189-.402.8378-.6928,1.4439v-1.7739Z"/>
</svg>