<?xml version="1.0" encoding="UTF-8"?>
<svg id="a" data-name="Calque_1" xmlns="http://www.w3.org/2000/svg" viewBox="0 0 100.0341 195.6785">
  <defs>
    <style>
      .b {
        fill: #fff;
      }
    </style>
  </defs>
  <path d="M94.6661,184.3102c.9984.7708.9125.9577.0555,1.7117-.9236.8125-1.8257,1.6673-2.1401,3.027-.1916.8286-.8996,1.5375-1.26,2.4866l2.5161-2.0378.3535.3627c-.4069.4753-.825.9414-1.2189,1.4272-3.1554,3.8915-7.5037,4.4045-12.0809,4.3028-1.0634-.0236-2.149.1821-3.1891.034-2.7595-.3928-5.545-.7497-8.2302-1.4611-1.5727-.4167-2.9809-1.4706-4.4453-2.2704-.3207-.1751-.5661-.4883-1.0636-.9317,1.5415.1434,2.7728.2579,4.0041.3724.0228.0669.0456.1338.0685.2007-.4334.184-.8667.368-1.4166.6015,1.2213,1.165,2.7169,1.5538,4.2183,1.8429.2079.04.7343-.6158.8073-1.0067.2722-1.4586,1.1574-1.7129,2.4887-1.7334,2.3763-.0365,4.7493-.2899,7.1237-.4517.2734-.0186.5511-.0082.8201-.0523.5438-.0892,1.083-.2065,1.624-.3122.0054-.1128.0108-.2256.0162-.3384.1943.1802.3603.4282.5897.5242.3245.1357.6959.1592,1.0473.2306-.0752-.4342.0063-1.0425-.251-1.2745-1.6996-1.5323-3.4833-2.9705-5.2151-4.4677-.7305-.6316-1.3065-.681-2.0362.0677-1.4689,1.5072-3.0214,2.9331-4.5506,4.3805-.2754.2606-.6048.464-1.1862.9028-.1971-1.3735-.3752-2.4854-.5127-3.6023-.2042-1.6589-.3596-3.3239-.5747-4.9813-.1417-1.0917-.8599-.7049-1.4333-.4623-1.9047.8057-3.7842,1.6724-5.7026,2.4429-.3146.1263-.7748-.1255-1.1706-.1825-.3481-.0501-.8105-.2309-1.0307-.0777-.7715.5368-1.2736.1728-1.918-.2537-.5438-.3599-1.2526-.4701-1.8884-.6908.0784.7021.0086,1.4641.263,2.0952.7601,1.8856,1.7232,3.6635,3.6409,4.6584.391.2029.8153.3415,1.2286.5116.684-1.785.5418-3.0935-1.5693-3.5902,2.1782-1.1508,3.2804-.813,4.8462,1.3394-.3313.1428-.6469.2787-1.1115.4789.6858.1313,1.2516.2396,2.118.4054-.4675.5496-.7082,1.1123-1.0681,1.2035-1.1089.2809-2.2652.3701-3.3991.5582-.4255.0706-1.0031.0683-1.2336.3376-1.9371,2.2629-4.6214,3.0423-7.3366,3.336-3.9405.4262-7.9271.415-11.8921.6266-4.5751.2442-9.1457.6786-13.7227.7523-4.6495.0748-9.3056-.1599-13.956-.3353-.7342-.0277-1.4532-.458-2.1793-.7022.0211-.1228.0422-.2456.0633-.3684.2306-.0339.4619-.1018.6916-.0966,2.653.0602,5.3077.222,7.9579.1652,1.5398-.033,2.3009-1.183,2.6551-3.4175.347,2.6187.3416,2.5941,2.9655,2.0096,5.0465-1.1243,10.0968-2.2323,15.1535-3.3092.8112-.1727,1.6658-.2107,2.497-.1881.3704.0101.7326.3249,1.0978.5011-.313.0309-.6752-.0251-.9241.1172-.2618.1496-.4691.468-.5826.7586-.0333.0852.4262.5043.5016.4652.2556-.1328.472-.3802.6427-.6261.1525-.2196.2246-.4952.3322-.7461.1931.2853.3863.5707.5941.8776.8248-.4113,1.5907-.7931,2.4443-1.2188.011.8457.1815,1.308.9684.8676.4788-.268.9302-.5965,1.4311-.8111.8132-.3484,1.572-.4837,2.1738.4819.4958.7955,1.29,1.0089,2.215.6305-.2186-.8461-.406-1.6893-.6774-2.5045-.0444-.1334-.5017-.2617-.6948-.1912-1.1958.4367-1.7712-.4595-2.3964-1.1331-.1626-.1752-.0934-.7552.0753-1.0155.6345-.9792.4763-2.612-.5107-3.1659-1.1041-.6197-1.9101-1.7757-3.3943-1.7637-.6752.0054-.9615-.5155-.4659-1.1806.1356-.182.2146-.4062.146-.8248-.2401.1599-.5602.2672-.7058.4892-.4939.7529-1.1503.8861-1.9762.7192-6.7331-1.3606-13.5449-2.0529-20.3968-2.4323-1.4992-.083-2.9875-.364-4.4876-.5547.7043-2.6331,1.1603-3.0502,3.3879-3.3144-.3788-.114-.7734-.3618-1.1337-.3191-1.6121.1909-2.4372.9882-2.7901,2.5615-.0259.1156.0055.2809-.0628.3446-1.3164,1.2277-2.5803,2.5262-4.0006,3.6209-.5588.4307-1.9168-.7689-2.2285-1.8389-1.2216.7783-1.5272,1.8364-1.3483,3.2696.321,2.5726.1605,5.1465-.4532,7.6887-.1894.7846-.1584,1.6226-.5157,2.5148-.1603-.6378-.4613-1.2774-.4534-1.9131.0203-1.6313.1964-3.2599.2721-4.8914.035-.7553-.0149-1.5149-.0331-2.2723-.0528-2.2005.7238-4.0354,2.3741-5.5049,1.6877-1.5028,3.4552-2.6724,5.8557-2.887,2.1068-.1883,2.532-.9169,2.5325-3.1159.0015-5.942-.0222-11.8841-.0447-17.8261-.0143-3.7928-.003-7.5865-.0803-11.3782-.0601-2.9469-.3329-5.8912-.3407-8.8371-.0086-3.2685.1807-6.5374.2755-9.8063.0648-2.2342.078-4.4707.1883-6.7025.052-1.0529.2779-2.0972.4507-3.3283.4752.3354.7718.5447,1.3797.9737,0-1.2326.0246-2.2337-.0274-3.2307-.0075-.1438-.3834-.2683-.5888-.4017-.1418.034-.2835.0681-.4253.1022.2495-.9359.4912-1.874.7515-2.8068.1606-.5756.1476-.8364-.5999-1.0768-.7037-.2263-1.4463-.8893-1.7963-1.5573-1.1566-2.2075-.6392-4.4526-.1872-6.8098.4389-2.2891.1313-4.7221.1464-7.092.0155-2.4331-.249-4.9072.1069-7.2887.4301-2.8778-.0773-5.6519-.2649-8.4613-.22-3.2948-.8044-6.5724-.897-9.8669-.1286-4.573.0949-9.1547.0905-13.7326-.0042-4.362-.1069-8.7239-.1678-13.0858-.0205-1.4702-.0568-2.9403-.0653-4.4105-.0098-1.6902-.4957-2.3794-2.1358-2.8238-3.4399-.932-6.9053-1.7749-10.3238-2.7786-1.8576-.5454-3.7006-1.222-5.4385-2.0691-1.4459-.7047-1.7231-2.9387-.7145-4.2188.5116-.6493,1.0586-1.2706,1.5895-1.9046l.4227.1207c-.0794.4215-.1837.84-.2325,1.265-.0803.6989-.1246,1.402-.1909,2.184-.1634-.0152-.5165-.0481-.943-.0878.226,1.8072,1.9567-.2646,2.3488,1.1464-.6119.1316-1.1916.2564-2.0514.4414,1.1692,1.0757,2.221.635,3.419.5473-.2654-.4257-.4347-.6972-.6822-1.0942,1.0568.2988,1.9758.5586,2.9801.8426-.0687.2454-.1355.484-.2376.8491,3.102.5519,6.1893,1.1012,9.2441,1.6447q-.3116.5456-3.3866.7615c.7922,1.1162,2.0532,1.1748,2.8804.7294.9433-.5079,1.9412-.1845,2.4774-.5287.5414.3373.907.7632,1.2302.733,1.5954-.1486,3.1841-.3914,4.7664-.6537,1.1575-.1919,2.5113-.1676,3.3907-.7886.8335-.5886,1.0548-1.2733,2.2811-.4352.7774.5313,2.2681.4061,3.2856.0865,1.0127-.318,1.9908-.6623,3.0504-.7782.0558-.0061.062-.4409.0962-.6753.0576-.395.0345-.8314.2029-1.1723.1682-.3404.5299-.585.8068-.8716-.3785-.2309-.757-.4619-1.1856-.7235.742-.3816,2.2.1478,2.166-1.3455-.9404-.553-2.2892-.8893-2.6557-1.6811-.4266-.9217-1.3116-1.1519-1.6843-1.8641-.2062-.3939.122-1.068.2071-1.602-.7287-.3408-1.7159-.8025-3.0334-1.4187.8331-.1872,1.3343-.2998,1.8355-.4124.0564-.1007.1128-.2014.1692-.3021-.3585-.2522-.6965-.5426-1.0794-.7498-1.2968-.7019-1.4775-1.1228-.9116-2.2729q-.8146.0355-1.4958,1.6807c-.651-.4475-1.285-.8833-1.9981-1.3736.2431-.3187.466-.6108.8688-1.1388-1.0646-.6964-2.0751-1.3574-3.0519-1.9963.0738-.045.3927-.2393.7117-.4336-3.0994.3891-6.1735.8498-9.1101.1319-.2121-1.0721-.2332-2.1531-.6534-3.0459-.4846-1.0297-.12-1.6647.6234-2.1057,1.1203-.6647,2.3521-1.1382,3.5163-1.7326.7009-.3578,1.491-.6682,2.0167-1.2156C23.6637-.0647,24.9087-.0808,26.248.0641c.8309.0899,1.6619.2204,2.4951.2398,4.4247.1029,8.8508.1506,13.2743.2886.6437.0201,1.7223.303,1.8216.6733.2213.8256.4258,1.893-.5023,2.5891,1.3252,1.8928.4207,3.8746.2155,5.8039.7165.6983,1.3936.2786,2.1744.1435,1.3211-.2286,2.7139-.2317,4.0561-.1074,2.637.2442,5.2246-.1763,7.8354-.2954,3.475-.1586,7.0056-.1484,10.4426.311,2.0347.272,4.0115-.1254,5.9971.172,2.3572.3531,4.6245-.1763,6.9407-.5349,2.0186-.3125,4.1284-.0803,6.1958-.0176,2.141.065,4.2791.2201,6.4188.3277,1.9656.0988,5.5169,2.6388,6.0219,5.4748.089.4998.2228.9916.399,1.7635-.839.1268-1.6625.2795-2.4926.3716-2.5806.2861-5.0394.8773-7.4311,1.9996-2.146,1.007-4.4573,1.7672-6.775,2.2702-2.079.4512-3.8781,1.376-5.6916,2.355-4.9253,2.6588-9.7157,5.615-14.8054,7.9063-3.8613,1.7382-8.133,1.9969-12.3785.9653-1.8927-.4599-3.836-.7074-5.7408-1.1226-1.1654-.254-1.6503.3128-1.8219,1.3137-.2402,1.4014-.3597,2.8271-.6676,4.2119-.1537.6916-.6812,1.2918-.9125,1.9764-.2719.8048-.4059,1.6564-.6397,2.6593-.3903-.535-.652-.8936-.9137-1.2522-.0921.0238-.1842.0476-.2763.0714v6.0209c1.5429.0052.1671-1.6644,1.2886-2.0712-.0522.8415-.0969,1.561-.1449,2.3339h-1.4209c0,1.5048-.0177,2.9565.0061,4.4076.0164,1.0036.1051,1.0858,1.3352,2.0557-.3235-.0933-.647-.1865-1.3409-.3865.4419.8167.7606,1.4057,1.1937,2.2062-.5307-.1338-.7676-.1936-1.2294-.31,0,1.5893-.0169,3.0526.0165,4.5148.0056.2465.1836.5276.3579.7256,1.3013,1.4781,1.203,2.0025-.4625,3.2109-.3035.2202-.5204.8026-.4771,1.1836.0359.3162.464.7267.8046.8435,1.0629.3647,1.1857-.3859,1.1733-1.0026.4205.2729.8523.6646,1.3595.8565.775.2931.7958.7188.3564,1.2645-.6602.82-1.3523,1.6153-2.0524,2.4019-.9594,1.0779-1.3565,2.4019-1.244,3.7594.1464,1.7673.1133,3.4752-.0543,5.2553-.3034,3.2212-.1056,6.4892-.1307,9.7376-.0071.9134-.0961,1.8269-.0864,2.7396.0165,1.543-.0025,3.094.1513,4.6257.1404,1.3975,3.7768,4.0145,4.7716,3.2515,1.2927-.9914,2.0937.0385,3.1016.0437,1.1142.0057,2.2284.1095,3.3421.1012,1.6848-.0126,3.3692-.0842,5.0537-.1328.4372-.0126.8747-.055,1.3113-.0464,2.614.0513,5.2279.1136,7.8418.1714.0395.0009.0825-.0001.1185-.014.6474-.2495.9054,1.7633,1.9404.2473.318-.4658,1.7328-.1845,2.6457-.2392.8727-.0523,1.7454-.1084,2.6189-.1411.8722-.0327,1.8405.2006,2.5996-.1023,2.0325-.811,3.8311.6872,5.7644.3758.9202-.1482,1.8175-.4341,2.7342-.6106.3722-.0717.7721-.0541,1.1531-.0157,1.6441.1659,3.2331.0309,4.8891-.8184.0426.6404.1446,1.2581.1115,1.8684-.0648,1.1946-.2583,2.3833-.2974,3.5778-.0323.9881-.1879,1.4955-1.4288,1.425-1.6934-.0962-3.4054.1987-5.1107.2188-.6893.0082-1.563.0714-1.7814-.9677-.0147-.07-.4212-.0575-.7039-.0901.3181,1.4493-.7924,1.127-1.4198,1.1501-1.9438.0715-3.8921.0334-5.8384.0115-.3387-.0038-.6759-.1359-1.0138-.2087.0227-.1407.0455-.2814.0682-.422h2.5763c.0077-.1044.0154-.2087.0231-.3131-.6933,0-1.3901-.0441-2.079.011-.8876.0711-1.2188-.2397-1.1476-1.1613.0477-.6176-.1003-1.2657-.2565-1.8756-.0593-.2315-.3866-.3942-.7823-.7687v3.8954c-.6128-.4135-1.005-.6781-1.4657-.989.0263-.0019-.064-.0207-.1253.0131-.4298.2371-.8536.4851-1.2793.7296-.1446-.4661-.3194-.9254-.4262-1.4-.1325-.589-.2087-1.1907-.3093-1.7869-.1757.0037-.3513.0073-.527.0109-.0156.583-.0911,1.1718-.0348,1.7478.1363,1.3937.0465,1.5179-1.3325,1.4931-.511-.0092-1.0223-.0015-1.5335-.0015-.0077.1444-.0154.2888-.0231.4332,1.2724,0,2.5454-.0228,3.8172.0065,1.2492.0287,2.4841.5852,3.7552-.1783.0306.1822.0612.3643.0917.5465-.4662.1319-.9302.3694-1.3991.3795-5.5787.1204-11.1584.1917-16.7367.3262-.5475.0132-1.0867.3607-1.6302.5519-.5944.2092-1.1879.5893-1.7842.594-1.897.015-3.7949-.1436-5.6928-.1537-.3981-.0021-1.0212.2457-1.1531.5478-.3263.7474-.5736,1.5887-.597,2.3997-.1694,5.8553-.2837,11.7123-.3967,17.5691-.0401,2.0766.0488,4.1581-.0589,6.2302-.1385,2.6647-.4282,5.3213-.6201,7.9838-.03.4163.144.8431.1712,1.2685.1204,1.8849.2823,3.7703.3055,5.657.0126,1.02-.2805,2.0399-.3372,3.0653-.2011,3.6383-.3806,7.278-.5281,10.9188-.117,2.8884-.1752,5.7792-.262,8.7571-.4828-.0411-.8177-.0696-1.2552-.1068v1.324c.4745-.3896.7841-.6438,1.2624-1.0365-.2904,1.8804.9879,2.2663,2.1906,2.4318,2.1594.297,4.3445.4423,6.5238.5488,2.9561.1446,5.7556.9265,8.3745,2.2054,1.3417.6552,2.4345.3265,3.4364-.3176,1.188-.7637,2.1193-1.9223,3.2944-2.7123,1.9928-1.3398,3.8853-2.9101,6.331-3.4189.4046-.0842.8248-.0932,1.2908.0506l-.9086.6465c.0152.0806.0304.1611.0455.2417,1.7426-.233,3.4852-.4659,5.2278-.6989l-.1231.3593c.5361.6091,1.0722,1.2183,1.6996,1.9311-.8799.0833-1.6756.1586-2.8092.2659.8514.7487,1.4649,1.2769,2.0661,1.8189,2.6386,2.3788,5.856,3.201,9.2774,3.6256,1.434.1779,2.8211.7473,4.2243,1.1569.8191.2391,1.6278.5141,2.6732.8467-.2244-.7103-.3566-1.1287-.5215-1.6506,1.6634.0014,2.6791,1.1348,3.9135,1.7716.2082.1074.3685.3039.568.4327.9397.6068.95.953.2284,1.8503-.6778.8429-1.266,1.758-1.8945,2.6409-1.6905.0024-2.5641.4441-2.8571,1.584,1.0932-.4101,2.2155-.5234,2.8268-1.6168ZM21.127,50.8326c.0999-.0055.1998-.0109.2997-.0164-.128.144-.2299.3345-.3886.424-.7494.4223-1.0951.7596-.136,1.4378.2445.1729.0635,1.0772-.0626,1.6123-.1422.6036-.5835,1.1559-.6422,1.7553-.0893.9119.027,1.8458.0793,2.769.0285.5038.1044,1.0049.1601,1.5071.0517.4662.1049.9322.1574,1.3982.0256.3953.3385.7961.3273,1.1875-.0437,1.5196-.2282,3.0352-.2699,4.5548-.0095.3459.3427.7017.5284,1.0529.1172-.047.2343-.094.3515-.141v-2.8388c.4504.0542.8566.1787,1.2387.1265.3436-.047.884-.231.9413-.4558.1074-.4208.0624-1.0006-.1649-1.3577-.3096-.4865-.845-.8311-1.291-1.2283-.9392-.8363-.9579-1.482-.3154-2.6733.9106-1.6882,1.2024-3.4816.6966-5.3881-.1883-.7096-.583-1.5224.2919-2.2197.2484.5035.4679.9486.6874,1.3936l.3706-.0874c0-1.2063.0159-2.4131-.0207-3.6184-.0044-.1457-.2922-.2828-.4486-.4238-.1159.1787-.2951.3446-.3344.5388-.0804.3973-.0857.8099-.1219,1.2162-.2254-.8896-.1941-1.7437-.2327-2.5947-.0576-1.267-.1494-2.5331-.2683-3.7957-.0161-.1716-.265-.4369-.42-.4471-.155-.0102-.3593.2213-.4855.3894-.262.3489-.4866.7259-.6897,1.0354.2232.2538.4942.5621.9889,1.1247-.7191-.059-1.0133-.0831-1.6008-.1313.2775,1.3957.5258,2.6449.7741,3.894ZM20.4669,69.8847c1.9095,1.1671,2.027,1.5495,1.3063,3.5914-.0826.2341-.0055.6646.1653.8233.6287.5845.7434,1.1621.2858,1.9053-.119.1932-.0953.5503-.0068.7823.3494.9153-.4822,1.9574.315,2.8205.0338.0366-.1027.2075-.1247.3225-.2911,1.5199-.751,3.0343-.8099,4.5639-.0525,1.3635.3402,2.7443.509,3.925-.1448.7152-.4457,1.3352-.3439,1.8797.21,1.1225-.7945,2.4637.5679,3.4058.0575.0398-.1416.5799-.3237.8032-.1933.237-.5437.3408-.7589.5664-.1377.1444-.1548.4041-.2259.6122.209.0466.4339.168.6245.1275,1.231-.2611,1.8135-.972,1.8156-2.287.0036-2.1932-.167-4.3947-.0267-6.5775.1745-2.7141.662-5.4101-.0481-8.1188-.0715-.2729.1312-.6076.1555-.9176.2296-2.9337.6104-5.8691-1.7683-8.2933-.6053-.6169-.8355-.5175-1.3082.0652ZM67.9483,172.4947c-.4627-.1834-.7156-.383-.853-.322-.8937.397-1.7833.8139-2.6314,1.2993-.5115.2928-.9035.9466-1.4229,1.044-1.3178.247-1.6522,1.1136-1.9332,2.2256-.1237.4898-.6523,1.2419-1.005,1.2465-1.6233.0207-1.6685,1.34-2.0939,2.3186-.1247.2869.0773.7162.1295,1.0802.3928-.1192.8127-.1873,1.1685-.3763.2252-.1196.338-.4359.5304-.6357.6251-.6493,1.2133-1.7555,1.9073-1.83,1.4858-.1595,1.2938-1.04,1.2354-1.9182-.0398-.5994.0987-.8549.6502-1.1835,1.4301-.8522,2.7622-1.8692,4.3181-2.9485ZM19.5372,4.974h7.7748c-.0029-.1044-.0059-.2088-.0088-.3132h-1.4514c-.1144-.1602-.2287-.3204-.3431-.4806.6496-.3773,1.2992-.7546,1.9488-1.1318-.1114-.163-.2227-.3259-.3341-.4889-.823.1647-1.646.3293-2.4519.4906-.4384-.1169-.9972-.4528-1.4628-.353-1.1324.2427-2.2471.6292-3.3088,1.0952-.2443.1072-.2466.7669-.3629,1.1818ZM38.6306,156.9711c-.3043,1.2907-.6146,2.3313-.4333,3.6061.2978,2.0941.1238,4.2546.1636,6.3869.0063.3398.0897.6781.1778,1.3032,1.0659-1.964,1.0984-10.1499.092-11.2962ZM22.6911,43.1248c.0788-.9704.1489-1.833.2189-2.6955.1331-.0068.2662-.0136.3993-.0204.1227.5195.2454,1.0389.3681,1.5584.2533-.6755.3149-1.3051.2208-1.9105-.0342-.22-.4146-.4898-.6803-.552-1.0683-.25-2.0662-.3503-1.3577,1.308.0479.1121-.2557.3458-.2369.5042.1033.8721.0712,1.8366.4605,2.57.237.4464,1.1499.5333,1.82.8064v-1.5684h-1.2127ZM52.9368,175.9046c-1.5446.1139-3.1284.4606-4.6484.2774-1.4853-.1791-2.9056-.899-4.3544-1.3816,1.5622,2.201,7.1565,2.7039,9.0028,1.1042ZM59.9162,100.1069c-.1869-.0181-.3738-.0363-.5606-.0544-.0453.6822-.1419,1.3659-.1227,2.0462.0234.8315-.2265,1.2851-1.145,1.237-.837-.0439-1.6781-.0093-2.5174-.0093-.0083.0785-.0165.157-.0248.2355.4364.2123.8727.4247,1.3502.657.8763-1.1194,1.9138-.7193,3.0204-.137v-3.975ZM19.2855,7.7551c.0002.1227.0004.2455.0006.3682.3388.0168.7004.1167,1.0112.0314.4998-.1372.9795-.3711,1.4413-.6145.2766-.1458.7413-.4524.7082-.5738-.1131-.4148-.3178-.9489-.6533-1.1305-.8651-.4682-1.5847.3138-1.4416,1.5227-.3516.1307-.7089.2636-1.0663.3965ZM39.4563,7.8736c-.5177-.6222-.8221-1.3349-1.2034-1.3788-.9939-.1144-.8811.7839-.893,1.4312-.0112.6062.0704,1.3544.8686,1.2326.3929-.06.6972-.7018,1.2278-1.285ZM39.2253,114.8264c-.1436.0032-.2872.0065-.4308.0097-.1063,1.8251-.2222,3.6498-.2982,5.4762-.0054.129.2842.2702.7289.6657v-6.1516ZM36.3225,16.7488c-.44-1.7799.9713-.6134,1.4692-1.1024-.2844-.394-.5392-.7471-.6612-.9161-.407.2978-.8011.7758-1.0081.705-.9033-.3088-1.1442.1938-1.3623.9478.4234.0991.8357.1956,1.5624.3657ZM49.9605,103.61c-.111-1.1858-.2192-2.3427-.3275-3.4997-.939,1.7277-.5893,3.3306.3275,3.4997ZM33.4257,131.5145c.1369-.1133.2738-.2267.4106-.34-.0681-.4873-.1363-.9745-.2012-1.4387-.7618-.214-1.3877-.0212-1.3185.7219.0357.3835.7186.7065,1.109,1.0568ZM38.5584,124.7597c.1997.0137.3995.0275.5992.0412.0684-.9794.1369-1.9588.2053-2.9382-.2108-.0152-.4216-.0304-.6324-.0457-.0574.9809-.1147,1.9618-.1721,2.9427ZM39.1837,136.8644v-3.5294c-.1141-.0008-.2282-.0017-.3423-.0026-.5569,1.1636.0851,2.3419.3423,3.5319ZM27.9586,7.5131c.062-.1193.1241-.2387.1861-.358-.8303-1.3669-1.4077-1.6258-2.2716-1.0132.7028.4621,1.3942.9166,2.0855,1.3712ZM19.6066,6.0594c-.0048-.1033-.0097-.2066-.0145-.3099-.5677.1243-1.1756.1708-1.6744.4287-.1215.0628.1154.8201.1953,1.3053.611-.5826,1.0523-1.0033,1.4935-1.4241ZM24.3148,165.1527c.331.3104.5694.534.8078.7575.1673-.2181.507-.4781.4664-.6455-.0862-.3547-.3708-.661-.574-.9872-.193.2413-.386.4826-.7001.8752ZM39.1387,126.8241c-.1245-.0125-.2491-.0251-.3736-.0376-.7265.9848.2619,1.8654.3736,2.797v-2.7594ZM80.8377,194.4733c.0982.1406.1964.2813.2947.4219.6126-.4398,1.2251-.8795,1.8377-1.3193-.1093-.1563-.2185-.3127-.3278-.469-.6015.4555-1.203.9109-1.8045,1.3664ZM25.4751,150.8125c.1184-.2008.2369-.4016.3553-.6023-.333-.1037-.674-.3024-.996-.2752-.1898.016-.5032.405-.4846.5998.0248.2601.3179.4947.4958.7402.2099-.1541.4197-.3083.6296-.4624ZM38.9017,153.7165c-.1133-.0008-.2265-.0017-.3397-.0025v1.8141c.1133.0015.2265.0029.3397.0044v-1.816Z"/>
  <path d="M71.2715,190.8876c-.8873.3618-1.4851.6056-2.0131.821-.4069-.9666-.7583-1.8014-1.1097-2.6361l.1685-.257c.9259.6494,1.8517,1.2988,2.9543,2.0722Z"/>
  <path d="M9.7457,20.6596c-1.2801-.2422-2.243-.4244-3.2181-.609.238-1.0613,1.1856-1.4177,1.9024-1.3061.4653.0725.7835,1.0911,1.3157,1.9151Z"/>
  <path d="M10.6052,9.5191c.5481-.0614,1.0972-.1808,1.6439-.1708.8721.0159,1.7524.0626,2.6087.2132.3055.0537.5778.4252.8066.7006.0591.0712-.0566.3972-.1775.4783-.1211.0812-.4752.0623-.5119-.015-.7391-1.5583-2.1389-.4423-3.1743-.7853-.3435-.1138-.7671.0143-1.1541.0318-.0138-.1509-.0276-.3019-.0414-.4528Z"/>
  <path d="M13.9404,22.8008c.6918.4991,1.4028.976,2.0481,1.5294.0704.0604-.2371.5623-.3693.8595-.2628-.1718-.7753-.4094-.7501-.5053.2689-1.0228-.5163-1.2215-1.2106-1.5067.094-.1256.1879-.2512.2819-.3768Z"/>
  <path d="M42.0857,95.454c.5059.7212.7927,1.1302,1.1836,1.6874-.6494-.0735-1.1273-.1275-1.7362-.1964.175-.472.3231-.8716.5526-1.4909Z"/>
  <path class="b" d="M21.127,50.8326c-.2483-1.2491-.4967-2.4983-.7741-3.894.5875.0482.8816.0723,1.6008.1313-.4947-.5626-.7658-.8709-.9889-1.1247.2032-.3095.4278-.6865.6897-1.0354.1262-.1681.3305-.3995.4855-.3894.155.0102.4039.2755.42.4471.1188,1.2626.2107,2.5287.2683,3.7957.0387.851.0074,1.7051.2327,2.5947.0362-.4063.0415-.8189.1219-1.2162.0393-.1942.2185-.3601.3344-.5388.1564.1411.4442.2782.4486.4238.0366,1.2052.0207,2.412.0207,3.6184l-.3706.0874c-.2195-.445-.439-.8901-.6874-1.3936-.8749.6973-.4801,1.5101-.2919,2.2197.5058,1.9065.2139,3.6999-.6966,5.3881-.6425,1.1913-.6238,1.837.3154,2.6733.446.3971.9814.7417,1.291,1.2283.2272.3571.2722.9369.1649,1.3577-.0574.2248-.5977.4088-.9413.4558-.3821.0522-.7883-.0723-1.2387-.1265v2.8388c-.1172.047-.2343.094-.3515.141-.1857-.3512-.5379-.7071-.5284-1.0529.0417-1.5196.2263-3.0352.2699-4.5548.0112-.3914-.3017-.7922-.3273-1.1875-.0525-.4661-.1057-.9321-.1574-1.3982-.0557-.5022-.1316-1.0033-.1601-1.5071-.0523-.9232-.1686-1.8571-.0793-2.769.0587-.5994.5-1.1517.6422-1.7553.1261-.5351.3071-1.4395.0626-1.6123-.9591-.6782-.6134-1.0155.136-1.4378.1587-.0894.2605-.28.3886-.424-.0999.0055-.1998.0109-.2997.0164Z"/>
  <path class="b" d="M20.4669,69.8847c.4727-.5827.7029-.6821,1.3082-.0652,2.3786,2.4243,1.9979,5.3596,1.7683,8.2933-.0243.31-.227.6446-.1555.9176.71,2.7087.2225,5.4046.0481,8.1188-.1403,2.1827.0302,4.3843.0267,6.5775-.0022,1.315-.5846,2.0259-1.8156,2.287-.1906.0404-.4155-.081-.6245-.1275.0712-.208.0882-.4677.2259-.6122.2152-.2256.5655-.3294.7589-.5664.1821-.2232.3812-.7634.3237-.8032-1.3624-.9421-.3579-2.2833-.5679-3.4058-.1018-.5445.1991-1.1645.3439-1.8797-.1687-1.1807-.5615-2.5615-.509-3.925.0589-1.5296.5188-3.044.8099-4.5639.022-.1151.1585-.286.1247-.3225-.7972-.8632.0344-1.9053-.315-2.8205-.0885-.2319-.1122-.589.0068-.7823.4575-.7432.3428-1.3208-.2858-1.9053-.1707-.1588-.2479-.5893-.1653-.8233.7207-2.0419.6032-2.4243-1.3063-3.5914Z"/>
  <path class="b" d="M67.9483,172.4947c-1.5559,1.0793-2.888,2.0963-4.3181,2.9485-.5515.3286-.69.5841-.6502,1.1835.0584.8782.2504,1.7587-1.2354,1.9182-.6941.0745-1.2822,1.1807-1.9073,1.83-.1924.1998-.3052.5161-.5304.6357-.3558.189-.7757.2571-1.1685.3763-.0523-.364-.2543-.7933-.1295-1.0802.4254-.9786.4706-2.2979,2.0939-2.3186.3528-.0045.8813-.7567,1.005-1.2465.2809-1.112.6153-1.9786,1.9332-2.2256.5194-.0974.9114-.7512,1.4229-1.044.8481-.4854,1.7377-.9024,2.6314-1.2993.1374-.061.3903.1386.853.322Z"/>
  <path class="b" d="M19.5372,4.974c.1163-.4149.1186-1.0746.3629-1.1818,1.0616-.466,2.1764-.8525,3.3088-1.0952.4656-.0998,1.0244.2361,1.4628.353.8059-.1612,1.6289-.3259,2.4519-.4906.1114.163.2227.3259.3341.4889-.6496.3773-1.2992.7546-1.9488,1.1318.1144.1602.2287.3204.3431.4806h1.4514c.0029.1044.0059.2088.0088.3132h-7.7748Z"/>
  <path class="b" d="M38.6306,156.9711c1.0064,1.1463.9739,9.3322-.092,11.2962-.0881-.6251-.1714-.9635-.1778-1.3032-.0397-2.1322.1342-4.2928-.1636-6.3869-.1813-1.2747.129-2.3154.4333-3.6061Z"/>
  <path class="b" d="M22.6911,43.1248h1.2127v1.5684c-.67-.2731-1.583-.36-1.82-.8064-.3893-.7334-.3572-1.6979-.4605-2.57-.0188-.1583.2848-.392.2369-.5042-.7084-1.6582.2895-1.558,1.3577-1.308.2656.0622.6461.3319.6803.552.0941.6054.0325,1.235-.2208,1.9105-.1227-.5195-.2454-1.0389-.3681-1.5584-.1331.0068-.2662.0136-.3993.0204-.0701.8626-.1401,1.7252-.2189,2.6955Z"/>
  <path class="b" d="M52.9368,175.9046c-1.8463,1.5997-7.4406,1.0968-9.0028-1.1042,1.4488.4825,2.8691,1.2025,4.3544,1.3816,1.52.1832,3.1037-.1635,4.6484-.2774Z"/>
  <path class="b" d="M59.9162,100.1069v3.975c-1.1066-.5823-2.1441-.9823-3.0204.137-.4774-.2323-.9138-.4446-1.3502-.657.0083-.0785.0165-.157.0248-.2355.8393,0,1.6804-.0346,2.5174.0093.9185.0481,1.1684-.4055,1.145-1.237-.0192-.6804.0774-1.364.1227-2.0462.1869.0181.3738.0363.5606.0544Z"/>
  <path class="b" d="M19.2855,7.7551c.3574-.1329.7147-.2658,1.0663-.3965-.143-1.209.5765-1.9909,1.4416-1.5227.3356.1816.5403.7157.6533,1.1305.0331.1214-.4317.4281-.7082.5738-.4617.2434-.9415.4772-1.4413.6145-.3108.0853-.6724-.0146-1.0112-.0314-.0002-.1227-.0004-.2455-.0006-.3682Z"/>
  <path class="b" d="M39.4563,7.8736c-.5306.5832-.8349,1.225-1.2278,1.285-.7982.1218-.8798-.6264-.8686-1.2326.0119-.6473-.1008-1.5456.893-1.4312.3813.0439.6857.7566,1.2034,1.3788Z"/>
  <path class="b" d="M39.2253,114.8264v6.1516c-.4448-.3955-.7343-.5367-.7289-.6657.0759-1.8264.1919-3.6511.2982-5.4762.1436-.0032.2872-.0065.4308-.0097Z"/>
  <path class="b" d="M36.3225,16.7488c-.7267-.1701-1.139-.2666-1.5624-.3657.2181-.7541.459-1.2566,1.3623-.9478.207.0707.6011-.4072,1.0081-.705.1219.1689.3768.5221.6612.9161-.4979.489-1.9092-.6775-1.4692,1.1024Z"/>
  <path class="b" d="M49.9605,103.61c-.9168-.1691-1.2665-1.772-.3275-3.4997.1083,1.1569.2165,2.3139.3275,3.4997Z"/>
  <path class="b" d="M94.6661,184.3102c-.6112,1.0933-1.7335,1.2067-2.8268,1.6168.293-1.14,1.1665-1.5816,2.8571-1.584.0008.0005-.0303-.0327-.0303-.0327Z"/>
  <path class="b" d="M33.4257,131.5145c-.3904-.3503-1.0733-.6733-1.109-1.0568-.0693-.7431.5566-.9359,1.3185-.7219.0649.4642.133.9515.2012,1.4387-.1369.1133-.2738.2267-.4106.34Z"/>
  <path class="b" d="M38.5584,124.7597c.0574-.9809.1147-1.9618.1721-2.9427.2108.0152.4216.0304.6324.0457-.0684.9794-.1369,1.9588-.2053,2.9382-.1997-.0137-.3995-.0275-.5992-.0412Z"/>
  <path class="b" d="M39.1837,136.8644c-.2571-1.19-.8991-2.3683-.3423-3.5319.1141.0008.2282.0017.3423.0026v3.5294Z"/>
  <path class="b" d="M27.9586,7.5131c-.6913-.4545-1.3827-.9091-2.0855-1.3712.864-.6127,1.4414-.3537,2.2716,1.0132-.062.1193-.1241.2387-.1861.358Z"/>
  <path class="b" d="M19.6066,6.0594c-.4413.4208-.8826.8416-1.4935,1.4241-.0799-.4852-.3168-1.2424-.1953-1.3053.4987-.2579,1.1066-.3044,1.6744-.4287.0048.1033.0097.2066.0145.3099Z"/>
  <path class="b" d="M24.3148,165.1527c.3141-.3927.5071-.6339.7001-.8752.2032.3262.4878.6325.574.9872.0407.1674-.299.4275-.4664.6455-.2384-.2235-.4767-.4471-.8078-.7575Z"/>
  <path class="b" d="M39.1387,126.8241v2.7594c-.1117-.9316-1.1001-1.8121-.3736-2.797.1245.0125.2491.0251.3736.0376Z"/>
  <path class="b" d="M45.5643,189.5802c-.1076.2509-.1797.5265-.3322.7461-.1707.2458-.3871.4933-.6427.6261-.0753.0391-.5349-.38-.5016-.4652.1135-.2907.3208-.609.5826-.7586.2489-.1423.6111-.0863.9241-.1172.0007.0003-.0302-.0312-.0302-.0312Z"/>
  <path class="b" d="M80.8377,194.4733c.6015-.4555,1.203-.9109,1.8045-1.3664.1093.1563.2185.3126.3278.469-.6126.4398-1.2251.8795-1.8377,1.3193-.0982-.1406-.1964-.2813-.2947-.4219Z"/>
  <path class="b" d="M25.4751,150.8125c-.2099.1541-.4197.3083-.6296.4624-.1779-.2455-.471-.48-.4958-.7402-.0186-.1948.2949-.5838.4846-.5998.322-.0272.663.1715.996.2752-.1184.2008-.2369.4016-.3553.6023Z"/>
  <path class="b" d="M38.9017,153.7165v1.816c-.1133-.0015-.2265-.0029-.3397-.0044v-1.8141c.1133.0008.2265.0017.3397.0025Z"/>
</svg>