<?xml version="1.0" encoding="UTF-8"?>
<svg id="a" data-name="Calque_1" xmlns="http://www.w3.org/2000/svg" viewBox="0 0 141.803 190.0062">
  <defs>
    <style>
      .b {
        fill: #fff;
      }
    </style>
  </defs>
  <path d="M19.2619,162.4299c-.2362-.2039-.4863-.5956-.7063-.5794-.9581.0705-1.1123-.4236-1.1825-1.2302-.0592-.681-.3649-1.3405-.5616-2.0095-.1149-.0059-.2298-.0117-.3447-.0176-.0922.2399-.3131.5182-.2548.7131.292.9771.6864,1.9235.9803,2.9001.1014.337.1591.8202-.0066,1.0827-1.0181,1.6127-2.1285,3.1668-3.1612,4.7707-.5362.8327-.9652,1.7338-1.4636,2.5919-.2555.4398-.5571.8527-.883,1.3458-.5766-.5661-1.0604-1.0698-1.5751-1.5397-.7869-.7184-1.5264-1.563-2.7894-1.2159-.1356.0373-.3626.0079-.4496-.0836-1.5815-1.6608-3.3497-.3245-5.0246-.2756-.2192.0064-.6231.6637-.5912.9845.0934.9373.364,1.8569.5747,2.827-1.304-.2717-2.0687-1.3169-1.7508-2.5085.2429-.9105.6871-1.7755,1.1058-2.6293,1.2192-2.4862,2.2842-5.0747,3.7582-7.4022,1.6952-2.6767,4.2565-4.5805,6.8628-6.3547.8896-.6056,1.7929-1.2015,2.7387-1.7114,1.3222-.7128,1.8951-.2788,2.7712.9349.6777.9388,1.8208,1.6074,2.872,2.1875.7153.3947,1.6474.3753,2.4472.6458.4489.1518,1.0341.4289,1.192.8038.3358.7975.7819.7032,1.4281.5384,1.764-.4498,2.461-1.7405,2.7674-3.3641.1037-.5492.1773-1.1043.2541-1.6581.2503-1.8066-.1856-2.7065-1.8632-3.506-2.1195-1.0101-4.2687-1.9592-6.4183-2.9042-.9992-.4393-1.3844-1.1219-1.076-2.1844,1.1076-3.8154,2.2298-7.6267,3.3096-11.45.9492-3.3611,1.8189-6.7448,2.7803-10.1023.765-2.6718,1.6976-5.2975,2.405-7.9834.7197-2.7327,1.2246-5.5211,1.879-8.272.7186-3.0206,1.5219-6.021,2.2486-9.0398.7273-3.0215,1.3377-6.0725,2.1233-9.0781.8457-3.2353,1.8783-6.4214,2.7461-9.6513.4947-1.8414.7612-3.7435,1.239-5.5901,1.1279-4.3586,2.3333-8.6971,3.484-13.0498,1.0873-4.1127,2.1209-8.2397,3.225-12.3478.6188-2.3022,1.3958-4.5627,1.9833-6.8722.4378-1.721.625-3.5047,1.0311-5.2352.9099-3.8773,1.867-7.7438,2.8428-11.6051.7391-2.9248,1.6148-5.8175,2.2652-8.7609.2198-.9948.1788-2.1932-.1767-3.1346-.5162-1.3668-.6184-2.7111-.1567-3.9777C53.9362,2.5058,57.6428-.6212,63.418.1042c.7024.0882.8852.401.7396,1.0353-.312,1.3594-.6719,2.7112-.9061,4.0842-.286,1.6767-.5223,3.3669-.6657,5.061-.0874,1.032,1.0111,1.7384,2.041,1.8128,1.3227.0956,2.4238-.2425,3.5634-.864,1.0881-.5934,2.1674-.2805,3.0597.5952.396.3886.8058.7632,1.2861,1.2165-.307.232-.6213.4695-.9061.6847,2.2871,2.6446,5.4766,2.6118,8.3974,3.3481.0592-.1331.1184-.2663.1777-.3994-.3258-.2337-.6516-.4675-.9765-.7006.0504-.0837.0961-.2042.1243-.2002,3.0338.4276,5.6984,1.7255,8.184,3.4602.695.4851.6132.9918.2511,1.6401-.3626.6493-.7132,1.3316-.8977,2.0439-.101.3899.0228.9691.2681,1.295,1.0599,1.4075,1.187,2.5179.2998,4.1095-.3196.5734-.5454,1.1607.1741,1.5428.9202.4887.9191,1.2141.681,2.0422-.2224.7737-.105,1.3547.6328,1.8561.3083.2095.514.8115.4909,1.2194-.0546.9627.289,1.5539,1.1394,2.0011.6189.3254,1.2271.7657,1.6735,1.2953.3602.4274.4714,1.0648.7283,1.6958-.8257.1644-1.4123.1714-1.8834.4082-.4106.2065-.9304.6394-.984,1.0298-.162,1.1789-.4974,2.1886-1.3351,3.0887-.2042.2194.1688.9766.2765,1.4866.433-.1254.8661-.2508,1.496-.4333.3583.4456.0771,1.2253-.449,1.6952-1.2137,1.0842-1.0919,2.4777-.8788,3.7522.2638,1.5777.9391,3.0825,1.3574,4.6401.2134.7946.279,1.6331.3677,2.4564.2905,2.6968.4916,5.4056.8729,8.0891.1557,1.0961.7576,2.1214,1.0209,3.2118.2088.8647.3581,1.7944.2688,2.6681-.1212,1.1852.4309,1.8969,1.2826,2.4915,1.1251.7854,2.0021,3.3717,1.4694,4.6563-.2844.6858-.7784,1.2832-1.078,1.9645-.1789.407-.2737.913-.2177,1.3504.2202,1.718.4849,3.4319.7918,5.1367.2688,1.4933.6015,2.9757.9342,4.4565.2242.9975.4975,1.984.8144,3.2336-.3865.6025-.753,1.4128.3972,2.2962.3774.2899.2734,1.1823.4363,1.7865.0904.3356.1881.771.435.9462,1.5969,1.1328,1.4068,2.6949,1.1572,4.308-.0711.4592-.0109.9387-.0109,1.6251.1684.0467.5147.1428.8595.2387-.1955.4106-.5958.8634-.5232,1.2197.0674.3308.6395.5587,1.0087.8469-.1625.0585-.4177.1503-.8302.2988.295.2789.7052.565.668.6464-.8517,1.8622.6901,3.7317-.0445,5.5714-.0408.1021-.2502.1367-.5481.2868-.2071-1.1844-.2472-2.3137-.6145-3.324-.7342-2.0191-.1928-4.3717-1.6683-6.3109-.6561.4432-1.2599.8511-1.9542,1.3201.0641.4603.1178.9678.2079,1.4687.2149,1.1943.4784,2.3807.6626,3.5795.1622,1.0554.2026,2.1299.3711,3.184.207,1.2953.1926,1.3351-1.0014,1.1011-.0918-1.1698-.142-2.301-.2816-3.4211-.0973-.7807-.3674-1.5395-.4711-2.3199-.1758-1.3232-.5246-2.5187-1.9787-3.0459.4142-.5886.701-.9962.9967-1.4163-1.3592-.5613-1.2322-.6001-.5631-1.9228.3655-.7225.1751-1.7674.106-2.6569-.0607-.7821-.2711-1.5581-.4692-2.3229-.3549-1.3703-.8458-2.7124-1.104-4.099-.3103-1.6663-.3966-3.373-.652-5.0512-.4751-3.1221-1.0295-6.2322-1.5006-9.3548-.4951-3.2819-.8808-6.5809-1.4103-9.8568-.3649-2.2574-.9453-4.4793-1.3354-6.7334-.4973-2.8741-.8874-5.7665-1.3482-8.6471-.2573-1.6084-1.2959-2.0328-2.7619-1.3204-1.0596.5149-.7851,1.4637-.4113,1.8938,1.4535,1.6724.4245,3.5091.7214,5.2364-.0987.0172-.1974.0344-.2961.0516-.2811-1.5134-.5646-3.0263-.8426-4.5402-.2628-1.4313-.9065-1.6489-2.1336-.8201-.3249.2194-.8841.2932-1.2656.1854-.825-.2331-1.3567-.108-1.6976.7348-1.3981,3.4569-3.064,6.7986-3.6566,10.5603-.4152,2.6361-1.6582,4.9825-3.6065,6.8699-1.2534,1.2142-1.9233,2.6891-2.3329,4.3586-.7116,2.9011-1.4935,5.7853-2.2778,8.6679-.5326,1.9574-1.101,3.9056-1.6868,5.8479-1.073,3.5577-2.1846,7.1038-3.2535,10.6628-.8229,2.7398-1.6131,5.4895-2.4017,8.2394-.3949,1.3772-.1468,1.7019,1.3311,1.739,1.7228.0433,3.4612-.0733,5.1641.1254,1.0483.1223,2.043.7046,3.0618,1.0803-.0277.1359-.0553.2718-.083.4077-.5604,0-1.1331-.0726-1.6776.0205-.5428.0928-1.4878.3194-1.5047.5439-.0543.7233.0089,1.6705.4421,2.1728,1.0444,1.2107,2.1335,2.3129,1.9359,4.3252-1.6359.1866-3.3241.3792-5.0961.5814,0-.5413-.0597-.7582.0101-.9189.3425-.7887.3483-1.4732-.4756-1.9721-.814-.4928-1.5916-.9135-2.465-.0388-1.6721,1.6747-3.9059,2.0726-6.0925,2.4988-.9565.1864-2.0204.3477-2.6064-.8293-1.5384,1.3415-3.2138,1.8475-5.1651,1.3753-1.5045-.3641-2.9439.1917-4.0952.9464-1.429.9367-2.9991.9541-4.5146,1.3442-1.062.2734-2.2871.2646-3.1655.8174-1.3225.8323-2.4659.5572-3.7231.1097-.4442-.1581-.9163-.3533-1.371-.3421-.9137.0224-1.754.1837-1.5829,1.4927.0679.5194-.168,1.0786-.2655,1.6196.1287.0333.2575.0666.3862.0999.2547-.8052.5095-1.6103.7804-2.4664.6599.6279,1.3482,1.1059,1.7976,1.7506.7272,1.0432,1.7599,1.2626,2.8788,1.4137,1.5982.2158,1.6192.2726,1.4708,1.8693-.024.2579.1839.5374.2846.807.3006-.1323.6556-.2054.8846-.4158.1821-.1674.1944-.5099.3112-.7612.1102-.237.2583-.4564.3759-.6596,1.7881.6058,3.4229,1.3838,5.3313.7783,1.0318-.3274,2.1715-.2995,3.2391-.5374.36-.0802.8035-.42.9428-.7526.822-1.9634,2.5792-2.9184,4.9915-2.3851.1079.0239.2322-.0267.3419-.0417.6686-1.7105.9844-1.9499,2.0629-1.637-.0632.4588-.125.9084-.1869,1.358.413-.3431.8562-.6564,1.2298-1.0381.3295-.3366.5814-.7493,1.0716-1.3986.1058.7396.1537,1.0751.2382,1.6655.5231-.2949.91-.5524,1.3279-.7417,1.8188-.8239,3.5574-1.9817,5.7323-1.3649.2175.0617.5104-.1574.7719-.234,1.4895-.4359,3.0973.384,4.5521-.428,1.8628,1.3546,3.2265-.0099,4.7162-.8342,1.9315-1.0689,3.8017-2.1164,6.2539-1.5454.9436.2197,2.1566-.5711,3.2069-.9995.9998-.4078,1.4624.115,1.9083.8555.1952.3241.5559.8746.7109.8332.4023-.1074.8018-.4298,1.0759-.7688.5062-.6259.9219-1.3251,1.4022-2.0334,1.2451,1.3031,1.7885,1.3386,3.9097.2789-1.164.0509-2.0851.0912-3.0061.1315-.0433-.1706-.0865-.3413-.1298-.512.325-.1677.7264-.5483.9609-.464.7784.2797,1.5373.1135,1.6697-.5656.0913-.4683-.5729-1.0876-.9097-1.6331-.0786-.1273-.1992-.2286-.4466-.5053,1.1722-.2872,2.5481.0541,2.8749-1.485.5797.8071,1.0207,1.4212,1.6602,2.3115.7186-.0552,1.7152-.1784,2.7125-.1842.3689-.0021.8396.1835,1.0751.4503.1679.1902.1236.7056-.0066.9942-.3215.7122-.7471,1.3774-1.1813,2.1516.3044.0443.5978.087.8912.1297.0218.1498.0437.2995.0655.4492-1.9605.3913-3.921.7826-5.8457,1.1668.7723.6344,1.4266,1.1733,2.0824,1.7103,1.1421.9352,2.377,1.1627,3.7988.6575.6961-.2474,1.4736-.2652,2.1122-.3701-.6291-.7948-1.2486-1.5774-2.107-2.6619,1.0969.0899,1.884.1545,2.7927.229-.1681.3018-.2894.5197-.4505.809h1.4506l.0338.1345c-.3169.1144-.6338.2289-.9507.3433.0042.1422.0085.2844.0127.4265.5645,0,1.1599.1003,1.6754-.0586.1632-.0503.1197-.7924.1562-1.2191.0098-.1148-.0222-.2378-.0558-.3508-.158-.5311-.2957-1.4987-.491-1.511-.7003-.0442-1.4311.2009-2.13.4059-.3732.1095-.7048.3611-1.0552.5486-.068-.1234-.136-.2467-.204-.3701.2738-.1936.5247-.4396.8256-.5714,1.1419-.5003,2.3273-.9087,3.4411-1.4628.5974-.2972,1.0714-.8359,1.6241-1.2336.1763-.1268.422-.1813.6441-.2154.592-.0909,1.1885-.1526,1.7411-.3811.591.0842,1.182.1685,1.773.2527-.0321.0342-.0643.0684-.0964.1026.3571.198.7655.3399,1.0582.6081.3692.3383.9199.7933.9012,1.1738-.0374.7626-.6025.3495-1.0663.2593-.9254-.1799-1.8777-.2206-2.819-.3188.0389.1036.0778.2072.1167.3107-.6755.2696-1.3537.5323-2.0253.8112-.4042.1678-.798.3606-1.1965.5421.3269.2918.6538.5837.788.7035-.0473.5357-.0751,1.0736-.1486,1.6052-.0501.3625-.106.9979-.2589,1.0295-1.28.265-1.9957.97-2.109,2.6215,1.0578-.0722,2.0843-.0729,3.0848-.235.6619-.1072,1.1731-.4601,1.3734-1.2736.3579-1.4538,1.8579-1.1042,2.7386-1.7667.09.1113.1799.2225.2699.3338-.6786.7344-1.444,1.4082-2.0112,2.2204-.5606.8028-.921,1.7455-1.4022,2.6916.2541.1405.4489.2462.6418.3552.5218.2946,1.0429.5906,1.5643.8861-.4367.5829-.8506,1.1852-1.3216,1.739-.1824.2145-.4941.319-.8533.5387.5347.4474.9446.7903,1.4029,1.1736-.8357.5423-.7857,1.0356-.4761,1.936.4793,1.3938.4457,2.9601.6695,4.4473.1483.9852.3484,1.9638.5604,2.9378.1071.492.3851.9593.4255,1.451.1566,1.9065,1.1141,3.6516,1.0269,5.6229-.033.7463.4158,1.5094.6144,2.2728.0876.3365.0991.6927.1678,1.21.6135-.0483,1.2779-.1007,1.9423-.1531.0277.0734.0554.1468.0831.2202-1.1047.5338-2.2094,1.0676-3.314,1.6014.026.0957.0521.1914.0781.2871.3397.0408.6794.0816,1.1557.1389-.374.8326-.7153,1.5924-1.181,2.629,1.5722-.6126,1.827-2.1953,3.4133-2.3521,1.1171-.1104,1.9771-1.5955,3.4135-1.0217.0491,1.2471-.6844,1.969-1.5182,2.6752-.3514.2976-.5488.7772-.8163,1.1741.4159.0958.8318.1916,1.2953.2984-.1646.1785-.3161.4213-.5331.565-1.2065.7991-1.2111.7896.0442,1.6604.0932.0647.1611.1658.18.4433-.3998-.1416-.7918-.3502-1.2026-.3982-.2267-.0265-.4849.2164-.729.3378.1579.2583.2564.6474.4845.751.7532.3422,1.5531.5812,2.5923.9514-1.6303,1.5649-1.0718,3.3449-1.1034,5.0231-.0053.2792.1986.5624.3058.8437.2709-.1225.5873-.1916.8048-.3769.9624-.8196,1.8209-1.8634,3.3404-1.2219.2563.9824,2.471,1.8555,3.7371,1.4025-.1086-.4304-.2476-.8558-.3177-1.2923-.0748-.4654-.0845-.9414-.1294-1.4959,1.1849-.2945,1.4728.7939,1.6559,1.388.6242,2.0252,2.1969,2.5948,3.9584,3.147,1.2556.3936,2.4166,1.0918,3.6155,1.6631.7133.3399,1.4183.6971,2.1271,1.0466l-.037-.0343c.8887.6901,1.7773,1.3802,2.666,2.0703.9161.5954,1.8322,1.1907,2.7484,1.7861.5221.3523,1.0448.7038,1.5654,1.0582.0651.0443.1766.112.1706.1558-.2687,1.9722,2.1055,2.4907,2.2957,4.1863.0493.4399.0542,1.0128-.1809,1.3336-.8664,1.1822-1.9479,1.8069-3.5766,1.6179-2.4153-.2803-5.0952-.5622-7.1233.8129-3.0291,2.0539-6.431,2.266-9.7747,2.9046-.8364.1597-1.7354-.0256-2.6055-.0221-2.3446.0095-4.6981.1708-7.0313.0176-2.4744-.1624-4.9363-.2766-7.3356-1.3264-2.2519-.9853-4.718-1.4765-7.2958-1.2632-2.4081.1993-4.6419-.6314-6.6452-1.978-.4478-.301-.8115-.7518-1.1522-1.1824-.5466-.6909-.2944-1.3799.3591-1.7283.8967-.4782,1.876-.9419,2.94-.306.2205.1318.6491.278.7579.1768.936-.8716,2.0482-.3634,3.0755-.4953.457-.0587,1.024-.3129,1.2845-.6672,1.1269-1.5324,2.1794-3.1215,3.2079-4.7227.1994-.3104.2212-.7649.2395-1.157.1348-2.8842-.119-5.7343-.6446-8.5768-.2418-1.3075-.1555-2.6725-.321-3.9986-.1022-.8188-.4958-1.6023-.5887-2.421-.2487-2.1903-.3817-4.3936-.6154-6.5859-.0613-.5748-.3349-1.1249-.4884-1.6924-.3968-1.4668-.781-2.937-1.2046-4.5356,1.6581.4384,2.4611,1.7723,2.6521,3.637.2257,2.2036.5956,4.3925.9037,6.5876.0166.1184.0743.242.0548.3529-.5279,2.9941,1.1945,5.5451,1.6407,8.3465.0029.0182.0713.0261.4029.1373.5752-2.6015.8149-5.211,1.0471-7.8313.2559-.0538.5461-.1149.8363-.1759-1.3348-.2396-1.1325-1.0881-.8022-1.9437,1.0156.2651,2.8827-.4251,3.4266-1.3651.1015-.1754.0049-.495-.0594-.7321-.3399-1.2544-.5755-2.5071-.6665-3.8223-.1205-1.7402-.5339-3.4627-.8804-5.1809-.0388-.1923-.4576-.4316-.7048-.4371-1.1408-.0255-1.7463,1.042-1.3199,2.1122.0822.2063-.3415.5687-.3618.8706-.0477.7066.0746,1.4281-.0081,2.1275-.0385.3257-.3933.614-.7959,1.1953-.5875-2.2066-1.0681-4.0119-1.5626-5.8693.4615-.1781.9196-.3548,1.3777-.5315.0073-.1311.0147-.2622.022-.3932-.5551-.1015-1.1102-.203-1.7843-.3263-.75-1.513-1.0472-3.2393-1.2005-5.2664,1.1889.9185.2031,3.2695,2.4594,2.9023-.0568-1.2278-.0759-2.324-.1827-3.4117-.0234-.2379-.3231-.5037-.561-.651-.2718-.1682-.6166-.2182-.9297-.3196.0095-.1707.0189-.3415.0284-.5122.3898,0,.791.0598,1.1668-.0126.7579-.1461,1.5019-.3642,2.2517-.5526-.1231-.456-.1526-.9788-.4097-1.3391-.1248-.175-.7595-.1865-1.02-.0313-1.6872,1.0051-3.234-.0221-4.8481-.2194-4.2067-.5142-8.4017-1.1894-12.6584-.1635-1.7799.429-3.5909.1374-5.2916-.7863-.6405-.3479-1.5267-.2672-2.3051-.3321-1.6992-.1417-3.4126-.1709-5.0968-.4104-.7741-.1101-1.4763-.8223-2.2409-.8826-1.4793-.1167-2.9882-.0465-4.4684.1059-.9049.0932-1.6766.2227-2.0091-.8595-.7948.2266-1.5478.4413-2.5667.7317,1.2279.2094,1.9848.7212,1.7824,1.8408-.159.8795-.4868,1.7361-.8127,2.5745-.1532.3941-.4055.8247-.7391,1.0595-1.0068.7088-.6088,1.4674-.1071,2.1616,1.2551,1.7367.8888,4.78-.8883,5.9445-1.0489.6873-2.2412,1.1673-3.3981,1.6739-.8881.3889-1.5554.9141-1.3489,1.9634.3112,1.5811-.3144,2.79-1.3533,3.8713-.2479.258-.5923.4428-.7803.7337-.2163.3347-.3083.7498-.4543,1.13.4166.1192.8544.3871,1.246.3312,1.4949-.2134,2.9674-.5945,4.4649-.7747.5053-.0608,1.0709.2608,1.5882.4612.3484.135.6399.4487.9928.5343.936.227.9748.7406.4767,1.3844-.4598.5943-1.0259,1.1051-1.5095,1.6825-.9348,1.1159-1.8606,2.2401-2.7581,3.386-.4856.62-1.0222,1.2438-1.3143,1.9567-.2032.4959-.1327,1.1724.0065,1.7197.1223.4809.5019.8993.7823,1.3361.4078.6353.3014,1.0758-.2563,1.6563-2.3272,2.4219-4.5716,4.9234-6.8523,7.3902-.6038.653-.6476,1.1056.3816,1.2523,2.6314.3752,5.2639.7434,7.8913,1.145.3693.0564.7125.2841,1.0677.4326-.0245.0969-.0491.1937-.0736.2906-.163.0178-.3292.0213-.4883.0565-.2638.0582-.6098.0612-.7571.2304-.1201.138-.104.5828.0292.7239,1.1377,1.2051-.0732,2.0706-.4267,3.0384-.1582.4332-.5031.7981-.7504,1.1743.9553,1.2482.42,2.8334-1.1041,3.0656-1.3258.202-2.6946.1504-4.0446.155-.8877.0031-1.5045.2063-1.7361,1.2063-.2426,1.0472-.9758,1.601-2.0976,1.5747-.7858-.0184-1.5724-.0036-2.3848-.1772.8645-.2064,1.7291-.4129,2.5936-.6193.0065-.1001.013-.2002.0194-.3003-.2986-.0653-.5976-.1885-.8958-.1866-2.2295.0142-4.4592.0894-6.6883.0747-2.5031-.0164-5.0054-.1277-7.5086-.159-2.1124-.0264-4.228-.0586-6.3374.0283-1.402.0577-2.8049.5015-4.1898.4299-.9763-.0505-1.923-.6758-2.8825-1.0443,1.8678-.0555,3.7352-.1112,5.6026-.1668.0419-.1457.0839-.2915.1258-.4372-.3612-.2115-.991-.6597-1.044-.5995-1.0681,1.2129-2.4182.3819-3.6084.5829-.3745.0632-.6982.4275-1.0452.6539-.5807-.1933-1.1486-.4701-1.7449-.5614-1.0604-.1624-2.1412-.1857-3.2074-.3161-1.3711-.1676-2.4527-1.2897-2.6395-2.6739-.1591-1.1785-1.1188-1.9097-2.3048-1.8088-.5807.0494-1.1691.0085-1.754.0085-.0991.1825-.1982.365-.2972.5475.3111.1299.6223.2598,1.0259.4283-.9429,1.0626-1.7845,2.0597-2.6921,2.9926-.1817.1867-.615.1283-.9324.1829.0009-.2895-.0897-.6193.0171-.8622.9086-2.0665,1.7878-4.1505,2.8137-6.1588.5325-1.0423,1.3601-1.9309,2.0248-2.909.9948-1.4639,1.9448-2.9585,2.9507-4.4146.5576-.8071,1.3198-1.4957,1.7618-2.355.8838-1.7183,2.552-2.8834,3.0552-4.9282.2614-1.0622.9463-2.3167,2.2109-2.8567-.1918.3609-.3831.7217-.4946.9322.5418.5075.8972.8978,1.3133,1.2061.2135.1581.7565.2722.7752.2319.2712-.5847.4844-1.1971.6884-1.8105.0136-.0409-.1583-.1435-.2473-.2203-.2907.1883-.5617.3638-1.0086.6533.3048-1.343-.2462-1.3552-1.059-.9624ZM104.0388,178.7598c.0266-.1971.1078-.4064.0672-.5886-.0631-.2828-.2091-.547-.32-.8191-.2234.1753-.4705.3279-.6656.5306-.4546.4722-.8841.9686-1.5169,1.6689.9938-.3329,1.7315-.5801,2.4692-.8272-.424.4904-.8897.9516-1.2598,1.4799-.3378.4822-.5719,1.037-.9047,1.6586,1.3729.1754,2.4091.4652,3.4152.3834.7234-.0588,2.1869.0194,1.8967-1.1259-.346-1.3654-.6134-2.7103-.7395-4.1018-.0113-.1249-.187-.2349-.3822-.4646-.4059.3546-.8049.6504-1.1372,1.0082-.3417.3679-.6182.7964-.9223,1.1975ZM54.9505,23.3129c-.0598.1663-.1196.3326-.1794.4989,2.2975.9332,4.5817,1.9015,6.8971,2.788,1.6682.6387,3.3698,1.1946,5.0713,1.7411,3.2146,1.0324,6.4349,2.0482,9.6708,3.0108.247.0735.7922-.2522.924-.5251.2503-.5184.5018-1.183.3747-1.6925-.1096-.4394-.7444-.7476-1.2885-1.2426.6503.0292,1.1222.102,1.5797.0494.2306-.0265.5067-.2389.6267-.4459.083-.1431-.0014-.4697-.1226-.6297-.4973-.6561-1.0373-1.2797-1.6156-1.9806-.0781.0675-.3546.3066-.5353.4627-.3369-.506-.5634-1.2336-.9635-1.3468-.4731-.1338-1.0961.263-1.7284.452v-1.4716c-.6946.3497-1.1881.5982-1.6839.8479q-1.1122-1.6308-1.8487-.8949c-.8009-.167-1.435-.2993-2.1661-.4517-.0145-.1057-.0572-.4154-.1135-.8249.6748.1946,1.2363.3565,2.1289.6139-1.882-1.655-3.4206-.5064-5.1079-.2568.3597-.4506.7194-.9013,1.0791-1.3519-.061-.0834-.1221-.1668-.1831-.2502-.3805.2698-.8215.4842-1.1289.8208-.6267.6862-1.2326,1.0912-2.176.5247-.2952-.1773-.7492-.0899-1.1306-.1236-.0434.1348-.0867.2697-.1301.4045.5571.3175,1.0924.6858,1.6775.9385.6112.2641,1.2826.3856,1.9051.6276.5832.2267,1.1369.5294,1.7036.7986-.3743.1094-.6919.0874-.9935.0062-1.4272-.3842-2.8429-.8154-4.2807-1.1529-.2867-.0673-.8367.1098-.948.3328-.3761.7533-.9074.6051-1.5195.4733-1.2603-.2712-2.5293-.5024-3.7947-.7501ZM94.657,97.9919c-.1486.356-.3511.6636-.4023.9947-.2191,1.4176.6165,2.6287.8582,3.9613.0241.1327.6501.335.7942.2291.2829-.208.3619-.8171.6326-.8973,1.4101-.4173.7393-1.3618.5628-2.1116-.3243-1.3774-.795-2.7203-1.1166-4.0982-.154-.6596-.0411-1.3781-.1635-2.0491-.3115-1.7083-.6997-3.4025-1.0343-5.1069-.3775-1.9228-.6648-3.8661-1.1198-5.7697-.2381-.9961-1.0799-1.9291-1.0719-2.8857.0162-1.9303-1.2164-3.8404-.1274-5.7898.089-.1593-.0523-.4579-.1091-.6863-.2474-.995-.4547-2.0045-.7848-2.9718-.1022-.2996-.5499-.6794-.8334-.6744-.4746.0083-.9444.2961-1.4162.4663.1822.349.3369.7167.558,1.039.1114.1624.3431.2423.5586.3847-.2638.1601-.4337.2632-.6688.4059.3275.077.552.1297.7227.1698-.0699.5751-.205,1.112-.1876,1.6438.0762,2.334.9297,4.5436,1.0031,6.9102.0574,1.8509.7172,3.6825,1.0986,5.525.0457.2205-.0182.4665.0402.6813.4103,1.5088-.3407,3.2952,1.0919,4.5681.1176.1045.133.3679.1304.5566-.0127.9284-.0898,1.8579-.0613,2.7844.0233.7539.2368,1.417,1.2056,1.4768.1937.012.3692.3203.553.4919-.2033.1399-.3995.2923-.6129.4146-.1123.0644-.2547.0761-.6.1713.3799.1261.5256.1744.5.1659ZM110.4496,186.0881l.3354.0029c.1487-1.1926.2974-2.3853.4281-3.433,1.8964.2833,3.7997.565,5.7022.8526,1.2774.1931,1.8505-.4295,1.5407-1.6762-.1793-.7216-.3115-1.4573-.5326-2.1655-.2112-.6764-.4464-1.3609-.789-1.9762-.3272-.5878-.9201-.8512-1.5055-.3594-1.4821,1.2451-3.6911,1.6276-4.4557,3.731-.0047.0128-.1295-.0181-.1963-.0283-.2894-1.0224.9771-2.1979-.0602-3.1396-.1557.0087-.3114.0174-.4671.026v8.1656ZM22.162,173.8557c.0982.0431.1963.0862.2945.1293.196-.2123.4752-.3917.5741-.6424.5116-1.297,1.0133-2.6002,1.4517-3.9234,1.1105-3.3513,2.1881-6.7135,3.2735-10.073.8295-2.5672,1.6598-5.1342,2.4594-7.7108.0664-.2138-.0998-.4999-.1579-.7524-.2647.109-.6592.1458-.7678.3415-.2437.439-.4057.9471-.4864,1.4456-.0677.4183.1494.9007.0298,1.2899-.8851,2.88-1.7611,5.7656-2.7608,8.6069-1.1082,3.1496-2.3598,6.2485-3.5116,9.3833-.2214.6026-.2701,1.2686-.3985,1.9054ZM119.9047,183.8269c.8766,1.2095,1.4142,1.3297,2.4003.3794.9804-.9448,2.089-1.0846,3.2877-.9457.9182.1064,1.817.381,2.8958.6184-.0883-.4618-.0722-.7977-.2141-1.0417-.4446-.7642-3.156-1.834-3.9282-1.4546-1.4792.7269-2.8949,1.5833-4.4415,2.4442ZM47.8004,174.4309c-.1336-.1965-.2672-.393-.4007-.5894-.5466.2981-1.1582.5182-1.6271.9095-1.2464,1.0399-2.4614,2.1222-3.6323,3.2466-1.1976,1.1501-2.3401,2.3591-3.4747,3.5722-.1692.1809-.1633.5257-.2384.7947.1206.071.2412.1419.3618.2129l9.0114-8.1465ZM11.3411,159.352c-1.0928-.0167-2.137-.1645-2.2446,1.2986-.0347.4711-.4019.9407-.6849,1.3658-.566.8502-1.2455,1.6317-1.7429,2.5176-.2308.411-.1449.9999-.2025,1.5082.1576.0398.3153.0795.4729.1193,2.1159-1.821,3.0448-4.4387,4.402-6.8095ZM51.1135,117.2761c.1031.0377.2061.0754.3092.1131.8418-.8285,4.7437-14.8047,4.3586-15.787-1.5679,5.2647-3.1178,10.4693-4.6678,15.6739ZM61.1887,32.2141c-.0083.1118-.0165.2237-.0248.3355-.4122.118-.838.3677-1.2339.3269-.8608-.0889-1.099.2982-.7409.9483.5087.9235,1.1729,1.7613,1.7707,2.6357.1295-.017.259-.034.3886-.051.3377-1.2197.6753-2.4393,1.033-3.7315-.4742-.1844-.8335-.3241-1.1927-.4638ZM83.0969,52.5918c1.6612.1465,2.716-.9453,3.886-1.6097.7532-.4276.5027-.9742-.66-1.3424-.6041-.1913-1.2603-.2176-1.893-.3184.0517.5065.1034,1.013.1631,1.5982-.8656.119-1.5664.4596-1.4962,1.6723ZM52.0376,30.6142c1.2897.8513,4.2899.8906,5.2523.0259-.4419-.182-.8373-.3428-1.2311-.5077-.3993-.1671-.8046-.3222-1.1938-.5106-1.2262-.5936-2.0563-.3262-2.8274.9924ZM49.6786,172.1567c.0929.1002.1857.2004.2786.3006,1.915-1.7008,3.8299-3.4016,5.8924-5.2334-1.536-.3453-5.8047,3.3128-6.1709,4.9328ZM103.4874,185.379c-.0547,1.183,1.9968,2.518,3.7905,2.401-.0479-.4092.0293-.8955-.1657-1.2161-.8218-1.3511-2.1959-1.2636-3.6247-1.1849ZM50.8951,55.1478c-1.3561-1.4663-2.8901-2.1026-4.7704-1.8027.0349.4506.0678.8751.1221,1.5759,1.5546.0758,3.1015.1513,4.6483.2268ZM61.5642,83.2557c-.1933-.0622-.3867-.1243-.58-.1865-.8816,3.045-1.7633,6.09-2.6449,9.1351,2.1865-2.5882,2.0093-6.0105,3.2249-8.9486ZM21.7827,176.3318c-1.3856.7583-2.9627,6.1167-2.1597,7.3742.7199-2.4581,1.4398-4.9161,2.1597-7.3742ZM36.818,184.3386c-.1345-.141-.269-.282-.4034-.423-1.3361.2641-4.5218,2.7063-5.0038,3.8761,1.0095.1055,1.8567.0137,2.4617-.9682.3008-.4882.815-.8572,1.271-1.2338.5366-.4432,1.1145-.8362,1.6745-1.251ZM89.2851,65.4855c.2727.7472.5008,1.3719.8032,2.2007-.2006.4831-.5214,1.2559-.8903,2.1445h1.8726c.3088-3.0303-.1909-4.4287-1.7856-4.3452ZM43.8477,142.0872c1.0977-.7614,2.444-5.8515,2.0486-7.3228-.6844,2.5397-2.0376,4.7411-2.0486,7.3228ZM30.9535,143.7402c-.7208.2565-1.3472.2978-1.4432.5451-.3976,1.0243-.6724,2.1029-.9021,3.1808-.0511.2397.2644.5576.411.8395.274-.1739.7148-.2924.7938-.5309.3946-1.1905.6942-2.4125,1.1404-4.0345ZM43.7075,64.8485c-.1482.0778-.2963.1555-.4445.2333.0561.5805-.0404,1.2394.207,1.7217.3092.6027,2.4665.9564,3.3562.5286-1.1079-.8823-2.1133-1.683-3.1187-2.4837ZM44.0883,187.5718c-.459-.4342-.6501-.7053-.9114-.8469-1.272-.6895-3.368-.3084-4.727.8469h5.6384ZM33.8068,135.5947c-.1634-.2327-.3006-.6236-.4998-.6584-.2112-.0368-.6149.211-.7022.428-.3372.8388-.6074,1.7081-.8412,2.5824-.0527.1972.1383.6563.2224.6576.2797.0044.7345-.0687.8135-.248.3791-.8612.6567-1.767,1.0073-2.7615ZM42.7894,102.0175c-1.3789.8798-2.0597,3.5214-1.3001,4.5761,1.0593-1.3143.986-2.8586,1.3001-4.5761ZM37.7673,119.2367c-.1459-.048-.2918-.096-.4377-.144-.4389,1.3088-.8778,2.6177-1.3166,3.9265,1.5644-.4182,2.1384-2.0005,1.7543-3.7826ZM45.9384,87.9979c.1719.0333.3439.0666.5158.0999.1788-.7899.303-1.5977.5535-2.3641.2012-.6155.0323-1.0121-.5567-.9595-.3025.027-.7909.5248-.7977.8189-.0184.799.1754,1.6029.2851,2.4048ZM16.0543,156.6972c.5588-.9014-.0711-3.4016-.9662-3.8348-.3351,1.4638.09,3.1509.9662,3.8348ZM31.544,109.785c-.313,1.0969-.5695,1.8748-.7389,2.6712-.0444.209.1814.4755.2831.7156.2186-.1047.4948-.1579.644-.3248.3236-.3621.5822-.7823.7592-1.0283-.2322-.4985-.5011-1.0756-.9474-2.0337ZM109.8745,169.6009c-.1435.0562-.287.1125-.4305.1687.0375.733-.0064,1.4841.1504,2.1906.0682.3072.549.5226.8425.7798.1286-.2927.4253-.6362.355-.8688-.235-.7781-.6013-1.5166-.9173-2.2702ZM28.6853,149.1988c-.0613.2142-.1226.4284-.1839.6426,1.568.4368,3.136.8735,4.704,1.3103.0332-.1169.0663-.2339.0995-.3508-1.5399-.534-3.0797-1.068-4.6196-1.602ZM94.1976,119.521c-.0476-.1807-.0952-.3613-.1428-.542-.4681.1568-.9668.2566-1.3956.4867-.4157.2231-.7631.5758-1.134.8797-.276.2261-.5414.4651-.8115.6984l.2074.2968c1.3815-.0614,2.0756-1.4178,3.2764-1.8196ZM89.7869,37.31c-.1194.1213-.2387.2427-.3581.364.4538.6353.8741,1.2994,1.382,1.8879.1491.1728.5495.1749.8283.1568.0691-.0045.2286-.5094.151-.5862-.6417-.6339-1.3294-1.2212-2.0031-1.8226ZM24.4424,135.0593c1.2751-.4083,1.3712-1.2027,1.346-2.0385-.0042-.1393-.242-.3932-.3484-.3814-.1966.0217-.4953.1655-.5412.3207-.181.6118-.2803,1.2477-.4563,2.0993ZM28.8069,119.3167c.1401.0409.2802.0818.4204.1226.3352-.6546.7045-1.2951.9831-1.973.0748-.1819-.0851-.5081-.2269-.7025-.043-.059-.5349.0565-.5694.1691-.2395.7832-.4127,1.5867-.6071,2.3837ZM31.2726,165.7545l-.5441-.1585c-.3438,1.0317-.6876,2.0635-1.0314,3.0952.1784.0569.3568.1138.5352.1706.3468-1.0358.6936-2.0716,1.0403-3.1073ZM52.5785,45.2756c.0639-.1332.1279-.2664.1918-.3996-.5684-.3331-1.1238-.6931-1.7151-.9787-.1348-.0651-.3938.1269-.5957.2006.0924.235.1285.6182.2873.6786.5887.224,1.2178.3416,1.8317.4992ZM102.5614,167.4499q-1.0822,2.2202,0,2.616v-2.616ZM59.8727,18.6441c-.0685-.1619-.1371-.3237-.2056-.4856-.5105.2005-1.0211.4011-1.5316.6016.1661.235.2847.5998.5071.6814.7409.2719,1.0659-.1813,1.2301-.7974ZM61.4744,129.4778c.6082.0535,1.2164.107,2.0009.1761-.671-1.3038-.9278-1.3344-2.0009-.1761ZM19.0953,172.28c.1513.0361.3026.0722.454.1083.234-.9334.4681-1.8668.7021-2.8002-.1556-.0372-.3112-.0745-.4668-.1117-.2298.9345-.4595,1.8691-.6893,2.8036ZM37.4057,113.5058c-.107-.1794-.2139-.3588-.3209-.5383-.5096.3652-1.0193.7304-1.5289,1.0957.1115.1646.223.3293.3344.4939.5051-.3504,1.0102-.7008,1.5154-1.0513ZM119.9401,180.0957c.1804-.0189.3608-.0378.5412-.0566v-1.4127c-.2887.0261-.5773.0523-.866.0784.1083.4636.2166.9272.3248,1.3909ZM65.7325,128.3194c-1.1873-.4424-1.4087-.2725-1.3714,1.0592.4987-.3852.8902-.6876,1.3714-1.0592ZM82.2462,122.9992c-.2325.6682-.3845,1.1053-.6229,1.7906.6555-.4313,1.11-.7304,1.757-1.1561-.4683-.262-.7697-.4306-1.1341-.6345Z"/>
  <path d="M116.7198,157.4614c-.1771-3.0903-.6165-3.6566-3.0298-4.3644.6681-.7082,1.4199-1.5051,2.3842-2.5273,1.1532.0315,2.9822-1.353,4.3618.9928-1.146.3647-2.2031.7011-3.2602,1.0375.0081.091.0162.1821.0243.2731h3.3279c-.803,1.507-1.4736,2.9102-2.3028,4.2124-.1893.2973-.926.2458-1.5053.376Z"/>
  <path d="M137.744,177.2898c-.9161-.5954-1.8322-1.1907-2.7484-1.7861-.2966-1.4532-1.7123-1.464-2.666-2.0703l.037.0343c-.0532-.2213-.1063-.4427-.1492-.6214,3.0192.3936,5.6214,1.3808,6.7783,4.8385-.5266-.1662-.8892-.2806-1.2518-.395Z"/>
  <path d="M43.112,189.9888h-18.129c0-.0829,0-.1658,0-.2488h18.1744c-.0152.0829-.0304.1658-.0455.2488Z"/>
  <path d="M77.6488,15.3348c-1.3008.7979-2.4211-.1204-3.6116-.3712l.0282-.3309c1.1973.0961,2.3947.1922,3.592.2883-.0029.1379-.0058.2759-.0087.4138Z"/>
  <path d="M116.9201,116.4175c.4925-.2184.9851-.4369,1.4776-.6553.0659.1977.2192.5502.1845.5698-.4484.2536-.9235.4599-1.3919.6781-.09-.1975-.1801-.395-.2701-.5926Z"/>
  <path class="b" d="M54.9505,23.3129c1.2654.2477,2.5343.4788,3.7947.7501.6122.1317,1.1435.28,1.5195-.4733.1113-.223.6612-.4001.948-.3328,1.4378.3374,2.8535.7687,4.2807,1.1529.3016.0812.6191.1032.9935-.0062-.5667-.2692-1.1204-.5719-1.7036-.7986-.6225-.2419-1.2939-.3635-1.9051-.6276-.5851-.2528-1.1203-.621-1.6775-.9385.0434-.1348.0867-.2697.1301-.4045.3813.0337.8353-.0537,1.1306.1236.9434.5665,1.5492.1615,2.176-.5247.3074-.3366.7484-.5511,1.1289-.8208.061.0834.1221.1668.1831.2502-.3597.4506-.7194.9013-1.0791,1.3519,1.6872-.2496,3.2258-1.3982,5.1079.2568-.8926-.2574-1.4541-.4193-2.1289-.6139.0564.4096.099.7193.1135.8249.731.1525,1.3652.2847,2.1661.4517q.7365-.7358,1.8487.8949c.4959-.2497.9894-.4982,1.6839-.8479v1.4716c.6323-.189,1.2553-.5857,1.7284-.452.4001.1132.6267.8408.9635,1.3468.1807-.1562.4572-.3952.5353-.4627.5783.7009,1.1183,1.3245,1.6156,1.9806.1212.1599.2056.4866.1226.6297-.12.207-.3961.4194-.6267.4459-.4575.0526-.9294-.0201-1.5797-.0494.5441.495,1.1789.8032,1.2885,1.2426.1271.5095-.1243,1.1741-.3747,1.6925-.1318.273-.677.5986-.924.5251-3.2358-.9626-6.4561-1.9784-9.6708-3.0108-1.7016-.5465-3.4031-1.1024-5.0713-1.7411-2.3154-.8865-4.5996-1.8547-6.8971-2.788.0598-.1663.1196-.3326.1794-.4989Z"/>
  <path class="b" d="M94.657,97.9919c.0256.0085-.1201-.0398-.5-.1659.3453-.0952.4877-.1069.6-.1713.2134-.1223.4096-.2747.6129-.4146-.1839-.1717-.3593-.48-.553-.4919-.9688-.0598-1.1824-.7229-1.2056-1.4768-.0286-.9265.0485-1.856.0613-2.7844.0026-.1887-.0128-.4521-.1304-.5566-1.4326-1.2729-.6815-3.0593-1.0919-4.5681-.0584-.2147.0055-.4607-.0402-.6813-.3814-1.8424-1.0412-3.674-1.0986-5.525-.0734-2.3665-.9269-4.5762-1.0031-6.9102-.0174-.5319.1177-1.0687.1876-1.6438-.1708-.0401-.3952-.0929-.7227-.1698.2351-.1427.4051-.2458.6688-.4059-.2155-.1424-.4472-.2223-.5586-.3847-.2211-.3222-.3758-.69-.558-1.039.4718-.1702.9415-.458,1.4162-.4663.2834-.005.7311.3748.8334.6744.3301.9673.5373,1.9768.7848,2.9718.0568.2283.1981.527.1091.6863-1.089,1.9494.1436,3.8595.1274,5.7898-.008.9566.8338,1.8896,1.0719,2.8857.4551,1.9036.7424,3.8469,1.1198,5.7697.3346,1.7044.7228,3.3985,1.0343,5.1069.1224.671.0095,1.3895.1635,2.0491.3217,1.3779.7924,2.7208,1.1166,4.0982.1765.7498.8474,1.6942-.5628,2.1116-.2707.0801-.3497.6893-.6326.8973-.144.1059-.7701-.0964-.7942-.2291-.2417-1.3326-1.0774-2.5436-.8582-3.9613.0512-.3311.2537-.6387.4023-.9947Z"/>
  <path class="b" d="M110.4496,186.0881v-8.1656c.1557-.0087.3114-.0174.4671-.026,1.0373.9417-.2292,2.1172.0602,3.1396.0668.0102.1916.0411.1963.0283.7646-2.1035,2.9736-2.486,4.4557-3.731.5854-.4918,1.1783-.2284,1.5055.3594.3425.6153.5778,1.2998.789,1.9762.2211.7082.3533,1.4439.5326,2.1655.3098,1.2467-.2633,1.8693-1.5407,1.6762-1.9025-.2876-3.8058-.5694-5.7022-.8526-.1306,1.0478-.2794,2.2404-.4281,3.433l-.3354-.0029Z"/>
  <path class="b" d="M22.162,173.8557c.1284-.6368.1771-1.3028.3985-1.9054,1.1518-3.1347,2.4035-6.2336,3.5116-9.3833.9997-2.8413,1.8757-5.7269,2.7608-8.6069.1196-.3892-.0975-.8715-.0298-1.2899.0807-.4985.2427-1.0067.4864-1.4456.1087-.1957.5031-.2326.7678-.3415.0581.2525.2242.5385.1579.7524-.7996,2.5765-1.6299,5.1436-2.4594,7.7108-1.0855,3.3595-2.1631,6.7217-3.2735,10.073-.4384,1.3232-.9401,2.6264-1.4517,3.9234-.0989.2507-.3781.4301-.5741.6424-.0982-.0431-.1963-.0862-.2945-.1293Z"/>
  <path class="b" d="M104.038,178.7607c.305-.402.5815-.8305.9232-1.1984.3323-.3578.7314-.6536,1.1372-1.0082.1952.2297.3708.3397.3822.4646.1261,1.3914.3935,2.7364.7395,4.1018.2902,1.1453-1.1733,1.0671-1.8967,1.1259-1.0061.0818-2.0423-.208-3.4152-.3834.3327-.6216.5669-1.1764.9047-1.6586.3701-.5283.8358-.9895,1.2598-1.4799,0,0-.0348.0363-.0348.0363Z"/>
  <path class="b" d="M119.9047,183.8269c1.5466-.8609,2.9622-1.7173,4.4415-2.4442.7722-.3794,3.4836.6904,3.9282,1.4546.1419.2439.1258.5799.2141,1.0417-1.0788-.2375-1.9776-.512-2.8958-.6184-1.1986-.1389-2.3073.001-3.2877.9457-.9861.9503-1.5237.8301-2.4003-.3794Z"/>
  <path class="b" d="M47.8004,174.4309l-9.0114,8.1465c-.1206-.071-.2412-.1419-.3618-.2129.0751-.269.0692-.6138.2384-.7947,1.1346-1.2131,2.2771-2.4221,3.4747-3.5722,1.1709-1.1245,2.3859-2.2068,3.6323-3.2466.469-.3912,1.0806-.6113,1.6271-.9095.1336.1965.2672.393.4007.5894Z"/>
  <path class="b" d="M11.3411,159.352c-1.3572,2.3708-2.2861,4.9884-4.402,6.8095-.1576-.0398-.3153-.0795-.4729-.1193.0577-.5083-.0282-1.0972.2025-1.5082.4974-.8859,1.1769-1.6674,1.7429-2.5176.283-.4251.6502-.8946.6849-1.3658.1077-1.4631,1.1518-1.3153,2.2446-1.2986Z"/>
  <path class="b" d="M51.1135,117.2761c1.55-5.2046,3.0999-10.4092,4.6678-15.6739.3851.9823-3.5168,14.9585-4.3586,15.787-.1031-.0377-.2061-.0754-.3092-.1131Z"/>
  <path class="b" d="M61.1887,32.2141c.3592.1397.7185.2794,1.1927.4638-.3577,1.2922-.6954,2.5119-1.033,3.7315-.1295.017-.259.034-.3886.051-.5978-.8744-1.262-1.7122-1.7707-2.6357-.3581-.6501-.1199-1.0372.7409-.9483.3958.0409.8217-.2089,1.2339-.3269.0083-.1118.0165-.2237.0248-.3355Z"/>
  <path class="b" d="M83.0969,52.5918c-.0702-1.2127.6306-1.5533,1.4962-1.6723-.0597-.5852-.1114-1.0917-.1632-1.5982.6327.1008,1.289.127,1.893.3184,1.1626.3682,1.4132.9148.66,1.3424-1.1701.6643-2.2248,1.7561-3.886,1.6097Z"/>
  <path class="b" d="M52.0376,30.6142c.7711-1.3186,1.6012-1.586,2.8274-.9924.3891.1884.7945.3435,1.1938.5106.3938.1648.7893.3257,1.2311.5077-.9624.8647-3.9626.8254-5.2523-.0259Z"/>
  <path class="b" d="M49.6786,172.1567c.3663-1.62,4.635-5.2781,6.1709-4.9328-2.0624,1.8318-3.9774,3.5326-5.8924,5.2334-.0929-.1002-.1857-.2004-.2786-.3006Z"/>
  <path class="b" d="M103.4874,185.379c1.4288-.0787,2.8029-.1662,3.6247,1.1849.195.3206.1178.8069.1657,1.2161-1.7936.1171-3.8451-1.218-3.7905-2.401Z"/>
  <path class="b" d="M50.8951,55.1478c-1.5469-.0755-3.0937-.1509-4.6483-.2268-.0543-.7008-.0872-1.1253-.1221-1.5759,1.8804-.2999,3.4143.3364,4.7704,1.8027Z"/>
  <path class="b" d="M61.5642,83.2557c-1.2156,2.938-1.0384,6.3604-3.2249,8.9486.8816-3.045,1.7633-6.09,2.6449-9.1351.1933.0622.3867.1243.58.1865Z"/>
  <path class="b" d="M21.7827,176.3318c-.7199,2.4581-1.4398,4.9161-2.1597,7.3742-.803-1.2575.7741-6.616,2.1597-7.3742Z"/>
  <path class="b" d="M36.818,184.3386c-.56.4148-1.138.8078-1.6745,1.251-.4559.3766-.9702.7457-1.271,1.2338-.605.9819-1.4522,1.0737-2.4617.9682.482-1.1698,3.6677-3.612,5.0038-3.8761.1345.141.269.282.4034.423Z"/>
  <path class="b" d="M89.2851,65.4855c1.5946-.0835,2.0943,1.3149,1.7856,4.3452h-1.8726c.3689-.8886.6897-1.6614.8903-2.1445-.3025-.8288-.5305-1.4535-.8032-2.2007Z"/>
  <path class="b" d="M43.8477,142.0872c.011-2.5818,1.3642-4.7831,2.0486-7.3228.3955,1.4713-.9508,6.5614-2.0486,7.3228Z"/>
  <path class="b" d="M30.9535,143.7402c-.4461,1.622-.7458,2.844-1.1404,4.0345-.0791.2385-.5198.3571-.7938.5309-.1467-.2819-.4621-.5998-.411-.8395.2296-1.0779.5044-2.1565.9021-3.1808.096-.2474.7224-.2887,1.4432-.5451Z"/>
  <path class="b" d="M43.7075,64.8485c1.0054.8007,2.0108,1.6014,3.1187,2.4837-.8897.4278-3.047.0741-3.3562-.5286-.2474-.4823-.1509-1.1412-.207-1.7217.1482-.0778.2963-.1555.4445-.2333Z"/>
  <path class="b" d="M44.0883,187.5718h-5.6384c1.359-1.1553,3.455-1.5364,4.727-.8469.2613.1416.4524.4127.9114.8469Z"/>
  <path class="b" d="M33.8068,135.5947c-.3506.9946-.6282,1.9004-1.0073,2.7615-.079.1794-.5338.2524-.8135.248-.0841-.0013-.2751-.4603-.2224-.6576.2338-.8743.504-1.7436.8412-2.5824.0873-.217.491-.4648.7022-.428.1992.0348.3364.4257.4998.6584Z"/>
  <path class="b" d="M19.2619,162.4299c.8128-.3928,1.3638-.3806,1.059.9624.4469-.2895.7179-.465,1.0086-.6533.089.0768.2609.1794.2473.2203-.204.6134-.4172,1.2258-.6884,1.8105-.0187.0403-.5618-.0737-.7752-.2319-.4161-.3082-.7714-.6986-1.3133-1.2061.1115-.2105.3028-.5713.4946-.9322.0006-.0001-.0326.0303-.0326.0303Z"/>
  <path class="b" d="M42.7894,102.0175c-.3141,1.7175-.2409,3.2618-1.3001,4.5761-.7596-1.0547-.0788-3.6963,1.3001-4.5761Z"/>
  <path class="b" d="M37.7673,119.2367c.384,1.7821-.19,3.3644-1.7543,3.7826.4389-1.3088.8778-2.6177,1.3166-3.9265.1459.048.2918.096.4377.144Z"/>
  <path class="b" d="M45.9384,87.9979c-.1097-.802-.3035-1.6058-.2851-2.4048.0068-.2942.4952-.7919.7977-.8189.589-.0526.7579.344.5567.9595-.2505.7664-.3747,1.5742-.5535,2.3641-.1719-.0333-.3439-.0666-.5158-.0999Z"/>
  <path class="b" d="M19.0067,188.0848c.347-.2265.6707-.5907,1.0452-.6539,1.1902-.201,2.5404.63,3.6084-.5829.053-.0602.6827.388,1.044.5995-.0419.1457-.0839.2915-.1258.4372-1.8674.0557-3.7348.1114-5.6026.1668-.0003-.0002.0308.0332.0308.0332Z"/>
  <path class="b" d="M16.0543,156.6972c-.8762-.684-1.3013-2.3711-.9662-3.8348.8951.4332,1.525,2.9335.9662,3.8348Z"/>
  <path class="b" d="M31.544,109.785c.4463.9581.7152,1.5352.9474,2.0337-.177.246-.4356.6662-.7592,1.0283-.1491.1669-.4254.2201-.644.3248-.1017-.2401-.3276-.5066-.2831-.7156.1693-.7964.4259-1.5743.7389-2.6712Z"/>
  <path class="b" d="M109.8745,169.6009c.316.7536.6823,1.4921.9173,2.2702.0703.2326-.2264.5761-.355.8688-.2934-.2571-.7743-.4726-.8424-.7798-.1568-.7065-.1129-1.4576-.1504-2.1906.1435-.0562.287-.1125.4305-.1687Z"/>
  <path class="b" d="M28.6853,149.1988c1.5399.534,3.0797,1.068,4.6196,1.602-.0332.1169-.0663.2339-.0995.3508-1.568-.4368-3.136-.8735-4.704-1.3103.0613-.2142.1226-.4284.1839-.6426Z"/>
  <path class="b" d="M94.1976,119.521c-1.2008.4018-1.8949,1.7581-3.2764,1.8196l-.2074-.2968c.2701-.2332.5355-.4722.8115-.6984.3708-.3039.7182-.6566,1.134-.8797.4288-.2301.9275-.3299,1.3956-.4867.0476.1807.0952.3613.1428.542Z"/>
  <path class="b" d="M89.7869,37.31c.6738.6014,1.3615,1.1886,2.0031,1.8226.0776.0767-.0818.5817-.151.5862-.2788.0181-.6792.016-.8283-.1568-.5079-.5885-.9282-1.2527-1.382-1.8879.1194-.1213.2387-.2427.3581-.364Z"/>
  <path class="b" d="M104.0727,178.7244c-.7377.2472-1.4754.4943-2.4692.8272.6328-.7003,1.0623-1.1967,1.5169-1.6689.1951-.2027.4422-.3553.6656-.5306.1109.2721.2569.5363.32.8191.0406.1821-.0406.3914-.0676.589-.0004.0005.0343-.0358.0343-.0358Z"/>
  <path class="b" d="M24.4424,135.0593c.176-.8515.2753-1.4875.4563-2.0993.0459-.1552.3447-.299.5412-.3207.1064-.0117.3442.2421.3484.3814.0252.8358-.0709,1.6302-1.346,2.0385Z"/>
  <path class="b" d="M28.8069,119.3167c.1944-.797.3676-1.6005.6071-2.3837.0345-.1127.5264-.2281.5694-.1691.1419.1945.3017.5206.2269.7025-.2785.6779-.6478,1.3184-.9831,1.973-.1401-.0409-.2802-.0818-.4204-.1226Z"/>
  <path class="b" d="M31.2726,165.7545c-.3468,1.0358-.6936,2.0716-1.0403,3.1073-.1784-.0569-.3568-.1138-.5352-.1706.3438-1.0317.6876-2.0635,1.0314-3.0952l.5441.1585Z"/>
  <path class="b" d="M52.5785,45.2756c-.6139-.1576-1.243-.2752-1.8317-.4992-.1588-.0604-.1949-.4436-.2873-.6786.2018-.0737.4608-.2657.5957-.2006.5913.2856,1.1467.6457,1.7151.9787-.0639.1332-.1279.2664-.1918.3996Z"/>
  <path class="b" d="M102.5614,167.4499v2.616q-1.0822-.3958,0-2.616Z"/>
  <path class="b" d="M59.8727,18.6441c-.1642.6161-.4892,1.0693-1.2301.7974-.2224-.0816-.341-.4464-.5071-.6814.5105-.2005,1.0211-.4011,1.5316-.6016.0685.1619.1371.3237.2056.4856Z"/>
  <path class="b" d="M61.4744,129.4778c1.0731-1.1583,1.3299-1.1278,2.0009.1761-.7845-.069-1.3927-.1226-2.0009-.1761Z"/>
  <path class="b" d="M19.0953,172.28c.2298-.9345.4595-1.8691.6893-2.8036.1556.0372.3112.0745.4668.1117-.234.9334-.4681,1.8668-.7021,2.8002-.1513-.0361-.3026-.0722-.454-.1083Z"/>
  <path class="b" d="M132.3296,173.4334c.9537.6063,2.3694.617,2.666,2.0703-.8887-.6901-1.7773-1.3802-2.666-2.0703Z"/>
  <path class="b" d="M37.4057,113.5058c-.5051.3504-1.0102.7008-1.5154,1.0513-.1115-.1646-.223-.3292-.3344-.4939.5096-.3652,1.0193-.7304,1.5289-1.0957.107.1794.2139.3589.3209.5383Z"/>
  <path class="b" d="M119.9401,180.0957c-.1083-.4636-.2166-.9272-.3248-1.3909.2887-.0261.5773-.0523.866-.0784v1.4127c-.1804.0189-.3608.0378-.5412.0566Z"/>
  <path class="b" d="M65.7325,128.3194c-.4812.3716-.8727.674-1.3714,1.0592-.0373-1.3317.1841-1.5017,1.3714-1.0592Z"/>
  <path class="b" d="M82.2462,122.9992c.3645.2039.6659.3725,1.1341.6345-.6471.4258-1.1015.7248-1.757,1.1561.2384-.6853.3904-1.1224.6229-1.7906Z"/>
</svg>