<?xml version="1.0" encoding="UTF-8"?>
<svg xmlns="http://www.w3.org/2000/svg" version="1.1" viewBox="0 0 84.3 188.9">
  <!-- Generator: Adobe Illustrator 28.7.3, SVG Export Plug-In . SVG Version: 1.2.0 Build 164)  -->
  <g>
    <g id="a">
      <g>
        <path d="M69.2,172.3c-.6.3-1,.7-1.5.8-3,.5-5.9,1-8.9,1.4-.4,0-.8-.5-1.3-.9-1.7.4-3.6.8-5.6,1.3.2-.4.3-.7.4-.9,0,0-.1-.1-.2-.2-.5.3-1,.6-1.3.8-.5-.4-.8-.7-1-1-.4-.7-2.2-.3-1.4-2-.3.2-.4.3-.5.3-.5.1-.9.2-1.4.3,0-.5-.2-1-.2-1.4,0-.3.1-.7.3-.9,1.6-2.2.7-4.6.4-6.8-.2-1.5,0-2.7-.2-3.8,1.8-.4,3.3-.8,4.9-1.2,0-.2,0-.3,0-.5-.7,0-1.4.1-2.1.1-.3,0-.8,0-.9,0-.8-1.3-2.1-1.4-3.4-1.5-.7,0-1.4-.3-2.2-.4.7-.9,2-1.3,3.2-1.3.5,0,1.2,0,1.6-.4.4-.3.6-1.3,1-1.4.5-.1,1.1.4,1.6.6,0-1.7-.3-3.5-.2-5.2,0-1.5.5-2.9,2.1-3.8,1.5-.8,2.6-2.2,2.7-4,.2-2.6.3-5.2.4-7.8,0-1.9-.9-3.4-2.7-4-2-.6-4-1.2-6-1.7-1.2-.3-1.9-1.2-1.4-2.4.7-1.3.4-2.4-.1-3.5-.2-.4-.6-.7-1-1-.1,0-.2.2-.4.2v-1c.4,0,.8.1,1.1.2.7-.2.3-1,.8-1.4,1.6-1.4,3.5-2.8,3.4-5.4,0-1.9.3-3.8.2-5.7-.1-2,.7-3.1,2.4-3.7.3,0,.5-.2.8-.3.8-.4,1.2-.9,1.2-1.9,0-.9.2-1.8.2-2.7,0-1.4,0-2.8,0-4.2,0-.8-.3-1.5-.5-2.3-.3-1.6-.4-3.2-1-4.7-1.1-3-2.3-6-3.6-9-.4-.9-.2-1.3.8-1.5.6,0,1.2-.3,1.6-.7,1-.7,2-1.6,3-2.4.5-.4,1-.8,1.6-1.1.8-.5,1-1.1.7-2-.3-1-1-1.1-1.9-1-.6,0-1.4.3-1.9,0-.5-.3-.8-1.1-1.1-1.8-.1-.2-.1-.5-.3-.7-.5-.7-.4-1.4,0-2.2.5-1.3,1.2-2.8.8-4-.7-2.5-1.8-4.9-3-7.2-.9-1.7-1.1-1.7.7-2.7,1-.6,1.5-1.4,1.7-2.5-2.6.4-2.5-.2-3.6-1.9-.9-1.5-1.8-3.1-2.8-4.9,0,1.8-2.7.5-2.4,2.5-.5,0-.9-.1-1.4-.2,0,0,0,.2,0,.2.2.2.5.4.7.7-.8.7-1.5.9-1.9-.3-1.3.3-2.6.6-3.9,1-1.3.5-2.5,1.2-3.8,1.8-1.1.5-1.8,1.4-1.7,2.7,0,.3,0,.6,0,1,.2,2.5,1.1,4.7,3,6.4.2-.3.4-.7.6-.9,1.6-1.1,3.2-2.1,4.8-3.1,2.5-1.7,5-3.4,7.6-5.1.2-.1.5,0,.8-.1-.7.8-1.3,1.4-2,1.9-3.3,2.3-6.6,4.6-9.9,6.9-.3.2-.5.7-.7,1.1.5.2,1,.6,1.5.6.6,0,1.1-.4,1.7-.6.3,0,.6,0,.8,0,2.3,1.8,3.4,4.3,4.6,6.8-1.8.9-2.2,1.1-1.9,3.7.2,1.7.2,3.5-.3,5.1-.8,2.5-2.2,4.8-3.3,7.1-2.1,4.3-3.4,8.7-3.4,13.5,0,1.7-.2,3.4-.5,5.1-.2,1.7.4,3,2,3.6.7.3,1.4.7,2,1,.8.4,1.1,1,1,1.8-.1,1.5-.2,3-.2,4.5,0,2.6.1,5,2.3,6.8,1.2,1,1.8,2.3,1.6,3.9-.2,1.4-.3,2.9-.6,4.3-.2.8-.7,1.6-1.8,1.6-1.8.2-3.7.5-5.5.7-2.2.2-3.5,1.5-3.5,3.7,0,2.6.2,5.2.4,7.9.1,2,.6,3.8,2.5,4.6-.2.4-.4.8-.3,1,.4.8.8,1.7,1.3,2.4.6.9.4,2.3,1.8,2.7,0,0,0,.3,0,.4-.5,1.4-.3,2.6.4,3.8.3.5.3.9-.3,1.2-.5.2-.9.5-1.2.9-.7,1-1.4,1-2.2.2-.3-.3-.8-.5-1.2-.6-.8-.3-1.9,0-2.2-1.3,0,0-.1,0-.2-.2-.2.3-.4.5-.8,1,.8.5,1.4,1.2,2.1,1.5,1,.4,2.2.4,3.3.6,1.7.2,2.1.6,2,2.2,0,.8,0,1.7,0,2.5h.2c.2-.5.5-1,.7-1.6,0,0,.2,0,.3,0v3.3c-1-.2-1.2.2-1.2,1,0,1-.2,2.1-.4,3.1,0,.3-.4.6-.7.6-2.7.2-5.4.9-8.1.1-.5-.1-1.2.2-1.7.3-.3,0-.6-.4-1-.5-1.4-.3-2.9-.4-4.3-.6-.5,0-1,0-1.4,0-2.6-.2-5.2-.6-7.8-.7-.6,0-1.3.6-1.9,1-.4.3-.7.8-1,1.3-.8,1.3-1.6,2.6-2.4,3.9,0,0,.2.1.3.2.4-.4.8-.8,1.2-1.2.8-.5.9-1.9,2.2-1.7,0,0,.2-.2.3-.4.3-.6.7-1.2,1-1.8.3-.6.8-.8,1.2-.4.3.3.5,1,.4,1.2-.4.7-1,1.3-1.5,2-.8,1-1.7,1.9-2.7,2.9.8,0,1.3.2,1.5.2,1.3-1.5,2.5-2.9,3.6-4.4.8-.9,2.4-.9,3.3,0,.5.5,1.1,1.1,1.8,1.4,2.2.8,4.4,1.4,6.5,2-.8.9-1.7,1.9-2.6,2.9.5,1.2.4,1.1-.5,2-.5.5-.8,1.1-1.2,1.7-.8,1.1-1.5,2.3-2.3,3.4-.1.2-.6.3-.9.3-2.2,0-3.2,1-3.4,3.4.8-.1,1.6-.2,2.4-.3.2,0,.5,0,.6,0,1.2,1.4,2.8,1.1,4.3,1.1.4,0,1,.1,1.2,0,1.2-1.4,2.2-3,3.5-4.7h-1.5c.6-1.2,1.2-2.4,1.6-3.6.4-1.1,1.3-2.1.9-3.6-.6.3-.8.9-1.2,1.3-.4.4-.8.6-.8,1.5,0,1.6-.7,3-2.4,3.6-.2,0-.2.3-.4.4-1.3,1.2-2.6,2.5-4.3,3.3-.1,0-.3,0-.8-.1.6-.4,1.2-.6,1.4-1,.9-1.2,1.8-2.4,2.7-3.6.4-.5,1-1,1.2-1.5.8-2.1,2.1-3.9,3.7-5.5.6-.7,1.2-.2,1.4.1.3.9.5,1.8.6,2.7,0,.6-.3,1.2-.4,1.8.1,0,.2,0,.3.1.3-.8.6-1.5.8-2.3.4-1.3,1-1.9,2-1.8.8,0,1.6.1,2.3,0,2.3-.8,4.5-.3,6.4.3.3.7.5,1.1.7,1.6.1.2.3.5.2.7-.2,1.1-.5,2.1-.8,3.1-.4,1.5-1.1,2.9-1.2,4.4,0,.9-.2,1.3-.8,1.4-.1.8-.2,1.5-.4,2.3h3.3c.3-2.5.6-5,.9-7.6.3.2.6.4.9.5.2-.9,0-1.4-1-1.2v-6.1c1.5.5,3,.9,4.5,1.4.3.1.5.8.6,1.2.3.9.5,1.9.7,2.8.2.7.4,1.4.6,2.3-.7-.6-1.3-1-1.9-1.4-.2.3-.3.3-.2.4.4,1.6.9,3.3,1.3,4.9,0,.3-.2.9-.4,1-.6.2-.8.5-.5,1,.5,0,1,.3,1.5.3,1.2-.1,2.4-.4,3.6-.5,5.2-.2,10.4.3,15.6-.2,4.3-.4,8.3-1.5,12.4-2.7,1.8-.5,3.4-1.4,5.1-2.2-.3-1.9-10.7-9.3-15-10.8ZM47.3,131.1h.3v8.4c-.1,0-.2,0-.3,0v-8.4ZM44.6,97.4c.1,0,.2,0,.4,0v2c-.1,0-.2,0-.4,0v-2ZM42.1,113.2c-.2,0-.3,0-.5,0h0c-.1-.9-.3-1.8-.4-2.7,0-1.6,0-3.3,0-4.9,0-.3.3-.6.4-1,.2,0,.3,0,.5.1v8.4ZM42.5,78.7c-1.7,4.7-2.8,9.5-3.3,14.4,0,0-.3.2-.6.3-.4-5.4,1.2-10.2,3.3-14.9.2,0,.4,0,.6.1h0ZM34.1,140.5c-.1,0-.3,0-.4,0v-10c.2,0,.4,0,.6,0,.2,3.3-.2,6.7-.2,10ZM23.5,184.5c0-.2-.2-.6-.3-.9.1,0,.2-.1.3-.2.2.3.7.8.6,1-.2.6-.4,1.6-1.7,1,.4-.4.7-.6,1.1-.9ZM40.1,165.6c-.2.8-.3,1.6-.4,2.4-.1,0-.2,0-.3,0-.1-.6-.4-1.2-.4-1.8,0-2.5,0-4.9,0-7.4,0-.3.4-.8.7-.9.6-.2.7.3.8.8.7,2.3,0,4.5-.3,6.7Z"/>
        <path d="M50.3,153.4h0s0,0,0,0c0,0,0,0,0,0h0Z"/>
        <path d="M58,4.3s0,0-.1,0c0,0,0,0,.1,0,0,0,0,0,0,0,0,0,.1,0,.2,0,0,0,0,0-.1,0h0Z"/>
        <path d="M17.7,12.6c3,2.1,6.5,2.9,9.9,3.7,5,1.2,10.2,1.9,15.3,2.8.9.2,1.7.3,1.9,1.3.2,1.1-.8,1.4-1.5,1.9-.6.4-1.2,1-1.5,1.6-.3.6-.3,1.4-.3,2.1-.3,4.1-.6,8.2-.7,12.3,0,1.5.3,3.1.5,4.7.3,0,.8-.1,1.1-.3,1-.6,1.9-1.3,2.9-1.9,1.9-1,2.6-.8,3.7,1-.2.3-.4.6-.5.9,0,0,0,.2.1.3.8-.2,1.5-.4,2.3-.5,0,.1,0,.2,0,.3.4,0,.8.3,1.1.2.5-.2.9-.6,1.5-.8,1.1-.5,1.2-.5,1.8.8-3,.2-3.4.5-3.4,2.7,1.8-.6,3.1-.7,3.9-.4.3.1.6.3.9.4.6,0,1.4.3,1.8,0,1.5-.9,1.8-3.6.8-5-.7-1-1.3-2-2-2.9-.2-.3-.5-.5-1-1,0,.7,0,1.1-.1,1.6-.7-.6-1.3-1.1-2.1-1.7,0,1.3-.6.9-1.3.6-.2,1.2-.5,2.2-.7,3.3,0,0-.2,0-.3,0-.2-1.1-.4-2.2-.6-3.2-.1,0-.3,0-.4,0,0,.4-.2.8-.1,1.2.3,1.2-.5,1.5-1.3,1.7-.4,0-1.1-.5-1.3-1-.2-.5-.1-1.2-.1-1.8,0-2.1,0-4.1,0-6.2,0-1.8-.1-3.6,0-5.4,0-.3.5-.5.7-.8.2.3.7.6.7.9.1,2.1.4,4.2,1,6.3.4,1.3.3,2.8.4,4.2.1,0,.3,0,.4,0,0-.6,0-1.1,0-1.7,0-1.4.1-2.9.4-4.3.2-1.1.6-2.2,0-3.3-.1-.2,0-.6,0-.9.2-1.6-.8-3.2-2.3-3.6-.6-.2-1.3-.1-1.9-.2,0-.1,0-.3,0-.4h1.3c-.5-1.6,0-2.1,1.6-2.2,3.5,0,6.9,0,10.4-.1,5.3-.1,10.6-.4,15.4-3,.4-.2.8-.6,1.2-.9-1.5.4-2.9,1-4.3,1.5-1,.3-2,.7-3,.6-1.7-.1-3.4-.4-5,.5-.3.1-.6.2-.9.2-1.7,0-3.4.3-5.1.2-2.9-.2-5.9.4-8.8-.4-1.3-.4-1.5-.5-1.4-2.2,0-1.2.9-1,1.6-1,2.5,0,5.1-.2,7.6-.2,1.9,0,3.8-.2,5.4,1,.2.1.9,0,.9-.1.2-1.2,1.1-1.3,2-1.5.4-.1.8-.5,1.2-.8,0-.1,0-.2-.1-.3-5.6,1.6-11.4,1.8-17.2,1.4.8-1.8,3.7-3,9.6-4,0-.3-.2-.5-.2-.7,1.3-1.1,2.5-1.8,4.1-.8,1.7,1,3.3.1,4.7-.2-.1-.6-.2-1.1-.3-1.6h0s0,0,0,0c0,0,0,0,0,0h0s0,0,0,0c-3-1.3-6.2-2.1-9.4-2.6.6.2,1.3.5,1.9.7,1.1.2,1.9.6,1.9,1.9-.8.6-1.4.5-1.6-.6-1.4.2-.3,1.6-1.1,2-.8-.6-1.4-1.4-2.3-1.7-1.6-.6-3.2-1-4.8-1.3-3.4-.8-6.8-.9-10.2-.5-1.8.2-3.5.7-5.2,1.1-.5.1-.9.7-1.3,1,.7.5,1.6.7,1.7,1.1.4,1.1,1.4,1.4,2.3,1.9.8.4,1.6.8,2.3,1.4.5.4.7,1,1.1,1.5-.6,0-1.3,0-1.8-.1-3.2-1.1-6.3-2.2-9.5-3.3-1.1-.4-2.3-.7-3.4-1.1-1.3-.5-2.5-1.2-4-1.9.5-.7,1-1.4,1.5-2.3-1,0-2,.1-2.6.9-.7.9-1.2,2-.6,3.2.7,1.3,2.3,1.3,3.3,2.2.5.5,1.1.9,1.7,1.1,1.2.4,2.6.7,3.8,1,2,.5,4,1.1,6,1.5,1.8.3,3.7.3,5.6.4.8,0,1.5.2,1.3,1.2-.2,1.3-.9,2.2-1.7,1.7-1.2-.7-2.2-1.3-3.6-.6,0,0-.2,0-.3,0-.8-.6-1.6-1.1-2.6-.4-.1.1-.5-.1-.8-.1-.3,0-.7-.1-.9,0-1,.8-2.1-.2-3.1.2,0,0,0-.1-.1-.3.3-.2.7-.4,1-.7-1.2-.3-2.3-.5-3.4-.8-.1,0-.2-.2-.3-.2-.4-.2-.8-.4-1.2-.5-1.1-.3-2.3-.6-3.5-.8,0-.1,0-.2,0-.4-.4.4-.8.9-1.2,1.4,0-.1-.2-.3-.2-.4-.3-.6-.4-1.2-.8-1.7-.4-.5-1-1-1.5-1-1.4-.1-2.6-.7-3.5-1.8-.4-.5-.7-.3-1,.2-.5.8-.4,1.4.2,2,.5.5,1,.9,1.6,1.3ZM53.4,40.1c.2,1.8-1,1.6-1.8,1.9,0,0-.2-.2-.2-.3h0c.6-.5,1.3-1,2.1-1.7ZM41.6,5.9c-.1-.2,0-.6.1-.7.5-.5,2.4-.2,2.6.5.4,1.5.6,3.1.9,4.6-.2,0-.3.1-.5.2-1-1.5-2.1-3-3.1-4.6Z"/>
        <path d="M44.7,1.4c1.9,0,3.9.3,5.8.5.9,0,1.9,0,2.7.4,2.3,1,4.8,1,7.3,1.3,1.6.2,3.1.7,4.7,1.2.7.2,1.4.7,2.1.9,2.5,1,5.3,1.6,7.3,3.6.4.4,1,.5,1.5.8,0-.1.2-.2.2-.3-.3-.3-.6-.8-1-1-2.8-1.3-5.6-2.6-8.4-3.9-1-.4-2-.8-2.9-1.3-3.6-1.7-7.2-3.4-11.2-3.6-5.4-.2-10.8,0-16.2,0-.9,0-1.9.3-2.8.5h0c0,.1,0,.2,0,.3.6,0,1.2,0,1.8,0,3.1.1,6.2.2,9.4.3Z"/>
        <polygon points="1.5 183.8 1.5 183.8 1.5 183.8 1.5 183.8"/>
        <path d="M11.7,177.9c-1.1.9-2.4,1.5-3.7,2.2-.2.1-.4.3-.5.5-.6.8-1.3,1.6-1.9,2.4-.1,0-.2-.1-.3-.2,1.1-2,2.3-4.1,3.5-6.3-1.1,1-2.3,1.7-2.9,2.7-.6,1.1-1.9,1.8-1.9,3.2,0,.3-.8.5-1.2.7-.4.2-.8.4-1.3.7,0,.2,0,.3,0,.5,1.4.3,2.9,1,4.1.7,1.5-.5,2.8-1.8,4.2-2.9.6-.4,1-1.1,1.5-1.6.8-.8,1.6-1.5,2.4-2.3-.8-.7-1.3-.9-2.1-.2Z"/>
        <path d="M45.2,187.2c.5-.3,1-.6.9-.7-.3-.7-.7-1.4-1-2.1-.2,0-.3,0-.5,0-.6.8-1.1,1.6-1.8,2.6.8,1.7,1.6,2.1,3.2,1.3h0s0,0,0,0h0s0,0,0,0c0,0,0,0,0,0,0,0,0,0,0,0-.3-.4-.6-.8-.9-1.1Z"/>
        <path d="M15.4,181.9c0,0,.2.1.3.2,2-2.5,4-5,6.1-7.7-1.5,0-3.9,2.4-4.2,3.7-.1.5-.5.9-.7,1.4-.5.8-1.3,1.5-1.4,2.5Z"/>
        <path d="M8.9,185.7c0,.2,0,.3,0,.5.7.1,1.4.5,2,.3.9-.3,1.5-2.3,1.2-3.5-1.1.9-2.2,1.8-3.2,2.7Z"/>
        <path d="M50.9,169.5c1.5-.5,3-1.1,4.3-1.6h0c-2.5-1-4.5,1.2-6.8,1.9.8,0,1.7,0,2.5-.3Z"/>
        <path d="M3.8,177.1c-.1,0-.2-.2-.3-.3-1.2,1.3-2.3,2.7-3.5,4,.2.1.3.3.5.4,1.1-1.4,2.2-2.8,3.3-4.1Z"/>
        <polygon points="0 180.8 0 180.8 0 180.8 0 180.8"/>
        <path d="M53.1,155.7c-1.1-.9-1.9-1.5-2.8-2.2,0,1.7.8,2.5,2.8,2.2Z"/>
        <path d="M50.3,153.4s0,0,0,0c0,0,0,0,0,0,0,0,0,0,0,0Z"/>
        <path d="M35.1,180.5h0c.1,0,.3,0,.4,0,.3-1.5.7-2.9,1-4.4-.1,0-.2,0-.3,0-.6,1.4-1.3,2.8-1.1,4.4Z"/>
        <path d="M29,180.8c-.7,1.5-1.4,2.9-2.2,4.6,1.1-.6,2.3-3.4,2.2-4.6Z"/>
        <path d="M34.5,149.7c-.1,1.1-.3,2.2-.4,3.4,1.1-.6,1.3-1.5.8-3.4h0c-.1,0-.2,0-.3,0Z"/>
        <path d="M14.5,177.1c0,0,.1.2.2.2,1.2-.6,2.4-1,3-2.2-.1-.1-.2-.3-.3-.4-1,.8-1.9,1.6-2.9,2.4Z"/>
        <path d="M38.1,176h0c-.2,0-.3,0-.5,0-.1,1.2-.2,2.4-.3,3.6.2,0,.3,0,.4,0-.1-1.2.9-2.3.3-3.6Z"/>
        <path d="M52.6,3.2s0,0,0,0h-.2s0,0,.1,0c0,0,0,0,0,0,0,0,0,0,0,0,0,0,0,0,0,0h0Z"/>
        <path d="M52.6,3.2c.2.2.4.4.6.5,1.5.2,3.1.4,4.6.6-.2,0-.4-.2-.6-.2-1.5-.3-3.1-.6-4.6-.8Z"/>
        <polygon points="39.1 2.3 39.1 2.3 39.1 2.3 39.1 2.3"/>
        <path d="M43.6,2.5c-1.1,0-2.8-.1-4.5-.2,0,0,0,.2,0,.2h4.5Z"/>
        <path d="M46.7,3.2h5.7c-1.9-.1-3.8-.3-5.7-.5,0,.2,0,.3,0,.5Z"/>
        <path d="M70,8.5c0-.1.1-.3.2-.4l-2.6-1.2c.6.9,1.5,1.2,2.4,1.6Z"/>
        <path d="M53.5,34.7c-.6-.2-1.1-.4-1.7-.6,0,.6.2,1,.3,1.6.6-.4.9-.6,1.5-1Z"/>
      </g>
    </g>
  </g>
</svg>