<?xml version="1.0" encoding="UTF-8"?>
<svg id="a" data-name="Calque_1" xmlns="http://www.w3.org/2000/svg" viewBox="0 0 593.4681 593.3177">
  <path d="M360.637,495.2108h116.2969v10.8437h-28.1204v18.2219h57.6977v28.9103h46.9381v-46.15h-17.399v27.7765h-10.7948v-28.428h-29.2236v-28.98h-87.0796v-39.6822h9.964v27.8006h76.7057v-27.9388h10.6752v57.0946h47.7388v-27.9313h10.3779v97.1144h-68.4019v-27.7764h-47.4426v27.8209h-10.9503v-57.2395c-2.0944,0-3.7044.0001-5.3144,0-10.4688-.0003-20.9375-.0007-31.4063-.0009q-11.021-.0001-11.021,11.2386c0,5.6065,0,11.2129,0,17.2013h-28.8865v28.8308h-40.2159v-57.2833h-47.4789v57.2842h-10.6471v-86.4685h-29.2827v-58.2176h-76.737v28.2138h-29.1342v29.0361h-10.7806v-57.5635h-29.4129v-58.3281h-28.7053v-40.1647h27.9194v-47.2324h-27.9998v-40.2392c2.6428,0,5.3813-.2988,7.9848.163.9043.1604,2.0732,2.1905,2.1006,3.39.1852,8.1114.0967,16.229.0967,24.6763h47.0262V127.0431h-57.2361v-10.8544h28.0626v-17.9286h-46.2122v46.7161h27.7614v10.3873H29.4818V28.937h9.6616v28.3314h87.7749v29.1604h28.9456v28.8423h105.6481v-17.14h-86.5404v-58.3141h-18.3276v27.9758h-10.9505v-28.2286h-28.6778v-10.4915h97.0546v9.928h-28.0514v47.5237h86.6534v28.683h105.9041v-27.7328h10.8878v28.288h29.244v28.9685h17.85v-75.4843h-17.5272v27.7867h-10.7095v-27.9137h-47.5233v27.8184h-39.6618v-9.8706h28.0189c.1075-1.8599.2626-3.3074.2641-4.7551.0173-16.2509.1188-32.5031-.0703-48.7519-.0432-3.711.851-5.3751,4.7693-4.8311,1.8647.2589,3.7951.0445,6.2686.0445v28.4057h76.36v-28.0245h11.1318v28.077h57.9134v10.9167h-57.2048v87.2638h-40.3177v-27.808h-251.6803v27.9262h-11.053v-57.5152h-28.9993v-28.7274H40.11v17.3943c1.6833,0,3.2737,0,4.8641,0,16.1164.0003,32.2336.0869,48.3485-.0696,3.3509-.0325,4.5648.799,4.4566,4.3331-.2513,8.2111-.08,16.435-.08,24.9614h28.9389v57.7878h47.7033v-27.7998h215.1857v27.8843h76.7566v-86.6205h57.8847v-47.5156h-57.6527V10.6388h-47.2595v28.3114h-39.7898v-10.1572h28.0349V10.7725h-75.8683v57.346h-29.2353v28.9994h-10.8753v-28.1875h-87.2376v-11.0355h28.3289v-29.0445c5.3928,0,10.4507-.0002,15.5085,0,6.7496.0003,13.5067.1914,20.2457-.0764,3.5281-.1402,4.7104,1.0811,4.3168,4.4537-.2049,1.7556-.0362,3.5549-.0362,5.8674h-28.2533v18.0319h75.5986V10.8078h-17.6179v28.0366h-10.8982V10.729H98.1299v28.1931h-39.6586v-10.1756h27.8346V10.873c-1.2157-.0916-2.4074-.2589-3.5992-.2598-22.7282-.0163-45.4567.0386-68.1844-.0753-3.036-.0152-4.0152.7904-4.0098,3.9298.0907,52.058.0649,104.1161.0726,156.1743.0001.9421.0912,1.8842.1559,3.1382h75.9962v-27.7686h10.4517v97.0702h-9.9555v-27.8378h-47.1525v75.8635h27.868v10.9074h-27.888v76.5414h28.2895v58.4929c8.5935,0,16.6887.1744,24.7703-.08,3.5718-.1124,4.7194.8092,4.6702,4.5536-.2135,16.2481-.0915,32.5007-.0914,48.7516,0,1.4828,0,2.9656,0,4.6921h47.4022v-28.3291h28.913v-28.8162h40.3913v57.4906h28.6791v68.8615h-68.0082v-67.9951h10.1084v57.1382h47.2299v-46.1793h-17.6322v27.7669h-10.9215v-86.3239h-18.1456v28.3358h-29.1492v29.2013h-87.331v47.3868h57.114v10.7883H57.9938v-28.2262h-28.8749v-10.9352h28.2056v-29.4569h29.0099v-47.3567h-28.1925v-58.4041h-29.0927v-185.8386h57.1188v-18.1958H10.8435v309.0369h17.6001v-86.346h10.7027v57.6467h28.7784v10.8498h-28.2769v29.2133H10.6798v76.2192h17.7065v-28.0411h10.7642v28.1301h105.5605v-46.6143h-57.1893v-10.5522h68.2788v57.0877c1.7476.0927,3.2008.2366,4.654.237,42.0128.0122,84.0257-.0319,126.0382.0862,3.5467.0099,4.7379-.7872,4.6886-4.5413-.2116-16.1104-.09-32.2253-.0899-48.3385v-4.6131h10.7085v57.1359h76.7534v-28.2574h29.0938v-28.751h10.6523v39.1519h-28.0385v17.9609h76.0278v-28.2158h10.6309v28.4717h116.5273v10.4823H0V0h593.4681v564.1276h-10.1373v-115.4691h-47.3067v28.0331h-11.1095v-57.0963h-47.5002v27.8559h-40.0251v-27.8691h-47.4593v57.1105h-10.9033v-28.2113h-58.0227v-10.8194h27.9991v-28.8949h11.2943v27.8872h18.0107v-27.9015h69.2029v27.7027h18.4477v-28.304h29.0508v-47.3631h-57.8142v-29.1889h-28.6204v-10.4661h39.2277v27.9459h47.5613v-57.2692h39.8444v28.2848h28.8118v98.1505h-9.931v-57.6845h-28.7349v-11.0368h28.3091v-18.2271h-28.255v-28.8229h-18.0982v104.6693h17.3738v-27.9809h10.9711v57.0949h47.1583v-250.5312h-75.8395v57.1233h-40.1877v-28.334h-28.7577v-10.5041h39.2372v28.1417h18.0945v-86.9201h29.3499v-28.8291h39.6981v38.9227h-10.0768v-28.0765h-18.1535v28.3452h-28.8927v17.9966h75.5382v-105.1172h-27.9788v-10.831h27.9372V10.6238h-104.5854v17.6093h86.42v10.7145h-28.2539v47.3638h27.9776v10.8993h-86.1771v18.339h27.8006v10.9813h-28.3205v57.909h-98.4108v-27.9745h-76.7629v27.9982h-97.9296v-9.8899h86.2661v-17.9015h-105.1575v28.166h-57.6616v47.663h28.1998v28.9003h28.9006v39.764h-38.9822v-9.833h28.1077v-18.3955h-28.321v-28.8239h-18.1421v28.0759h-29.3963v58.6665h-28.9616v18.0634h86.8874v29.2212h28.643v10.4765h-67.802v-9.6987h27.6973v-17.9424h-46.0997v46.2708h28.218v29.1094h18.3995v-28.2883c2.0552,0,3.6472,0,5.2392,0,38.5691,0,77.1383-.0205,115.7073.018,7.4184.0074,6.5453-1.1105,6.6129,6.5425.0095,1.079-.1279,2.1593-.2238,3.6523h-27.9515v47.3264h28.2603v29.5588h58.2021v57.8844h18.4561v-28.172h28.8844v-18.5616h-28.4794v-29.1195h-58.3603v-29.0166h-28.1251c-.4816-.8406-.7131-1.064-.7325-1.3045q-.7904-9.8374,8.9582-9.8283c6.3297.0045,12.6595.0009,19.4188.0009v-29.0343h28.8576v-18.2033h-115.781v-57.9858h-18.4258v27.8364h-10.9832v-28.3049h-57.71v-39.8525h9.56v28.0835h76.9898v-86.3567h10.7451v144.6362h164.1172v-162.8647h-192.7623v27.9976h-10.9071v-28.3547h-28.6882v-10.838h202.8945v-18.3797h-27.8046v-10.5021h39.1076v28.2713h29.1138v58.2032h28.9005v11.1494h-27.9519v17.7276h75.6207v-17.2316h-28.3261v-29.2975h-28.8347v-39.688h9.7374v28.4289h29.4506v28.8008h105.3359v-46.3024h-17.3564v27.9338h-10.6025v-38.916h38.8137v97.2206h-10.0712v-27.9445h-76.4726v57.4108h-10.9524v-28.0726h-76.2523v75.2738h17.4028v-27.758h10.9646v28.2022h57.9096v10.8653h-145.0842v29.2411h-28.6405v47.6221c1.4566,0,2.7913,0,4.1259,0,16.1164-.0006,32.2348.138,48.3477-.1005,3.9867-.059,5.3112.9058,5.1411,5.0133-.3239,7.8242-.0939,15.6714-.0939,24.2323Z"/>
</svg>