<?xml version="1.0" encoding="UTF-8"?>
<svg id="a" class="hidden-svg" xmlns="http://www.w3.org/2000/svg" viewBox="0 0 593.468 593.318">
    <path id="labyrinth-path" stroke="black" fill="transparent" visibility="hidden" class="hidden-path" d="M360.637,495.211h116.297v10.844h-28.12v18.222h57.698v28.91h46.938v-46.15h-17.399v27.777h-10.795v-28.428h-29.224v-28.98h-87.08v-39.682h9.964v27.801h76.706v-27.939h10.675v57.095h47.739v-27.931h10.378v97.114h-68.402v-27.776h-47.443v27.821h-10.95v-57.24c-2.094,0-3.704,0-5.314,0-10.469,0-20.938,0-31.406,0-7.347,0-11.021,3.746-11.021,11.239v17.201h-28.887v28.831h-40.216v-57.283h-47.479v57.284h-10.647v-86.469h-29.283v-58.218h-76.737v28.214h-29.134v29.036h-10.781v-57.564h-29.413v-58.328h-28.705v-40.165h27.919v-47.232h-28v-40.239c2.643,0,5.381-.299,7.985.163.904.16,2.073,2.191,2.101,3.39.185,8.111.097,16.229.097,24.676h47.026V127.043h-57.236v-10.854h28.063v-17.929h-46.212v46.716h27.761v10.387H29.482V28.937h9.662v28.331h87.775v29.16h28.946v28.842h105.648v-17.14h-86.54v-58.314h-18.328v27.976h-10.951v-28.229h-28.678v-10.492h97.055v9.928h-28.051v47.524h86.653v28.683h105.904v-27.733h10.888v28.288h29.244v28.968h17.85v-75.484h-17.527v27.787h-10.71v-27.914h-47.523v27.818h-39.662v-9.871h28.019c.108-1.86.263-3.307.264-4.755.017-16.251.119-32.503-.07-48.752-.043-3.711.851-5.375,4.769-4.831,1.865.259,3.795.045,6.269.045v28.406h76.36v-28.024h11.132v28.077h57.913v10.917h-57.205v87.264h-40.318v-27.808h-251.68v27.926h-11.053v-57.515h-28.999v-28.727H40.11v17.394h4.864c16.116,0,32.234.087,48.348-.07,3.351-.033,4.565.799,4.457,4.333-.251,8.211-.08,16.435-.08,24.961h28.939v57.788h47.703v-27.8h215.186v27.884h76.757v-86.62h57.885v-47.516h-57.653V10.639h-47.259v28.311h-39.79v-10.157h28.035V10.773h-75.868v57.346h-29.235v28.999h-10.875v-28.188h-87.238v-11.035h28.329v-29.045c5.393,0,10.451,0,15.508,0,6.75,0,13.507.191,20.246-.076,3.528-.14,4.71,1.081,4.317,4.454-.205,1.756-.036,3.555-.036,5.867h-28.253v18.032h75.599V10.808h-17.618v28.037h-10.898V10.729H98.13v28.193h-39.659v-10.176h27.835V10.873c-1.216-.092-2.407-.259-3.599-.26-22.728-.016-45.457.039-68.184-.075-3.036-.015-4.015.79-4.01,3.93.091,52.058.065,104.116.073,156.174,0,.942.091,1.884.156,3.138h75.996v-27.769h10.452v97.07h-9.955v-27.838h-47.153v75.863h27.868v10.907h-27.888v76.541h28.289v58.493c8.593,0,16.689.174,24.77-.08,3.572-.112,4.719.809,4.67,4.554-.214,16.248-.091,32.501-.091,48.752v4.692h47.402v-28.329h28.913v-28.816h40.391v57.491h28.679v68.862h-68.008v-67.995h10.108v57.138h47.23v-46.179h-17.632v27.767h-10.921v-86.324h-18.146v28.336h-29.149v29.201h-87.331v47.387h57.114v10.788H57.994v-28.226h-28.875v-10.935h28.206v-29.457h29.01v-47.357h-28.192v-58.404h-29.093v-185.839h57.119v-18.196H10.844v309.037h17.6v-86.346h10.703v57.647h28.778v10.85h-28.277v29.213H10.68v76.219h17.706v-28.041h10.764v28.13h105.561v-46.614h-57.189v-10.552h68.279v57.088c1.748.093,3.201.237,4.654.237,42.013.012,84.026-.032,126.038.086,3.547.01,4.738-.787,4.689-4.541-.212-16.11-.09-32.225-.09-48.339v-4.613h10.708v57.136h76.753v-28.257h29.094v-28.751h10.652v39.152h-28.039v17.961h76.028v-28.216h10.631v28.472h116.527v10.482H0V0h593.468v564.128h-10.137v-115.469h-47.307v28.033h-11.109v-57.096h-47.5v27.856h-40.025v-27.869h-47.459v57.111h-10.903v-28.211h-58.023v-10.819h27.999v-28.895h11.294v27.887h18.011v-27.901h69.203v27.703h18.448v-28.304h29.051v-47.363h-57.814v-29.189h-28.62v-10.466h39.228v27.946h47.561v-57.269h39.844v28.285h28.812v98.15h-9.931v-57.685h-28.735v-11.037h28.309v-18.227h-28.255v-28.823h-18.098v104.669h17.374v-27.981h10.971v57.095h47.158v-250.531h-75.84v57.123h-40.188v-28.334h-28.758v-10.504h39.237v28.142h18.095v-86.92h29.35v-28.829h39.698v38.923h-10.077v-28.076h-18.154v28.345h-28.893v17.997h75.538v-105.117h-27.979v-10.831h27.937V10.624h-104.585v17.609h86.42v10.715h-28.254v47.364h27.978v10.899h-86.177v18.339h27.801v10.981h-28.32v57.909h-98.411v-27.975h-76.763v27.998h-97.93v-9.89h86.266v-17.902h-105.158v28.166h-57.662v47.663h28.2v28.9h28.901v39.764h-38.982v-9.833h28.108v-18.396h-28.321v-28.824h-18.142v28.076h-29.396v58.667h-28.962v18.063h86.887v29.221h28.643v10.477h-67.802v-9.699h27.697v-17.942h-46.1v46.271h28.218v29.109h18.4v-28.288h5.239c38.569,0,77.138-.021,115.707.018,7.418.007,6.545-1.111,6.613,6.543.009,1.079-.128,2.159-.224,3.652h-27.952v47.326h28.26v29.559h58.202v57.884h18.456v-28.172h28.884v-18.562h-28.479v-29.12h-58.36v-29.017h-28.125c-.482-.841-.713-1.064-.733-1.305-.527-6.558,2.459-9.834,8.958-9.828,6.33.004,12.66,0,19.419,0v-29.034h28.858v-18.203h-115.781v-57.986h-18.426v27.836h-10.983v-28.305h-57.71v-39.853h9.56v28.083h76.99v-86.357h10.745v144.636h164.117v-162.865h-192.762v27.998h-10.907v-28.355h-28.688v-10.838h202.895v-18.38h-27.805v-10.502h39.108v28.271h29.114v58.203h28.901v11.149h-27.952v17.728h75.621v-17.232h-28.326v-29.298h-28.835v-39.688h9.737v28.429h29.451v28.801h105.336v-46.302h-17.356v27.934h-10.602v-38.916h38.814v97.221h-10.071v-27.944h-76.473v57.411h-10.952v-28.073h-76.252v75.274h17.403v-27.758h10.965v28.202h57.91v10.865h-145.084v29.241h-28.641v47.622h4.126c16.116,0,32.235.138,48.348-.1,3.987-.059,5.311.906,5.141,5.013-.324,7.824-.094,15.671-.094,24.232h0Z"/>
    
    <text>
        <textPath href="#labyrinth-path" startOffset="0%" id="labyrinth-text">
            "On the other hand,are linded"    "On the other hand,are linded"    "On the other hand,are linded"
        </textPath>
    </text>
    <text>
        <textPath href="#labyrinth-path" startOffset="100%" id="labyrinth-text-reverse">
            "On the other hand,are linded"
        </textPath>
    </text>
    <text>
        <textPath href="#labyrinth-path" startOffset="25%" id="labyrinth-text-2">
            "Another phrase starting at 25%"
        </textPath>
    </text>
    <text>
        <textPath href="#labyrinth-path" startOffset="75%" id="labyrinth-text-3">
            "Yet another phrase starting at 75%"
        </textPath>
    </text>
</svg>